{
.appVersion = "3109";
classes = (
{
code = "u16F00 u16F01 u16F02 u16F03 u16F04 u16F05 u16F06 u16F07 u16F08 u16F09 u16F0A u16F0B u16F0C u16F0D u16F0E u16F0F u16F10 u16F11 u16F12 u16F13 u16F14 u16F15 u16F16 u16F17 u16F18 u16F19 u16F1A u16F1B u16F1C u16F1D u16F1E u16F1F u16F20 u16F21 u16F22 u16F23 u16F24 u16F25 u16F26 u16F27 u16F28 u16F29 u16F2A u16F2B u16F2C u16F2D u16F2E u16F2F u16F30 u16F31 u16F32 u16F33 u16F34 u16F35 u16F36 u16F37 u16F38 u16F39 u16F3A u16F3B u16F3C u16F3D u16F3E u16F3F u16F40 u16F41 u16F42 u16F43 u16F44 u16F45 u16F46 u16F47 u16F48 u16F49 u16F4A u16F50 uni25CC";
name = class1;
},
{
code = "u16F54 u16F55 u16F56 u16F57 u16F58 u16F59 u16F5A u16F5B u16F5C u16F5D u16F5E u16F5F u16F60 u16F61 u16F62 u16F63 u16F64 u16F65 u16F66 u16F67 u16F68 u16F69 u16F6A u16F6B u16F6C u16F6D u16F6E u16F6F u16F70 u16F71 u16F72 u16F73 u16F74 u16F75 u16F76 u16F77 u16F78 u16F79 u16F7A u16F7B u16F7C u16F7D u16F7E u16F7F u16F80 u16F81 u16F82 u16F83 u16F84 u16F85 u16F86 u16F87";
name = Vowels;
},
{
code = "u16F54.cnt u16F55.cnt u16F56.cnt u16F57.cnt u16F58.cnt u16F59.cnt u16F5A.cnt u16F5B.cnt u16F5C.cnt u16F5D.cnt u16F5E.cnt u16F5F.cnt u16F60.cnt u16F61.cnt u16F62.cnt u16F63.cnt u16F64.cnt u16F65.cnt u16F66.cnt u16F67.cnt u16F68.cnt u16F69.cnt u16F6A.cnt u16F6B.cnt u16F6C.cnt u16F6D.cnt u16F6E.cnt u16F6F.cnt u16F70.cnt u16F71.cnt u16F72.cnt u16F73.cnt u16F74.cnt u16F75.cnt u16F76.cnt u16F77.cnt u16F78.cnt u16F79.cnt u16F7A.cnt u16F7B.cnt u16F7C.cnt u16F7D.cnt u16F7E.cnt u16F7F.cnt u16F80.cnt u16F81.cnt u16F82.cnt u16F83.cnt u16F84.cnt u16F85.cnt u16F86.cnt u16F87.cnt";
name = VowelPlusCenteredTone;
},
{

glyphs = (
{
glyphname = .notdef;
lastChange = "2019-09-10 21:03:33 +0000";
layers = (
{
layerId = UUID0;
paths = (
{
closed = 1;
nodes = (
"505 0 LINE",
"505 714 LINE",
"94 714 LINE",
"94 0 LINE"
);
},
{
closed = 1;
nodes = (
"145 663 LINE",
"454 663 LINE",
"454 51 LINE",
"145 51 LINE"
);
}
);
width = 600;
}
);
},
{
glyphname = uni25CC;
lastChange = "2019-09-10 21:03:33 +0000";
layers = (
{
anchors = (
{
name = Anchor2;
position = "{290, 611}";
},
{
name = Anchor4;
position = "{290, 0}";
}
);
layerId = UUID0;
paths = (
{
closed = 1;
nodes = (
"199 522 OFFCURVE",
"187 510 OFFCURVE",
"187 496 CURVE SMOOTH",
"187 482 OFFCURVE",
"199 470 OFFCURVE",
"213 470 CURVE SMOOTH",
"227 470 OFFCURVE",
"239 482 OFFCURVE",
"239 496 CURVE SMOOTH",
"239 510 OFFCURVE",
"227 522 OFFCURVE",
"213 522 CURVE SMOOTH"
);
},
{
closed = 1;
nodes = (
"367 522 OFFCURVE",
"355 510 OFFCURVE",
"355 496 CURVE SMOOTH",
"355 482 OFFCURVE",
"367 470 OFFCURVE",
"381 470 CURVE SMOOTH",
"395 470 OFFCURVE",
"407 482 OFFCURVE",
"407 496 CURVE SMOOTH",
"407 510 OFFCURVE",
"395 522 OFFCURVE",
"381 522 CURVE SMOOTH"
);
},
{
closed = 1;
nodes = (
"199 112 OFFCURVE",
"187 100 OFFCURVE",
"187 86 CURVE SMOOTH",
"187 72 OFFCURVE",
"199 60 OFFCURVE",
"213 60 CURVE SMOOTH",
"227 60 OFFCURVE",
"239 72 OFFCURVE",
"239 86 CURVE SMOOTH",
"239 100 OFFCURVE",
"227 112 OFFCURVE",
"213 112 CURVE SMOOTH"
);
},
{
closed = 1;
nodes = (
"367 112 OFFCURVE",
"355 100 OFFCURVE",
"355 86 CURVE SMOOTH",
"355 72 OFFCURVE",
"367 60 OFFCURVE",
"381 60 CURVE SMOOTH",
"395 60 OFFCURVE",
"407 72 OFFCURVE",
"407 86 CURVE SMOOTH",
"407 100 OFFCURVE",
"395 112 OFFCURVE",
"381 112 CURVE SMOOTH"
);
},
{
closed = 1;
nodes = (
"283 540 OFFCURVE",
"271 528 OFFCURVE",
"271 514 CURVE SMOOTH",
"271 500 OFFCURVE",
"283 488 OFFCURVE",
"297 488 CURVE SMOOTH",
"311 488 OFFCURVE",
"323 500 OFFCURVE",
"323 514 CURVE SMOOTH",
"323 528 OFFCURVE",
"311 540 OFFCURVE",
"297 540 CURVE SMOOTH"
);
},
{
closed = 1;
nodes = (
"283 94 OFFCURVE",
"271 82 OFFCURVE",
"271 68 CURVE SMOOTH",
"271 54 OFFCURVE",
"283 42 OFFCURVE",
"297 42 CURVE SMOOTH",
"311 42 OFFCURVE",
"323 54 OFFCURVE",
"323 68 CURVE SMOOTH",
"323 82 OFFCURVE",
"311 94 OFFCURVE",
"297 94 CURVE SMOOTH"
);
},
{
closed = 1;
nodes = (
"48 277 OFFCURVE",
"60 265 OFFCURVE",
"74 265 CURVE SMOOTH",
"88 265 OFFCURVE",
"100 277 OFFCURVE",
"100 291 CURVE SMOOTH",
"100 305 OFFCURVE",
"88 317 OFFCURVE",
"74 317 CURVE SMOOTH",
"60 317 OFFCURVE",
"48 305 OFFCURVE",
"48 291 CURVE SMOOTH"
);
},
{
closed = 1;
nodes = (
"494 277 OFFCURVE",
"506 265 OFFCURVE",
"520 265 CURVE SMOOTH",
"534 265 OFFCURVE",
"546 277 OFFCURVE",
"546 291 CURVE SMOOTH",
"546 305 OFFCURVE",
"534 317 OFFCURVE",
"520 317 CURVE SMOOTH",
"506 317 OFFCURVE",
"494 305 OFFCURVE",
"494 291 CURVE SMOOTH"
);
},
{
closed = 1;
nodes = (
"113 119 OFFCURVE",
"125 107 OFFCURVE",
"139 107 CURVE SMOOTH",
"153 107 OFFCURVE",
"165 119 OFFCURVE",
"165 133 CURVE SMOOTH",
"165 147 OFFCURVE",
"153 159 OFFCURVE",
"139 159 CURVE SMOOTH",
"125 159 OFFCURVE",
"113 147 OFFCURVE",
"113 133 CURVE SMOOTH"
);
},
{
closed = 1;
nodes = (
"113 435 OFFCURVE",
"125 423 OFFCURVE",
"139 423 CURVE SMOOTH",
"153 423 OFFCURVE",
"165 435 OFFCURVE",
"165 449 CURVE SMOOTH",
"165 463 OFFCURVE",
"153 475 OFFCURVE",
"139 475 CURVE SMOOTH",
"125 475 OFFCURVE",
"113 463 OFFCURVE",
"113 449 CURVE SMOOTH"
);
},
{
closed = 1;
nodes = (
"429 119 OFFCURVE",
"441 107 OFFCURVE",
"455 107 CURVE SMOOTH",
"469 107 OFFCURVE",
"481 119 OFFCURVE",
"481 133 CURVE SMOOTH",
"481 147 OFFCURVE",
"469 159 OFFCURVE",
"455 159 CURVE SMOOTH",
"441 159 OFFCURVE",
"429 147 OFFCURVE",
"429 133 CURVE SMOOTH"
);
},
{
closed = 1;
nodes = (
"429 435 OFFCURVE",
"441 423 OFFCURVE",
"455 423 CURVE SMOOTH",
"469 423 OFFCURVE",
"481 435 OFFCURVE",
"481 449 CURVE SMOOTH",
"481 463 OFFCURVE",
"469 475 OFFCURVE",
"455 475 CURVE SMOOTH",
"441 475 OFFCURVE",
"429 463 OFFCURVE",
"429 449 CURVE SMOOTH"
);
},
{
closed = 1;
nodes = (
"66 193 OFFCURVE",
"78 181 OFFCURVE",
"92 181 CURVE SMOOTH",
"106 181 OFFCURVE",
"118 193 OFFCURVE",
"118 207 CURVE SMOOTH",
"118 221 OFFCURVE",
"106 233 OFFCURVE",
"92 233 CURVE SMOOTH",
"78 233 OFFCURVE",
"66 221 OFFCURVE",
"66 207 CURVE SMOOTH"
);
},
{
closed = 1;
nodes = (
"66 361 OFFCURVE",
"78 349 OFFCURVE",
"92 349 CURVE SMOOTH",
"106 349 OFFCURVE",
"118 361 OFFCURVE",
"118 375 CURVE SMOOTH",
"118 389 OFFCURVE",
"106 401 OFFCURVE",
"92 401 CURVE SMOOTH",
"78 401 OFFCURVE",
"66 389 OFFCURVE",
"66 375 CURVE SMOOTH"
);
},
{
closed = 1;
nodes = (
"476 193 OFFCURVE",
"488 181 OFFCURVE",
"502 181 CURVE SMOOTH",
"516 181 OFFCURVE",
"528 193 OFFCURVE",
"528 207 CURVE SMOOTH",
"528 221 OFFCURVE",
"516 233 OFFCURVE",
"502 233 CURVE SMOOTH",
"488 233 OFFCURVE",
"476 221 OFFCURVE",
"476 207 CURVE SMOOTH"
);
},
{
closed = 1;
nodes = (
"476 361 OFFCURVE",
"488 349 OFFCURVE",
"502 349 CURVE SMOOTH",
"516 349 OFFCURVE",
"528 361 OFFCURVE",
"528 375 CURVE SMOOTH",
"528 389 OFFCURVE",
"516 401 OFFCURVE",
"502 401 CURVE SMOOTH",
"488 401 OFFCURVE",
"476 389 OFFCURVE",
"476 375 CURVE SMOOTH"
);
}
);
width = 594;
}
);
unicode = 25CC;
category = Letter;
},
{
glyphname = u16F00;
lastChange = "2019-09-10 21:03:33 +0000";
layers = (
{
anchors = (
{
name = Anchor2;
position = "{240, 785}";
},
{
name = Anchor4;
position = "{230, 0}";
}
);
layerId = UUID0;
paths = (
{
closed = 1;
nodes = (
"432 0 LINE",
"432 714 LINE",
"342 714 LINE",
"342 80 LINE",
"30 80 LINE",
"30 0 LINE"
);
}
);
width = 522;
}
);
unicode = 16F00;
category = Letter;
},
{
glyphname = u16F02;
lastChange = "2019-09-10 21:03:33 +0000";
layers = (
{
anchors = (
{
name = Anchor2;
position = "{200, 785}";
},
{
name = Anchor4;
position = "{280, 0}";
}
);
layerId = UUID0;
paths = (
{
closed = 1;
nodes = (
"507 0 LINE",
"507 80 LINE",
"432 80 LINE",
"432 714 LINE",
"342 714 LINE",
"342 80 LINE",
"30 80 LINE",
"30 0 LINE"
);
}
);
width = 537;
}
);
unicode = 16F02;
category = Letter;
},
{
glyphname = u16F03;
lastChange = "2019-09-10 21:03:33 +0000";
layers = (
{
anchors = (
{
name = Anchor2;
position = "{260, 785}";
},
{
name = Anchor4;
position = "{280, 0}";
}
);
layerId = UUID0;
paths = (
{
closed = 1;
nodes = (
"506 0 LINE",
"506 714 LINE",
"416 714 LINE",
"416 80 LINE",
"326 80 LINE",
"341 103 OFFCURVE",
"349 130 OFFCURVE",
"349 160 CURVE SMOOTH",
"349 246 OFFCURVE",
"279 316 OFFCURVE",
"189 316 CURVE SMOOTH",
"99 316 OFFCURVE",
"30 246 OFFCURVE",
"30 160 CURVE SMOOTH",
"30 53 OFFCURVE",
"117 0 OFFCURVE",
"210 0 CURVE SMOOTH"
);
},
{
closed = 1;
nodes = (
"144 80 OFFCURVE",
"110 115 OFFCURVE",
"110 160 CURVE SMOOTH",
"110 204 OFFCURVE",
"144 240 OFFCURVE",
"189 240 CURVE SMOOTH",
"233 240 OFFCURVE",
"269 204 OFFCURVE",
"269 160 CURVE SMOOTH",
"269 115 OFFCURVE",
"233 80 OFFCURVE",
"189 80 CURVE SMOOTH"
);
}
);
width = 596;
}
);
unicode = 16F03;
category = Letter;
},
{
glyphname = u16F04;
lastChange = "2019-09-10 21:03:33 +0000";
layers = (
{
anchors = (
{
name = Anchor2;
position = "{200, 785}";
},
{
name = Anchor4;
position = "{220, 0}";
}
);
layerId = UUID0;
paths = (
{
closed = 1;
nodes = (
"187 0 LINE SMOOTH",
"398 0 OFFCURVE",
"520 139 OFFCURVE",
"520 358 CURVE SMOOTH",
"520 580 OFFCURVE",
"401 714 OFFCURVE",
"187 714 CURVE SMOOTH",
"30 714 LINE",
"30 634 LINE",
"192 634 LINE SMOOTH",
"353 634 OFFCURVE",
"425 538 OFFCURVE",
"425 358 CURVE SMOOTH",
"425 181 OFFCURVE",
"346 80 OFFCURVE",
"190 80 CURVE SMOOTH",
"30 80 LINE",
"30 0 LINE"
);
}
);
width = 580;
}
);
unicode = 16F04;
category = Letter;
},
{
glyphname = u16F06;
lastChange = "2019-09-10 21:03:33 +0000";
layers = (
{
anchors = (
{
name = Anchor2;
position = "{420, 560}";
},
{
name = Anchor4;
position = "{410, 0}";
}
);
layerId = UUID0;
paths = (
{
closed = 1;
nodes = (
"140 0 LINE",
"140 156 LINE SMOOTH",
"140 317 OFFCURVE",
"243 405 OFFCURVE",
"423 405 CURVE SMOOTH",
"600 405 OFFCURVE",
"697 310 OFFCURVE",
"697 154 CURVE SMOOTH",
"697 0 LINE",
"787 0 LINE",
"787 157 LINE SMOOTH",
"787 368 OFFCURVE",
"642 490 OFFCURVE",
"423 490 CURVE SMOOTH",
"201 490 OFFCURVE",
"50 371 OFFCURVE",
"50 157 CURVE SMOOTH",
"50 0 LINE"
);
}
);
width = 837;
}
);
unicode = 16F06;
category = Letter;
},
{
glyphname = u16F07;
lastChange = "2019-09-10 21:03:33 +0000";
layers = (
{
anchors = (
{
name = Anchor2;
position = "{280, 785}";
},
{
name = Anchor4;
position = "{280, 0}";
}
);
layerId = UUID0;
paths = (
{
closed = 1;
nodes = (
"180 0 LINE",
"180 634 LINE",
"492 634 LINE",
"492 714 LINE",
"90 714 LINE",
"90 0 LINE"
);
}
);
width = 522;
}
);
unicode = 16F07;
category = Letter;
},
{
glyphname = u16F08;
lastChange = "2019-09-10 21:03:33 +0000";
layers = (
{
anchors = (
{
name = Anchor2;
position = "{300, 785}";
},
{
name = Anchor4;
position = "{310, 0}";
}
);
layerId = UUID0;
paths = (
{
closed = 1;
nodes = (
"355 0 LINE",
"610 714 LINE",
"515 714 LINE",
"355 258 LINE SMOOTH",
"334 198 OFFCURVE",
"319 147 OFFCURVE",
"310 100 CURVE",
"300 147 OFFCURVE",
"286 197 OFFCURVE",
"265 256 CURVE SMOOTH",
"104 714 LINE",
"10 714 LINE",
"265 0 LINE"
);
}
);
width = 620;
}
);
unicode = 16F08;
category = Letter;
},
{
glyphname = u16F0A;
lastChange = "2019-09-10 21:03:33 +0000";
layers = (
{
anchors = (
{
name = Anchor2;
position = "{280, 785}";
},
{
name = Anchor4;
position = "{290, 0}";
}
);
layerId = UUID0;
paths = (
{
closed = 1;
nodes = (
"333 0 LINE",
"333 634 LINE",
"555 634 LINE",
"555 714 LINE",
"20 714 LINE",
"20 634 LINE",
"243 634 LINE",
"243 0 LINE"
);
}
);
width = 575;
}
);
unicode = 16F0A;
category = Letter;
},
{
glyphname = u16F0C;
lastChange = "2019-09-10 21:03:33 +0000";
layers = (
{
anchors = (
{
name = Anchor2;
position = "{280, 785}";
},
{
name = Anchor4;
position = "{290, 0}";
}
);
layerId = UUID0;
paths = (
{
closed = 1;
nodes = (
"333 0 LINE",
"333 634 LINE",
"465 634 LINE",
"465 410 LINE",
"555 410 LINE",
"555 714 LINE",
"20 714 LINE",
"20 634 LINE",
"243 634 LINE",
"243 0 LINE"
);
}
);
width = 605;
}
);
unicode = 16F0C;
category = Letter;
},
{
glyphname = u16F0D;
lastChange = "2019-09-10 21:03:33 +0000";
layers = (
{
anchors = (
{
name = Anchor2;
position = "{280, 785}";
},
{
name = Anchor4;
position = "{290, 0}";
}
);
layerId = UUID0;
paths = (
{
closed = 1;
nodes = (
"425 0 LINE",
"425 80 LINE",
"333 80 LINE",
"333 634 LINE",
"555 634 LINE",
"555 714 LINE",
"20 714 LINE",
"20 634 LINE",
"243 634 LINE",
"243 80 LINE",
"150 80 LINE",
"150 0 LINE"
);
}
);
width = 575;
}
);
unicode = 16F0D;
category = Letter;
},
{
glyphname = u16F0E;
lastChange = "2019-09-10 21:03:33 +0000";
layers = (
{
anchors = (
{
name = Anchor2;
position = "{280, 785}";
},
{
name = Anchor4;
position = "{290, 0}";
}
);
layerId = UUID0;
paths = (
{
closed = 1;
nodes = (
"535 0 LINE",
"535 80 LINE",
"333 80 LINE",
"333 634 LINE",
"555 634 LINE",
"555 714 LINE",
"20 714 LINE",
"20 634 LINE",
"243 634 LINE",
"243 0 LINE"
);
}
);
width = 575;
}
);
unicode = 16F0E;
category = Letter;
},
{
glyphname = u16F10;
lastChange = "2019-09-10 21:03:33 +0000";
layers = (
{
anchors = (
{
name = Anchor2;
position = "{320, 785}";
},
{
name = Anchor4;
position = "{350, 0}";
}
);
layerId = UUID0;
paths = (
{
closed = 1;
nodes = (
"550 0 LINE",
"550 80 LINE",
"390 80 LINE SMOOTH",
"234 80 OFFCURVE",
"155 181 OFFCURVE",
"155 358 CURVE SMOOTH",
"155 538 OFFCURVE",
"227 634 OFFCURVE",
"388 634 CURVE SMOOTH",
"550 634 LINE",
"550 714 LINE",
"393 714 LINE SMOOTH",
"179 714 OFFCURVE",
"60 580 OFFCURVE",
"60 358 CURVE SMOOTH",
"60 139 OFFCURVE",
"182 0 OFFCURVE",
"393 0 CURVE SMOOTH"
);
}
);
width = 580;
}
);
unicode = 16F10;
category = Letter;
},
{
glyphname = u16F12;
lastChange = "2019-09-10 21:03:33 +0000";
layers = (
{
anchors = (
{
name = Anchor2;
position = "{300, 785}";
},
{
name = Anchor4;
position = "{320, 0}";
}
);
layerId = UUID0;
paths = (
{
closed = 1;
nodes = (
"560 0 LINE",
"560 80 LINE",
"400 80 LINE SMOOTH",
"244 80 OFFCURVE",
"165 181 OFFCURVE",
"165 358 CURVE SMOOTH",
"165 538 OFFCURVE",
"237 634 OFFCURVE",
"398 634 CURVE SMOOTH",
"560 634 LINE",
"560 714 LINE",
"30 714 LINE",
"30 634 LINE",
"172 634 LINE",
"105 572 OFFCURVE",
"70 479 OFFCURVE",
"70 358 CURVE SMOOTH",
"70 139 OFFCURVE",
"192 0 OFFCURVE",
"403 0 CURVE SMOOTH"
);
}
);
width = 590;
}
);
unicode = 16F12;
category = Letter;
},
{
glyphname = u16F13;
lastChange = "2019-09-10 21:03:33 +0000";
layers = (
{
anchors = (
{
name = Anchor2;
position = "{410, 560}";
},
{
name = Anchor4;
position = "{420, 0}";
}
);
layerId = UUID0;
paths = (
{
closed = 1;
nodes = (
"642 -10 OFFCURVE",
"787 112 OFFCURVE",
"787 323 CURVE SMOOTH",
"787 480 LINE",
"697 480 LINE",
"697 320 LINE SMOOTH",
"697 164 OFFCURVE",
"600 75 OFFCURVE",
"423 75 CURVE SMOOTH",
"243 75 OFFCURVE",
"140 157 OFFCURVE",
"140 318 CURVE SMOOTH",
"140 480 LINE",
"50 480 LINE",
"50 323 LINE SMOOTH",
"50 109 OFFCURVE",
"201 -10 OFFCURVE",
"423 -10 CURVE SMOOTH"
);
}
);
width = 837;
}
);
unicode = 16F13;
category = Letter;
},
{
glyphname = u16F14;
lastChange = "2019-09-10 21:03:33 +0000";
layers = (
{
anchors = (
{
name = Anchor2;
position = "{300, 785}";
},
{
name = Anchor4;
position = "{300, 0}";
}
);
layerId = UUID0;
paths = (
{
closed = 1;
nodes = (
"550 0 LINE",
"550 80 LINE",
"390 80 LINE SMOOTH",
"234 80 OFFCURVE",
"155 181 OFFCURVE",
"155 358 CURVE SMOOTH",
"155 491 OFFCURVE",
"194 583 OFFCURVE",
"279 620 CURVE",
"271 601 OFFCURVE",
"267 580 OFFCURVE",
"267 559 CURVE SMOOTH",
"267 473 OFFCURVE",
"337 403 OFFCURVE",
"427 403 CURVE SMOOTH",
"517 403 OFFCURVE",
"586 473 OFFCURVE",
"586 559 CURVE SMOOTH",
"586 645 OFFCURVE",
"522 719 OFFCURVE",
"400 719 CURVE SMOOTH",
"190 719 OFFCURVE",
"60 580 OFFCURVE",
"60 358 CURVE SMOOTH",
"60 139 OFFCURVE",
"182 0 OFFCURVE",
"393 0 CURVE SMOOTH"
);
},
{
closed = 1;
nodes = (
"383 479 OFFCURVE",
"347 515 OFFCURVE",
"347 559 CURVE SMOOTH",
"347 604 OFFCURVE",
"383 639 OFFCURVE",
"427 639 CURVE SMOOTH",
"472 639 OFFCURVE",
"506 604 OFFCURVE",
"506 559 CURVE SMOOTH",
"506 515 OFFCURVE",
"472 479 OFFCURVE",
"427 479 CURVE SMOOTH"
);
}
);
width = 616;
}
);
unicode = 16F14;
category = Letter;
},
{
glyphname = u16F16;
lastChange = "2019-09-10 21:03:33 +0000";
layers = (
{
anchors = (
{
name = Anchor2;
position = "{300, 785}";
},
{
name = Anchor4;
position = "{280, 0}";
}
);
layerId = UUID0;
paths = (
{
closed = 1;
nodes = (
"492 0 LINE",
"492 80 LINE",
"180 80 LINE",
"180 714 LINE",
"90 714 LINE",
"90 0 LINE"
);
}
);
width = 522;
}
);
unicode = 16F16;
category = Letter;
},
{
glyphname = u16F18;
lastChange = "2019-09-10 21:03:33 +0000";
layers = (
{
anchors = (
{
name = Anchor2;
position = "{300, 785}";
},
{
name = Anchor4;
position = "{280, 0}";
}
);
layerId = UUID0;
paths = (
{
closed = 1;
nodes = (
"386 0 LINE SMOOTH",
"479 0 OFFCURVE",
"566 53 OFFCURVE",
"566 160 CURVE SMOOTH",
"566 246 OFFCURVE",
"497 316 OFFCURVE",
"407 316 CURVE SMOOTH",
"317 316 OFFCURVE",
"247 246 OFFCURVE",
"247 160 CURVE SMOOTH",
"247 130 OFFCURVE",
"255 103 OFFCURVE",
"270 80 CURVE",
"180 80 LINE",
"180 714 LINE",
"90 714 LINE",
"90 0 LINE"
);
},
{
closed = 1;
nodes = (
"363 80 OFFCURVE",
"327 115 OFFCURVE",
"327 160 CURVE SMOOTH",
"327 204 OFFCURVE",
"363 240 OFFCURVE",
"407 240 CURVE SMOOTH",
"452 240 OFFCURVE",
"486 204 OFFCURVE",
"486 160 CURVE SMOOTH",
"486 115 OFFCURVE",
"452 80 OFFCURVE",
"407 80 CURVE SMOOTH"
);
}
);
width = 596;
}
);
unicode = 16F18;
category = Letter;
},
{
glyphname = u16F1A;
lastChange = "2019-09-10 21:03:33 +0000";
layers = (
{
anchors = (
{
name = Anchor2;
position = "{310, 785}";
},
{
name = Anchor4;
position = "{310, 0}";
}
);
layerId = UUID0;
paths = (
{
closed = 1;
nodes = (
"610 0 LINE",
"355 714 LINE",
"265 714 LINE",
"10 0 LINE"
);
},
{
closed = 1;
nodes = (
"265 458 LINE SMOOTH",
"286 517 OFFCURVE",
"300 567 OFFCURVE",
"310 614 CURVE",
"319 567 OFFCURVE",
"334 516 OFFCURVE",
"355 456 CURVE SMOOTH",
"487 80 LINE",
"132 80 LINE"
);
}
);
width = 620;
}
);
unicode = 16F1A;
category = Letter;
},
{
glyphname = u16F1C;
lastChange = "2019-09-10 21:03:33 +0000";
layers = (
{
anchors = (
{
name = Anchor2;
position = "{310, 785}";
},
{
name = Anchor4;
position = "{310, 0}";
}
);
layerId = UUID0;
paths = (
{
closed = 1;
nodes = (
"610 0 LINE",
"355 714 LINE",
"265 714 LINE",
"10 0 LINE"
);
},
{
closed = 1;
nodes = (
"179 213 LINE",
"440 213 LINE",
"487 80 LINE",
"132 80 LINE"
);
},
{
closed = 1;
nodes = (
"265 458 LINE SMOOTH",
"286 517 OFFCURVE",
"300 567 OFFCURVE",
"310 614 CURVE",
"319 567 OFFCURVE",
"334 516 OFFCURVE",
"355 456 CURVE SMOOTH",
"412 292 LINE",
"206 292 LINE"
);
}
);
width = 620;
}
);
unicode = 16F1C;
category = Letter;
},
{
glyphname = u16F1E;
lastChange = "2019-09-10 21:03:33 +0000";
layers = (
{
anchors = (
{
name = Anchor2;
position = "{220, 785}";
},
{
name = Anchor4;
position = "{220, 0}";
}
);
layerId = UUID0;
paths = (
{
closed = 1;
nodes = (
"432 0 LINE",
"432 714 LINE",
"30 714 LINE",
"30 634 LINE",
"342 634 LINE",
"342 80 LINE",
"30 80 LINE",
"30 0 LINE"
);
}
);
width = 522;
}
);
unicode = 16F1E;
category = Letter;
},
{
glyphname = u16F20;
lastChange = "2019-09-10 21:03:33 +0000";
layers = (
{
anchors = (
{
name = Anchor2;
position = "{260, 785}";
},
{
name = Anchor4;
position = "{220, 0}";
}
);
layerId = UUID0;
paths = (
{
closed = 1;
nodes = (
"432 0 LINE",
"432 634 LINE",
"532 634 LINE",
"532 714 LINE",
"30 714 LINE",
"30 634 LINE",
"342 634 LINE",
"342 80 LINE",
"30 80 LINE",
"30 0 LINE"
);
}
);
width = 562;
}
);
unicode = 16F20;
category = Letter;
},
{
glyphname = u16F21;
lastChange = "2019-09-10 21:03:33 +0000";
layers = (
{
anchors = (
{
name = Anchor2;
position = "{280, 785}";
},
{
name = Anchor4;
position = "{220, 0}";
}
);
layerId = UUID0;
paths = (
{
closed = 1;
nodes = (
"333 0 LINE",
"333 634 LINE",
"555 634 LINE",
"555 714 LINE",
"20 714 LINE",
"20 634 LINE",
"243 634 LINE",
"243 80 LINE",
"40 80 LINE",
"40 0 LINE"
);
}
);
width = 575;
}
);
unicode = 16F21;
category = Letter;
},
{
glyphname = u16F23;
lastChange = "2019-09-10 21:03:33 +0000";
layers = (
{
anchors = (
{
name = Anchor2;
position = "{310, 785}";
},
{
name = Anchor4;
position = "{300, 0}";
}
);
layerId = UUID0;
paths = (
{
closed = 1;
nodes = (
"522 -5 OFFCURVE",
"586 69 OFFCURVE",
"586 155 CURVE SMOOTH",
"586 241 OFFCURVE",
"517 311 OFFCURVE",
"427 311 CURVE SMOOTH",
"337 311 OFFCURVE",
"267 241 OFFCURVE",
"267 155 CURVE SMOOTH",
"267 134 OFFCURVE",
"271 113 OFFCURVE",
"279 94 CURVE",
"194 131 OFFCURVE",
"155 223 OFFCURVE",
"155 356 CURVE SMOOTH",
"155 533 OFFCURVE",
"234 634 OFFCURVE",
"390 634 CURVE SMOOTH",
"550 634 LINE",
"550 714 LINE",
"393 714 LINE SMOOTH",
"182 714 OFFCURVE",
"60 575 OFFCURVE",
"60 356 CURVE SMOOTH",
"60 134 OFFCURVE",
"190 -5 OFFCURVE",
"400 -5 CURVE SMOOTH"
);
},
{
closed = 1;
nodes = (
"383 75 OFFCURVE",
"347 110 OFFCURVE",
"347 155 CURVE SMOOTH",
"347 199 OFFCURVE",
"383 235 OFFCURVE",
"427 235 CURVE SMOOTH",
"472 235 OFFCURVE",
"506 199 OFFCURVE",
"506 155 CURVE SMOOTH",
"506 110 OFFCURVE",
"472 75 OFFCURVE",
"427 75 CURVE SMOOTH"
);
}
);
width = 616;
}
);
unicode = 16F23;
category = Letter;
},
{
glyphname = u16F25;
lastChange = "2019-09-10 21:03:33 +0000";
layers = (
{
anchors = (
{
name = Anchor2;
position = "{400, 580}";
},
{
name = Anchor4;
position = "{420, 0}";
}
);
layerId = UUID0;
paths = (
{
closed = 1;
nodes = (
"642 -10 OFFCURVE",
"787 96 OFFCURVE",
"787 360 CURVE SMOOTH",
"787 487 OFFCURVE",
"707 551 OFFCURVE",
"617 551 CURVE SMOOTH",
"527 551 OFFCURVE",
"458 477 OFFCURVE",
"458 391 CURVE SMOOTH",
"458 305 OFFCURVE",
"527 235 OFFCURVE",
"617 235 CURVE SMOOTH",
"642 235 OFFCURVE",
"667 241 OFFCURVE",
"689 251 CURVE",
"664 136 OFFCURVE",
"572 75 OFFCURVE",
"423 75 CURVE SMOOTH",
"243 75 OFFCURVE",
"140 157 OFFCURVE",
"140 318 CURVE SMOOTH",
"140 480 LINE",
"50 480 LINE",
"50 323 LINE SMOOTH",
"50 109 OFFCURVE",
"201 -10 OFFCURVE",
"423 -10 CURVE SMOOTH"
);
},
{
closed = 1;
nodes = (
"572 311 OFFCURVE",
"538 347 OFFCURVE",
"538 391 CURVE SMOOTH",
"538 436 OFFCURVE",
"572 471 OFFCURVE",
"617 471 CURVE SMOOTH",
"661 471 OFFCURVE",
"697 436 OFFCURVE",
"697 391 CURVE SMOOTH",
"697 347 OFFCURVE",
"661 311 OFFCURVE",
"617 311 CURVE SMOOTH"
);
}
);
width = 837;
}
);
unicode = 16F25;
category = Letter;
},
{
glyphname = u16F26;
lastChange = "2019-09-10 21:03:33 +0000";
layers = (
{
anchors = (
{
name = Anchor2;
position = "{220, 785}";
},
{
name = Anchor4;
position = "{220, 0}";
}
);
layerId = UUID0;
paths = (
{
closed = 1;
nodes = (
"432 0 LINE",
"432 714 LINE",
"30 714 LINE",
"30 634 LINE",
"342 634 LINE",
"342 0 LINE"
);
}
);
width = 522;
}
);
unicode = 16F26;
category = Letter;
},
{
glyphname = u16F27;
lastChange = "2019-09-10 21:03:33 +0000";
layers = (
{
anchors = (
{
name = Anchor2;
position = "{270, 785}";
},
{
name = Anchor4;
position = "{260, 0}";
}
);
layerId = UUID0;
paths = (
{
closed = 1;
nodes = (
"506 0 LINE",
"506 714 LINE",
"210 714 LINE SMOOTH",
"117 714 OFFCURVE",
"30 661 OFFCURVE",
"30 554 CURVE SMOOTH",
"30 468 OFFCURVE",
"99 398 OFFCURVE",
"189 398 CURVE SMOOTH",
"279 398 OFFCURVE",
"349 468 OFFCURVE",
"349 554 CURVE SMOOTH",
"349 584 OFFCURVE",
"341 611 OFFCURVE",
"326 634 CURVE",
"416 634 LINE",
"416 0 LINE"
);
},
{
closed = 1;
nodes = (
"144 474 OFFCURVE",
"110 510 OFFCURVE",
"110 554 CURVE SMOOTH",
"110 599 OFFCURVE",
"144 634 OFFCURVE",
"189 634 CURVE SMOOTH",
"233 634 OFFCURVE",
"269 599 OFFCURVE",
"269 554 CURVE SMOOTH",
"269 510 OFFCURVE",
"233 474 OFFCURVE",
"189 474 CURVE SMOOTH"
);
}
);
width = 596;
}
);
unicode = 16F27;
category = Letter;
},
{
glyphname = u16F28;
lastChange = "2019-09-10 21:03:33 +0000";
layers = (
{
anchors = (
{
name = Anchor2;
position = "{150, 785}";
},
{
name = Anchor4;
position = "{140, 0}";
}
);
layerId = UUID0;
paths = (
{
closed = 1;
nodes = (
"190 0 LINE",
"190 714 LINE",
"100 714 LINE",
"100 0 LINE"
);
}
);
width = 290;
}
);
unicode = 16F28;
category = Letter;
},
{
glyphname = u16F2A;
lastChange = "2019-09-10 21:03:33 +0000";
layers = (
{
anchors = (
{
name = Anchor2;
position = "{280, 785}";
},
{
name = Anchor4;
position = "{280, 0}";
}
);
layerId = UUID0;
paths = (
{
closed = 1;
nodes = (
"555 0 LINE",
"555 80 LINE",
"333 80 LINE",
"333 714 LINE",
"40 714 LINE",
"40 634 LINE",
"243 634 LINE",
"243 80 LINE",
"20 80 LINE",
"20 0 LINE"
);
}
);
width = 575;
}
);
unicode = 16F2A;
category = Letter;
},
{
glyphname = u16F2C;
lastChange = "2019-09-10 21:03:33 +0000";
layers = (
{
anchors = (
{
name = Anchor2;
position = "{280, 785}";
},
{
name = Anchor4;
position = "{280, 0}";
}
);
layerId = UUID0;
paths = (
{
closed = 1;
nodes = (
"428 -10 OFFCURVE",
"523 30 OFFCURVE",
"579 127 CURVE",
"508 172 LINE",
"473 110 OFFCURVE",
"398 75 OFFCURVE",
"311 75 CURVE SMOOTH",
"227 75 OFFCURVE",
"150 112 OFFCURVE",
"150 187 CURVE SMOOTH",
"150 303 OFFCURVE",
"247 326 OFFCURVE",
"357 326 CURVE SMOOTH",
"426 326 LINE",
"426 405 LINE",
"356 405 LINE SMOOTH",
"239 405 OFFCURVE",
"177 455 OFFCURVE",
"177 536 CURVE SMOOTH",
"177 605 OFFCURVE",
"240 640 OFFCURVE",
"320 640 CURVE SMOOTH",
"392 640 OFFCURVE",
"458 622 OFFCURVE",
"506 557 CURVE",
"574 609 LINE",
"515 696 OFFCURVE",
"429 725 OFFCURVE",
"322 725 CURVE SMOOTH",
"173 725 OFFCURVE",
"82 639 OFFCURVE",
"82 537 CURVE SMOOTH",
"82 441 OFFCURVE",
"135 389 OFFCURVE",
"225 371 CURVE",
"225 367 LINE",
"111 353 OFFCURVE",
"60 281 OFFCURVE",
"60 183 CURVE SMOOTH",
"60 83 OFFCURVE",
"139 -10 OFFCURVE",
"309 -10 CURVE SMOOTH"
);
}
);
width = 609;
}
);
unicode = 16F2C;
category = Letter;
},
{
glyphname = u16F2E;
lastChange = "2019-09-10 21:03:33 +0000";
layers = (
{
anchors = (
{
name = Anchor2;
position = "{380, 785}";
},
{
name = Anchor4;
position = "{380, 0}";
}
);
layerId = UUID0;
paths = (
{
closed = 1;
nodes = (
"492 0 LINE",
"492 80 LINE",
"180 80 LINE",
"180 634 LINE",
"492 634 LINE",
"492 714 LINE",
"90 714 LINE",
"90 0 LINE"
);
}
);
width = 522;
}
);
unicode = 16F2E;
category = Letter;
},
{
glyphname = u16F30;
lastChange = "2019-09-10 21:03:33 +0000";
layers = (
{
anchors = (
{
name = Anchor2;
position = "{360, 785}";
},
{
name = Anchor4;
position = "{360, 0}";
}
);
layerId = UUID0;
paths = (
{
closed = 1;
nodes = (
"532 0 LINE",
"532 80 LINE",
"220 80 LINE",
"220 634 LINE",
"532 634 LINE",
"532 714 LINE",
"30 714 LINE",
"30 634 LINE",
"130 634 LINE",
"130 0 LINE"
);
}
);
width = 562;
}
);
unicode = 16F30;
category = Letter;
},
{
glyphname = u16F31;
lastChange = "2019-09-10 21:03:33 +0000";
layers = (
{
anchors = (
{
name = Anchor2;
position = "{280, 785}";
},
{
name = Anchor4;
position = "{280, 0}";
}
);
layerId = UUID0;
paths = (
{
closed = 1;
nodes = (
"492 0 LINE",
"492 80 LINE",
"180 80 LINE",
"180 634 LINE",
"402 634 LINE",
"402 410 LINE",
"492 410 LINE",
"492 714 LINE",
"90 714 LINE",
"90 0 LINE"
);
}
);
width = 542;
}
);
unicode = 16F31;
category = Letter;
},
{
glyphname = u16F32;
lastChange = "2019-09-10 21:03:33 +0000";
layers = (
{
anchors = (
{
name = Anchor2;
position = "{280, 785}";
},
{
name = Anchor4;
position = "{320, 0}";
}
);
layerId = UUID0;
paths = (
{
closed = 1;
nodes = (
"555 0 LINE",
"555 80 LINE",
"332 80 LINE",
"332 634 LINE",
"535 634 LINE",
"535 714 LINE",
"242 714 LINE",
"242 80 LINE",
"20 80 LINE",
"20 0 LINE"
);
}
);
width = 575;
}
);
unicode = 16F32;
category = Letter;
},
{
glyphname = u16F33;
lastChange = "2019-09-10 21:03:33 +0000";
layers = (
{
anchors = (
{
name = Anchor2;
position = "{200, 785}";
},
{
name = Anchor4;
position = "{220, 0}";
}
);
layerId = UUID0;
paths = (
{
closed = 1;
nodes = (
"319 -10 OFFCURVE",
"393 53 OFFCURVE",
"393 191 CURVE SMOOTH",
"393 714 LINE",
"303 714 LINE",
"303 184 LINE SMOOTH",
"303 93 OFFCURVE",
"260 75 OFFCURVE",
"210 75 CURVE SMOOTH",
"158 75 OFFCURVE",
"128 106 OFFCURVE",
"111 156 CURVE",
"30 118 LINE",
"55 43 OFFCURVE",
"109 -10 OFFCURVE",
"210 -10 CURVE SMOOTH"
);
}
);
width = 483;
}
);
unicode = 16F33;
category = Letter;
},
{
glyphname = u16F34;
lastChange = "2019-09-10 21:03:33 +0000";
layers = (
{
anchors = (
{
name = Anchor2;
position = "{230, 785}";
},
{
name = Anchor4;
position = "{220, 0}";
}
);
layerId = UUID0;
paths = (
{
closed = 1;
nodes = (
"255 0 LINE",
"350 156 OFFCURVE",
"442 352 OFFCURVE",
"442 714 CURVE",
"30 714 LINE",
"30 634 LINE",
"358 634 LINE",
"358 351 OFFCURVE",
"260 162 OFFCURVE",
"165 0 CURVE"
);
}
);
width = 496;
}
);
unicode = 16F34;
category = Letter;
},
{
glyphname = u16F35;
lastChange = "2019-09-10 21:03:33 +0000";
layers = (
{
anchors = (
{
name = Anchor2;
position = "{260, 785}";
},
{
name = Anchor4;
position = "{320, 0}";
}
);
layerId = UUID0;
paths = (
{
closed = 1;
nodes = (
"187 0 LINE",
"187 295 LINE",
"329 295 LINE",
"502 0 LINE",
"607 0 LINE",
"411 320 LINE",
"483 345 OFFCURVE",
"554 397 OFFCURVE",
"554 511 CURVE SMOOTH",
"554 647 OFFCURVE",
"471 714 OFFCURVE",
"294 714 CURVE SMOOTH",
"97 714 LINE",
"97 0 LINE"
);
},
{
closed = 1;
nodes = (
"187 634 LINE",
"289 634 LINE SMOOTH",
"406 634 OFFCURVE",
"459 600 OFFCURVE",
"459 507 CURVE SMOOTH",
"459 417 OFFCURVE",
"410 375 OFFCURVE",
"294 375 CURVE SMOOTH",
"187 375 LINE"
);
}
);
width = 622;
}
);
unicode = 16F35;
category = Letter;
},
{
glyphname = u16F37;
lastChange = "2019-09-10 21:03:33 +0000";
layers = (
{
anchors = (
{
name = Anchor2;
position = "{230, 785}";
},
{
name = Anchor4;
position = "{230, 0}";
}
);
layerId = UUID0;
paths = (
{
closed = 1;
nodes = (
"270 0 LINE",
"270 411 LINE",
"420 411 LINE",
"420 491 LINE",
"270 491 LINE",
"270 714 LINE",
"180 714 LINE",
"180 491 LINE",
"30 491 LINE",
"30 411 LINE",
"180 411 LINE",
"180 0 LINE"
);
}
);
width = 450;
}
);
unicode = 16F37;
category = Letter;
},
{
glyphname = u16F39;
lastChange = "2019-09-10 21:03:33 +0000";
layers = (
{
anchors = (
{
name = Anchor2;
position = "{230, 785}";
},
{
name = Anchor4;
position = "{220, 0}";
}
);
layerId = UUID0;
paths = (
{
closed = 1;
nodes = (
"372 0 LINE",
"372 80 LINE",
"270 80 LINE",
"270 411 LINE",
"420 411 LINE",
"420 491 LINE",
"270 491 LINE",
"270 714 LINE",
"180 714 LINE",
"180 491 LINE",
"30 491 LINE",
"30 411 LINE",
"180 411 LINE",
"180 0 LINE"
);
}
);
width = 450;
}
);
unicode = 16F39;
category = Letter;
},
{
glyphname = u16F3A;
lastChange = "2019-09-10 21:03:33 +0000";
layers = (
{
anchors = (
{
name = Anchor2;
position = "{300, 785}";
},
{
name = Anchor4;
position = "{300, 0}";
}
);
layerId = UUID0;
paths = (
{
closed = 1;
nodes = (
"300 -10 LINE SMOOTH",
"431 -10 OFFCURVE",
"533 62 OFFCURVE",
"533 183 CURVE SMOOTH",
"533 295 OFFCURVE",
"460 350 OFFCURVE",
"334 397 CURVE SMOOTH",
"218 440 OFFCURVE",
"168 464 OFFCURVE",
"168 536 CURVE SMOOTH",
"168 598 OFFCURVE",
"219 641 OFFCURVE",
"301 641 CURVE SMOOTH",
"364 641 OFFCURVE",
"414 619 OFFCURVE",
"458 570 CURVE",
"528 630 LINE",
"465 704 OFFCURVE",
"389 725 OFFCURVE",
"303 725 CURVE SMOOTH",
"168 725 OFFCURVE",
"73 649 OFFCURVE",
"73 536 CURVE SMOOTH",
"73 425 OFFCURVE",
"149 374 OFFCURVE",
"271 330 CURVE SMOOTH",
"400 283 OFFCURVE",
"438 253 OFFCURVE",
"438 183 CURVE SMOOTH",
"438 117 OFFCURVE",
"386 75 OFFCURVE",
"300 75 CURVE SMOOTH",
"223 75 OFFCURVE",
"168 106 OFFCURVE",
"116 180 CURVE",
"45 122 LINE",
"116 19 OFFCURVE",
"202 -10 OFFCURVE",
"298 -10 CURVE SMOOTH"
);
}
);
width = 593;
}
);
unicode = 16F3A;
category = Letter;
},
{
glyphname = u16F3B;
lastChange = "2019-09-10 21:03:33 +0000";
layers = (
{
anchors = (
{
name = Anchor2;
position = "{280, 785}";
},
{
name = Anchor4;
position = "{300, 0}";
}
);
layerId = UUID0;
paths = (
{
closed = 1;
nodes = (
"463 -10 OFFCURVE",
"543 93 OFFCURVE",
"543 201 CURVE SMOOTH",
"543 333 OFFCURVE",
"445 391 OFFCURVE",
"311 428 CURVE",
"528 646 LINE",
"528 714 LINE",
"73 714 LINE",
"73 634 LINE",
"407 634 LINE",
"165 390 LINE",
"165 382 LINE",
"341 353 OFFCURVE",
"453 290 OFFCURVE",
"453 205 CURVE SMOOTH",
"453 122 OFFCURVE",
"375 75 OFFCURVE",
"295 75 CURVE SMOOTH",
"218 75 OFFCURVE",
"163 106 OFFCURVE",
"111 180 CURVE",
"40 122 LINE",
"111 19 OFFCURVE",
"197 -10 OFFCURVE",
"293 -10 CURVE SMOOTH"
);
}
);
width = 603;
}
);
unicode = 16F3B;
category = Letter;
},
{
glyphname = u16F3D;
lastChange = "2019-09-10 21:03:33 +0000";
layers = (
{
anchors = (
{
name = Anchor2;
position = "{310, 785}";
},
{
name = Anchor4;
position = "{310, 0}";
}
);
layerId = UUID0;
paths = (
{
closed = 1;
nodes = (
"104 0 LINE",
"265 458 LINE SMOOTH",
"286 517 OFFCURVE",
"300 567 OFFCURVE",
"310 614 CURVE",
"319 567 OFFCURVE",
"334 516 OFFCURVE",
"355 456 CURVE SMOOTH",
"515 0 LINE",
"610 0 LINE",
"355 714 LINE",
"265 714 LINE",
"10 0 LINE"
);
}
);
width = 620;
}
);
unicode = 16F3D;
category = Letter;
},
{
glyphname = u16F3F;
lastChange = "2019-09-10 21:03:33 +0000";
layers = (
{
anchors = (
{
name = Anchor2;
position = "{360, 700}";
},
{
name = Anchor4;
position = "{350, 0}";
}
);
layerId = UUID0;
paths = (
{
closed = 1;
nodes = (
"744 292 LINE",
"744 382 LINE",
"30 637 LINE",
"30 543 LINE",
"488 382 LINE SMOOTH",
"547 361 OFFCURVE",
"597 347 OFFCURVE",
"644 337 CURVE",
"597 328 OFFCURVE",
"546 313 OFFCURVE",
"486 292 CURVE SMOOTH",
"30 132 LINE",
"30 37 LINE"
);
}
);
width = 774;
}
);
unicode = 16F3F;
category = Letter;
},
{
glyphname = u16F40;
lastChange = "2019-09-10 21:03:33 +0000";
layers = (
{
anchors = (
{
name = Anchor2;
position = "{330, 785}";
},
{
name = Anchor4;
position = "{320, 0}";
}
);
layerId = UUID0;
paths = (
{
closed = 1;
nodes = (
"101 0 LINE",
"186 221 LINE",
"469 221 LINE",
"555 0 LINE",
"648 0 LINE",
"370 717 LINE",
"289 717 LINE",
"10 0 LINE"
);
},
{
closed = 1;
nodes = (
"297 517 LINE SMOOTH",
"306 540 OFFCURVE",
"318 583 OFFCURVE",
"328 624 CURVE",
"335 599 OFFCURVE",
"356 533 OFFCURVE",
"362 517 CURVE SMOOTH",
"442 301 LINE",
"216 301 LINE"
);
}
);
width = 658;
}
);
unicode = 16F40;
category = Letter;
},
{
glyphname = u16F42;
lastChange = "2019-09-10 21:03:33 +0000";
layers = (
{
anchors = (
{
name = Anchor2;
position = "{360, 785}";
},
{
name = Anchor4;
position = "{360, 0}";
}
);
layerId = UUID0;
paths = (
{
closed = 1;
nodes = (
"551 -10 OFFCURVE",
"640 104 OFFCURVE",
"640 252 CURVE SMOOTH",
"640 714 LINE",
"550 714 LINE",
"550 252 LINE SMOOTH",
"550 144 OFFCURVE",
"496 75 OFFCURVE",
"367 75 CURVE SMOOTH",
"242 75 OFFCURVE",
"180 135 OFFCURVE",
"180 251 CURVE SMOOTH",
"180 714 LINE",
"90 714 LINE",
"90 254 LINE SMOOTH",
"90 95 OFFCURVE",
"184 -10 OFFCURVE",
"362 -10 CURVE SMOOTH"
);
}
);
width = 730;
}
);
unicode = 16F42;
category = Letter;
},
{
glyphname = u16F43;
lastChange = "2019-09-10 21:03:33 +0000";
layers = (
{
anchors = (
{
name = Anchor2;
position = "{300, 785}";
},
{
name = Anchor4;
position = "{300, 0}";
}
);
layerId = UUID0;
paths = (
{
closed = 1;
nodes = (
"338 0 LINE",
"338 277 LINE",
"576 714 LINE",
"479 714 LINE",
"293 363 LINE",
"108 714 LINE",
"10 714 LINE",
"248 273 LINE",
"248 0 LINE"
);
}
);
width = 586;
}
);
unicode = 16F43;
category = Letter;
},
{
glyphname = u16F50;
lastChange = "2019-09-10 21:03:33 +0000";
layers = (
{
layerId = UUID0;
paths = (
{
closed = 1;
nodes = (
"390 0 LINE",
"390 80 LINE",
"370 80 LINE SMOOTH",
"214 80 OFFCURVE",
"135 191 OFFCURVE",
"135 358 CURVE SMOOTH",
"135 538 OFFCURVE",
"207 634 OFFCURVE",
"368 634 CURVE SMOOTH",
"390 634 LINE",
"390 714 LINE",
"373 714 LINE SMOOTH",
"159 714 OFFCURVE",
"40 570 OFFCURVE",
"40 358 CURVE SMOOTH",
"40 139 OFFCURVE",
"162 0 OFFCURVE",
"373 0 CURVE SMOOTH"
);
}
);
width = 420;
}
);
unicode = 16F50;
category = Letter;
},
{
glyphname = u16F51;
lastChange = "2019-09-10 21:03:33 +0000";
layers = (
{
layerId = UUID0;
paths = (
{
closed = 1;
nodes = (
"81 514 LINE",
"123 655 LINE",
"123 770 LINE",
"20 770 LINE",
"20 655 LINE",
"66 655 LINE",
"20 514 LINE"
);
}
);
width = 173;
}
);
unicode = 16F51;
category = Letter;
},
{
glyphname = u16F52;
lastChange = "2019-09-10 21:03:33 +0000";
layers = (
{
layerId = UUID0;
paths = (
{
closed = 1;
nodes = (
"123 514 LINE",
"123 629 LINE",
"77 629 LINE",
"123 770 LINE",
"62 770 LINE",
"20 629 LINE",
"20 514 LINE"
);
}
);
width = 173;
}
);
unicode = 16F52;
category = Letter;
},
{
glyphname = u16F53;
lastChange = "2019-09-10 21:03:33 +0000";
layers = (
{
layerId = UUID0;
paths = (
{
closed = 1;
nodes = (
"81 0 LINE",
"123 141 LINE",
"123 256 LINE",
"20 256 LINE",
"20 141 LINE",
"66 141 LINE",
"20 0 LINE"
);
}
);
width = 173;
}
);
unicode = 16F53;
category = Letter;
},
{
glyphname = u16F54;
lastChange = "2019-09-10 21:03:33 +0000";
layers = (
{
layerId = UUID0;
paths = (
{
closed = 1;
nodes = (
"264 0 LINE",
"264 60 LINE",
"0 60 LINE",
"0 0 LINE"
);
}
);
width = 314;
}
);
unicode = 16F54;
category = Letter;
},
{
glyphname = u16F55;
lastChange = "2019-09-10 21:03:33 +0000";
layers = (
{
layerId = UUID0;
paths = (
{
closed = 1;
nodes = (
"355 -10 OFFCURVE",
"411 22 OFFCURVE",
"411 131 CURVE SMOOTH",
"411 258 LINE",
"347 258 LINE",
"347 127 LINE SMOOTH",
"347 78 OFFCURVE",
"322 54 OFFCURVE",
"283 54 CURVE SMOOTH",
"240 54 OFFCURVE",
"218 78 OFFCURVE",
"218 126 CURVE SMOOTH",
"218 258 LINE",
"0 258 LINE",
"0 198 LINE",
"154 198 LINE",
"154 131 LINE SMOOTH",
"154 17 OFFCURVE",
"215 -10 OFFCURVE",
"283 -10 CURVE SMOOTH"
);
}
);
width = 461;
}
);
unicode = 16F55;
category = Letter;
},
{
glyphname = u16F56;
lastChange = "2019-09-10 21:03:33 +0000";
layers = (
{
layerId = UUID0;
paths = (
{
closed = 1;
nodes = (
"201 -10 OFFCURVE",
"257 22 OFFCURVE",
"257 131 CURVE SMOOTH",
"257 258 LINE",
"193 258 LINE",
"193 191 LINE",
"64 191 LINE",
"64 258 LINE",
"0 258 LINE",
"0 131 LINE SMOOTH",
"0 17 OFFCURVE",
"61 -10 OFFCURVE",
"129 -10 CURVE SMOOTH"
);
},
{
closed = 1;
nodes = (
"86 54 OFFCURVE",
"64 78 OFFCURVE",
"64 126 CURVE SMOOTH",
"64 134 LINE",
"193 134 LINE",
"193 127 LINE SMOOTH",
"193 78 OFFCURVE",
"168 54 OFFCURVE",
"129 54 CURVE SMOOTH"
);
}
);
width = 307;
}
);
unicode = 16F56;
category = Letter;
},
{
glyphname = u16F57;
lastChange = "2019-09-10 21:03:33 +0000";
layers = (
{
layerId = UUID0;
paths = (
{
closed = 1;
nodes = (
"288 -10 OFFCURVE",
"352 50 OFFCURVE",
"352 125 CURVE",
"284 125 LINE",
"284 84 OFFCURVE",
"254 54 OFFCURVE",
"213 54 CURVE SMOOTH",
"173 54 OFFCURVE",
"142 84 OFFCURVE",
"142 125 CURVE SMOOTH",
"142 166 OFFCURVE",
"171 195 OFFCURVE",
"208 198 CURVE SMOOTH",
"214 198 LINE",
"214 258 LINE",
"0 258 LINE",
"0 198 LINE",
"110 198 LINE",
"87 178 OFFCURVE",
"74 153 OFFCURVE",
"74 125 CURVE SMOOTH",
"74 50 OFFCURVE",
"138 -10 OFFCURVE",
"213 -10 CURVE SMOOTH"
);
}
);
width = 402;
}
);
unicode = 16F57;
category = Letter;
},
{
glyphname = u16F58;
lastChange = "2019-09-10 21:03:33 +0000";
layers = (
{
layerId = UUID0;
paths = (
{
closed = 1;
nodes = (
"279 -15 OFFCURVE",
"343 25 OFFCURVE",
"343 76 CURVE SMOOTH",
"343 128 OFFCURVE",
"281 164 OFFCURVE",
"208 164 CURVE SMOOTH",
"186 164 OFFCURVE",
"165 161 OFFCURVE",
"146 155 CURVE",
"156 179 OFFCURVE",
"178 196 OFFCURVE",
"207 198 CURVE SMOOTH",
"214 198 LINE",
"214 258 LINE",
"0 258 LINE",
"0 198 LINE",
"116 198 LINE",
"91 176 OFFCURVE",
"71 147 OFFCURVE",
"71 102 CURVE SMOOTH",
"71 24 OFFCURVE",
"126 -15 OFFCURVE",
"206 -15 CURVE SMOOTH"
);
},
{
closed = 1;
nodes = (
"171 37 OFFCURVE",
"140 52 OFFCURVE",
"140 74 CURVE SMOOTH",
"140 97 OFFCURVE",
"171 112 OFFCURVE",
"208 112 CURVE SMOOTH",
"247 112 OFFCURVE",
"277 98 OFFCURVE",
"277 74 CURVE SMOOTH",
"277 52 OFFCURVE",
"247 37 OFFCURVE",
"208 37 CURVE SMOOTH"
);
}
);
width = 393;
}
);
unicode = 16F58;
category = Letter;
},
{
glyphname = u16F59;
lastChange = "2019-09-10 21:03:33 +0000";
layers = (
{
layerId = UUID0;
paths = (
{
closed = 1;
nodes = (
"214 -10 OFFCURVE",
"278 50 OFFCURVE",
"278 125 CURVE SMOOTH",
"278 201 OFFCURVE",
"214 261 OFFCURVE",
"139 261 CURVE SMOOTH",
"64 261 OFFCURVE",
"0 201 OFFCURVE",
"0 125 CURVE SMOOTH",
"0 50 OFFCURVE",
"64 -10 OFFCURVE",
"139 -10 CURVE SMOOTH"
);
},
{
closed = 1;
nodes = (
"99 54 OFFCURVE",
"68 84 OFFCURVE",
"68 125 CURVE SMOOTH",
"68 168 OFFCURVE",
"99 197 OFFCURVE",
"139 197 CURVE SMOOTH",
"180 197 OFFCURVE",
"210 169 OFFCURVE",
"210 125 CURVE SMOOTH",
"210 84 OFFCURVE",
"180 54 OFFCURVE",
"139 54 CURVE SMOOTH"
);
}
);
width = 328;
}
);
unicode = 16F59;
category = Letter;
},
{
glyphname = u16F5A;
lastChange = "2019-09-10 21:03:33 +0000";
layers = (
{
layerId = UUID0;
paths = (
{
closed = 1;
nodes = (
"214 -10 OFFCURVE",
"278 50 OFFCURVE",
"278 125 CURVE SMOOTH",
"278 152 OFFCURVE",
"269 177 OFFCURVE",
"255 198 CURVE",
"398 198 LINE",
"398 258 LINE",
"139 258 LINE SMOOTH",
"64 258 OFFCURVE",
"0 201 OFFCURVE",
"0 125 CURVE SMOOTH",
"0 50 OFFCURVE",
"64 -10 OFFCURVE",
"139 -10 CURVE SMOOTH"
);
},
{
closed = 1;
nodes = (
"99 54 OFFCURVE",
"68 84 OFFCURVE",
"68 125 CURVE SMOOTH",
"68 168 OFFCURVE",
"99 197 OFFCURVE",
"139 197 CURVE SMOOTH",
"180 197 OFFCURVE",
"210 169 OFFCURVE",
"210 125 CURVE SMOOTH",
"210 84 OFFCURVE",
"180 54 OFFCURVE",
"139 54 CURVE SMOOTH"
);
}
);
width = 448;
}
);
unicode = 16F5A;
category = Letter;
},
{
glyphname = u16F5B;
lastChange = "2019-09-10 21:03:33 +0000";
layers = (
{
layerId = UUID0;
paths = (
{
closed = 1;
nodes = (
"214 -10 OFFCURVE",
"278 50 OFFCURVE",
"278 125 CURVE SMOOTH",
"278 190 OFFCURVE",
"231 243 OFFCURVE",
"171 257 CURVE",
"171 341 LINE",
"107 341 LINE",
"107 257 LINE",
"46 243 OFFCURVE",
"0 190 OFFCURVE",
"0 125 CURVE SMOOTH",
"0 50 OFFCURVE",
"64 -10 OFFCURVE",
"139 -10 CURVE SMOOTH"
);
},
{
closed = 1;
nodes = (
"99 54 OFFCURVE",
"68 84 OFFCURVE",
"68 125 CURVE SMOOTH",
"68 168 OFFCURVE",
"99 197 OFFCURVE",
"139 197 CURVE SMOOTH",
"180 197 OFFCURVE",
"210 169 OFFCURVE",
"210 125 CURVE SMOOTH",
"210 84 OFFCURVE",
"180 54 OFFCURVE",
"139 54 CURVE SMOOTH"
);
}
);
width = 328;
}
);
unicode = 16F5B;
category = Letter;
},
{
glyphname = u16F5C;
lastChange = "2019-09-10 21:03:33 +0000";
layers = (
{
layerId = UUID0;
paths = (
{
closed = 1;
nodes = (
"130 0 LINE SMOOTH",
"244 0 OFFCURVE",
"281 47 OFFCURVE",
"281 115 CURVE SMOOTH",
"281 187 OFFCURVE",
"243 229 OFFCURVE",
"130 229 CURVE SMOOTH",
"64 229 LINE",
"64 341 LINE",
"0 341 LINE",
"0 169 LINE",
"140 169 LINE SMOOTH",
"189 169 OFFCURVE",
"213 154 OFFCURVE",
"213 115 CURVE SMOOTH",
"213 72 OFFCURVE",
"189 60 OFFCURVE",
"141 60 CURVE SMOOTH",
"0 60 LINE",
"0 0 LINE"
);
}
);
width = 331;
}
);
unicode = 16F5C;
category = Letter;
},
{
glyphname = u16F5D;
lastChange = "2019-09-10 21:03:33 +0000";
layers = (
{
layerId = UUID0;
paths = (
{
closed = 1;
nodes = (
"301 0 LINE",
"301 60 LINE",
"140 60 LINE SMOOTH",
"92 60 OFFCURVE",
"68 72 OFFCURVE",
"68 115 CURVE SMOOTH",
"68 154 OFFCURVE",
"92 169 OFFCURVE",
"141 169 CURVE SMOOTH",
"301 169 LINE",
"301 229 LINE",
"151 229 LINE SMOOTH",
"38 229 OFFCURVE",
"0 187 OFFCURVE",
"0 115 CURVE SMOOTH",
"0 47 OFFCURVE",
"37 0 OFFCURVE",
"151 0 CURVE SMOOTH"
);
}
);
width = 351;
}
);
unicode = 16F5D;
category = Letter;
},
{
glyphname = u16F5E;
lastChange = "2019-09-10 21:03:33 +0000";
layers = (
{
layerId = UUID0;
paths = (
{
closed = 1;
nodes = (
"179 -10 OFFCURVE",
"231 3 OFFCURVE",
"263 57 CURVE",
"212 89 LINE",
"196 60 OFFCURVE",
"163 52 OFFCURVE",
"132 52 CURVE SMOOTH",
"102 52 OFFCURVE",
"64 65 OFFCURVE",
"64 94 CURVE SMOOTH",
"64 131 OFFCURVE",
"101 140 OFFCURVE",
"145 140 CURVE SMOOTH",
"175 140 LINE",
"175 200 LINE",
"143 200 LINE SMOOTH",
"99 200 OFFCURVE",
"75 218 OFFCURVE",
"75 242 CURVE SMOOTH",
"75 270 OFFCURVE",
"99 280 OFFCURVE",
"128 280 CURVE SMOOTH",
"157 280 OFFCURVE",
"185 275 OFFCURVE",
"205 248 CURVE",
"253 283 LINE",
"221 332 OFFCURVE",
"174 342 OFFCURVE",
"128 342 CURVE SMOOTH",
"56 342 OFFCURVE",
"9 298 OFFCURVE",
"9 241 CURVE SMOOTH",
"9 212 OFFCURVE",
"24 184 OFFCURVE",
"55 172 CURVE",
"20 157 OFFCURVE",
"0 126 OFFCURVE",
"0 88 CURVE SMOOTH",
"0 38 OFFCURVE",
"49 -10 OFFCURVE",
"133 -10 CURVE SMOOTH"
);
}
);
width = 313;
}
);
unicode = 16F5E;
category = Letter;
},
{
glyphname = u16F5F;
lastChange = "2019-09-10 21:03:33 +0000";
layers = (
{
layerId = UUID0;
paths = (
{
closed = 1;
nodes = (
"165 -10 OFFCURVE",
"201 -3 OFFCURVE",
"231 19 CURVE",
"248 1 OFFCURVE",
"274 -10 OFFCURVE",
"302 -10 CURVE SMOOTH",
"355 -10 OFFCURVE",
"399 31 OFFCURVE",
"399 82 CURVE SMOOTH",
"399 133 OFFCURVE",
"355 174 OFFCURVE",
"302 174 CURVE SMOOTH",
"250 174 OFFCURVE",
"208 135 OFFCURVE",
"206 80 CURVE",
"188 58 OFFCURVE",
"159 52 OFFCURVE",
"132 52 CURVE SMOOTH",
"102 52 OFFCURVE",
"64 65 OFFCURVE",
"64 94 CURVE SMOOTH",
"64 131 OFFCURVE",
"101 140 OFFCURVE",
"145 140 CURVE SMOOTH",
"175 140 LINE",
"175 200 LINE",
"143 200 LINE SMOOTH",
"99 200 OFFCURVE",
"75 218 OFFCURVE",
"75 242 CURVE SMOOTH",
"75 270 OFFCURVE",
"99 280 OFFCURVE",
"128 280 CURVE SMOOTH",
"157 280 OFFCURVE",
"185 275 OFFCURVE",
"205 248 CURVE",
"253 283 LINE",
"221 332 OFFCURVE",
"174 342 OFFCURVE",
"128 342 CURVE SMOOTH",
"56 342 OFFCURVE",
"9 298 OFFCURVE",
"9 241 CURVE SMOOTH",
"9 212 OFFCURVE",
"24 184 OFFCURVE",
"55 172 CURVE",
"20 157 OFFCURVE",
"0 126 OFFCURVE",
"0 88 CURVE SMOOTH",
"0 38 OFFCURVE",
"49 -10 OFFCURVE",
"133 -10 CURVE SMOOTH"
);
},
{
closed = 1;
nodes = (
"277 38 OFFCURVE",
"256 58 OFFCURVE",
"256 82 CURVE SMOOTH",
"256 107 OFFCURVE",
"277 126 OFFCURVE",
"302 126 CURVE SMOOTH",
"328 126 OFFCURVE",
"349 107 OFFCURVE",
"349 82 CURVE SMOOTH",
"349 58 OFFCURVE",
"328 38 OFFCURVE",
"302 38 CURVE SMOOTH"
);
}
);
width = 449;
}
);
unicode = 16F5F;
category = Letter;
},
{
glyphname = u16F60;
lastChange = "2019-09-10 21:03:33 +0000";
layers = (
{
layerId = UUID0;
paths = (
{
closed = 1;
nodes = (
"281 0 LINE",
"281 172 LINE",
"141 172 LINE SMOOTH",
"92 172 OFFCURVE",
"68 187 OFFCURVE",
"68 226 CURVE SMOOTH",
"68 269 OFFCURVE",
"92 281 OFFCURVE",
"140 281 CURVE SMOOTH",
"281 281 LINE",
"281 341 LINE",
"151 341 LINE SMOOTH",
"37 341 OFFCURVE",
"0 294 OFFCURVE",
"0 226 CURVE SMOOTH",
"0 154 OFFCURVE",
"38 112 OFFCURVE",
"151 112 CURVE SMOOTH",
"217 112 LINE",
"217 0 LINE"
);
}
);
width = 331;
}
);
unicode = 16F60;
category = Letter;
},
{
glyphname = u16F61;
lastChange = "2019-09-10 21:03:33 +0000";
layers = (
{
layerId = UUID0;
paths = (
{
closed = 1;
nodes = (
"64 0 LINE",
"64 132 LINE SMOOTH",
"64 180 OFFCURVE",
"86 204 OFFCURVE",
"129 204 CURVE SMOOTH",
"168 204 OFFCURVE",
"193 180 OFFCURVE",
"193 131 CURVE SMOOTH",
"193 0 LINE",
"257 0 LINE",
"257 127 LINE SMOOTH",
"257 236 OFFCURVE",
"201 268 OFFCURVE",
"129 268 CURVE SMOOTH",
"61 268 OFFCURVE",
"0 241 OFFCURVE",
"0 127 CURVE SMOOTH",
"0 0 LINE"
);
}
);
width = 307;
}
);
unicode = 16F61;
category = Letter;
},
{
glyphname = u16F62;
lastChange = "2019-09-10 21:03:33 +0000";
layers = (
{
layerId = UUID0;
paths = (
{
closed = 1;
nodes = (
"64 0 LINE",
"64 131 LINE SMOOTH",
"64 180 OFFCURVE",
"89 204 OFFCURVE",
"128 204 CURVE SMOOTH",
"171 204 OFFCURVE",
"193 180 OFFCURVE",
"193 132 CURVE SMOOTH",
"193 0 LINE",
"411 0 LINE",
"411 60 LINE",
"257 60 LINE",
"257 127 LINE SMOOTH",
"257 241 OFFCURVE",
"196 268 OFFCURVE",
"128 268 CURVE SMOOTH",
"56 268 OFFCURVE",
"0 236 OFFCURVE",
"0 127 CURVE SMOOTH",
"0 0 LINE"
);
}
);
width = 461;
}
);
unicode = 16F62;
category = Letter;
},
{
glyphname = u16F63;
lastChange = "2019-09-10 21:03:33 +0000";
layers = (
{
layerId = UUID0;
paths = (
{
closed = 1;
nodes = (
"485 -208 OFFCURVE",
"549 -148 OFFCURVE",
"549 -73 CURVE",
"481 -73 LINE",
"481 -114 OFFCURVE",
"451 -144 OFFCURVE",
"410 -144 CURVE SMOOTH",
"370 -144 OFFCURVE",
"339 -114 OFFCURVE",
"339 -73 CURVE SMOOTH",
"339 -30 OFFCURVE",
"371 0 OFFCURVE",
"411 0 CURVE",
"411 60 LINE",
"257 60 LINE",
"257 127 LINE SMOOTH",
"257 241 OFFCURVE",
"196 268 OFFCURVE",
"128 268 CURVE SMOOTH",
"56 268 OFFCURVE",
"0 236 OFFCURVE",
"0 127 CURVE SMOOTH",
"0 0 LINE",
"64 0 LINE",
"64 131 LINE SMOOTH",
"64 180 OFFCURVE",
"89 204 OFFCURVE",
"128 204 CURVE SMOOTH",
"171 204 OFFCURVE",
"193 180 OFFCURVE",
"193 132 CURVE SMOOTH",
"193 0 LINE",
"309 0 LINE",
"285 -20 OFFCURVE",
"271 -45 OFFCURVE",
"271 -73 CURVE SMOOTH",
"271 -148 OFFCURVE",
"335 -208 OFFCURVE",
"410 -208 CURVE SMOOTH"
);
}
);
width = 599;
}
);
unicode = 16F63;
category = Letter;
},
{
glyphname = u16F64;
lastChange = "2019-09-10 21:03:33 +0000";
layers = (
{
layerId = UUID0;
paths = (
{
closed = 1;
nodes = (
"476 -213 OFFCURVE",
"540 -173 OFFCURVE",
"540 -122 CURVE SMOOTH",
"540 -70 OFFCURVE",
"478 -34 OFFCURVE",
"405 -34 CURVE SMOOTH",
"383 -34 OFFCURVE",
"362 -37 OFFCURVE",
"343 -43 CURVE",
"353 -18 OFFCURVE",
"375 -2 OFFCURVE",
"404 0 CURVE SMOOTH",
"411 0 LINE",
"411 60 LINE",
"257 60 LINE",
"257 127 LINE SMOOTH",
"257 241 OFFCURVE",
"196 268 OFFCURVE",
"128 268 CURVE SMOOTH",
"56 268 OFFCURVE",
"0 236 OFFCURVE",
"0 127 CURVE SMOOTH",
"0 0 LINE",
"64 0 LINE",
"64 131 LINE SMOOTH",
"64 180 OFFCURVE",
"89 204 OFFCURVE",
"128 204 CURVE SMOOTH",
"171 204 OFFCURVE",
"193 180 OFFCURVE",
"193 132 CURVE SMOOTH",
"193 0 LINE",
"314 0 LINE",
"281 -29 OFFCURVE",
"268 -63 OFFCURVE",
"268 -103 CURVE SMOOTH",
"268 -174 OFFCURVE",
"330 -213 OFFCURVE",
"403 -213 CURVE SMOOTH"
);
},
{
closed = 1;
nodes = (
"368 -161 OFFCURVE",
"337 -146 OFFCURVE",
"337 -124 CURVE SMOOTH",
"337 -101 OFFCURVE",
"368 -86 OFFCURVE",
"405 -86 CURVE SMOOTH",
"444 -86 OFFCURVE",
"474 -100 OFFCURVE",
"474 -124 CURVE SMOOTH",
"474 -146 OFFCURVE",
"444 -161 OFFCURVE",
"405 -161 CURVE SMOOTH"
);
}
);
width = 590;
}
);
unicode = 16F64;
category = Letter;
},
{
glyphname = u16F65;
lastChange = "2019-09-10 21:03:33 +0000";
layers = (
{
layerId = UUID0;
paths = (
{
closed = 1;
nodes = (
"407 -10 OFFCURVE",
"471 50 OFFCURVE",
"471 125 CURVE SMOOTH",
"471 201 OFFCURVE",
"407 261 OFFCURVE",
"332 261 CURVE SMOOTH",
"294 261 OFFCURVE",
"259 246 OFFCURVE",
"234 221 CURVE",
"211 255 OFFCURVE",
"173 268 OFFCURVE",
"129 268 CURVE SMOOTH",
"61 268 OFFCURVE",
"0 241 OFFCURVE",
"0 127 CURVE SMOOTH",
"0 0 LINE",
"64 0 LINE",
"64 132 LINE SMOOTH",
"64 180 OFFCURVE",
"86 204 OFFCURVE",
"129 204 CURVE SMOOTH",
"168 204 OFFCURVE",
"193 180 OFFCURVE",
"193 131 CURVE SMOOTH",
"193 125 LINE SMOOTH",
"193 50 OFFCURVE",
"257 -10 OFFCURVE",
"332 -10 CURVE SMOOTH"
);
},
{
closed = 1;
nodes = (
"292 54 OFFCURVE",
"261 84 OFFCURVE",
"261 125 CURVE SMOOTH",
"261 168 OFFCURVE",
"292 197 OFFCURVE",
"332 197 CURVE SMOOTH",
"373 197 OFFCURVE",
"403 169 OFFCURVE",
"403 125 CURVE SMOOTH",
"403 84 OFFCURVE",
"373 54 OFFCURVE",
"332 54 CURVE SMOOTH"
);
}
);
width = 521;
}
);
unicode = 16F65;
category = Letter;
},
{
glyphname = u16F66;
lastChange = "2019-09-10 21:03:33 +0000";
layers = (
{
layerId = UUID0;
paths = (
{
closed = 1;
nodes = (
"224 198 LINE",
"224 258 LINE",
"0 258 LINE",
"0 198 LINE"
);
},
{
closed = 1;
nodes = (
"224 0 LINE",
"224 60 LINE",
"0 60 LINE",
"0 0 LINE"
);
}
);
width = 274;
}
);
unicode = 16F66;
category = Letter;
},
{
glyphname = u16F67;
lastChange = "2019-09-10 21:03:33 +0000";
layers = (
{
layerId = UUID0;
paths = (
{
closed = 1;
nodes = (
"64 0 LINE",
"64 130 LINE SMOOTH",
"64 178 OFFCURVE",
"86 204 OFFCURVE",
"129 204 CURVE SMOOTH",
"167 204 OFFCURVE",
"193 181 OFFCURVE",
"193 134 CURVE SMOOTH",
"193 0 LINE",
"257 0 LINE",
"257 134 LINE SMOOTH",
"257 181 OFFCURVE",
"280 204 OFFCURVE",
"322 204 CURVE SMOOTH",
"361 204 OFFCURVE",
"386 179 OFFCURVE",
"386 130 CURVE SMOOTH",
"386 0 LINE",
"450 0 LINE",
"450 130 LINE SMOOTH",
"450 239 OFFCURVE",
"394 268 OFFCURVE",
"322 268 CURVE SMOOTH",
"284 268 OFFCURVE",
"242 254 OFFCURVE",
"225 224 CURVE",
"207 254 OFFCURVE",
"167 268 OFFCURVE",
"129 268 CURVE SMOOTH",
"61 268 OFFCURVE",
"0 244 OFFCURVE",
"0 130 CURVE SMOOTH",
"0 0 LINE"
);
}
);
width = 500;
}
);
unicode = 16F67;
category = Letter;
},
{
glyphname = u16F68;
lastChange = "2019-09-10 21:03:33 +0000";
layers = (
{
layerId = UUID0;
paths = (
{
closed = 1;
nodes = (
"394 -10 OFFCURVE",
"450 22 OFFCURVE",
"450 131 CURVE SMOOTH",
"450 258 LINE",
"386 258 LINE",
"386 127 LINE SMOOTH",
"386 78 OFFCURVE",
"361 54 OFFCURVE",
"322 54 CURVE SMOOTH",
"279 54 OFFCURVE",
"257 78 OFFCURVE",
"257 126 CURVE SMOOTH",
"257 141 LINE SMOOTH",
"257 238 OFFCURVE",
"194 268 OFFCURVE",
"128 268 CURVE SMOOTH",
"56 268 OFFCURVE",
"0 236 OFFCURVE",
"0 127 CURVE SMOOTH",
"0 0 LINE",
"64 0 LINE",
"64 131 LINE SMOOTH",
"64 180 OFFCURVE",
"89 204 OFFCURVE",
"128 204 CURVE SMOOTH",
"170 204 OFFCURVE",
"193 180 OFFCURVE",
"193 140 CURVE SMOOTH",
"193 124 LINE SMOOTH",
"193 17 OFFCURVE",
"254 -10 OFFCURVE",
"322 -10 CURVE SMOOTH"
);
}
);
width = 500;
}
);
unicode = 16F68;
category = Letter;
},
{
glyphname = u16F69;
lastChange = "2019-09-10 21:03:33 +0000";
layers = (
{
layerId = UUID0;
paths = (
{
closed = 1;
nodes = (
"398 -151 OFFCURVE",
"462 -111 OFFCURVE",
"462 -60 CURVE SMOOTH",
"462 -8 OFFCURVE",
"400 28 OFFCURVE",
"327 28 CURVE SMOOTH",
"301 28 OFFCURVE",
"277 24 OFFCURVE",
"257 16 CURVE",
"257 127 LINE SMOOTH",
"257 236 OFFCURVE",
"201 268 OFFCURVE",
"129 268 CURVE SMOOTH",
"61 268 OFFCURVE",
"0 241 OFFCURVE",
"0 127 CURVE SMOOTH",
"0 0 LINE",
"64 0 LINE",
"64 132 LINE SMOOTH",
"64 180 OFFCURVE",
"86 204 OFFCURVE",
"129 204 CURVE SMOOTH",
"168 204 OFFCURVE",
"193 180 OFFCURVE",
"193 131 CURVE SMOOTH",
"193 -60 LINE SMOOTH",
"193 -111 OFFCURVE",
"252 -151 OFFCURVE",
"325 -151 CURVE SMOOTH"
);
},
{
closed = 1;
nodes = (
"290 -99 OFFCURVE",
"259 -84 OFFCURVE",
"259 -62 CURVE SMOOTH",
"259 -39 OFFCURVE",
"290 -24 OFFCURVE",
"327 -24 CURVE SMOOTH",
"366 -24 OFFCURVE",
"396 -38 OFFCURVE",
"396 -62 CURVE SMOOTH",
"396 -84 OFFCURVE",
"366 -99 OFFCURVE",
"327 -99 CURVE SMOOTH"
);
}
);
width = 512;
}
);
unicode = 16F69;
category = Letter;
},
{
glyphname = u16F6A;
lastChange = "2019-09-10 21:03:33 +0000";
layers = (
{
layerId = UUID0;
paths = (
{
closed = 1;
nodes = (
"201 -10 OFFCURVE",
"257 22 OFFCURVE",
"257 131 CURVE SMOOTH",
"257 258 LINE",
"193 258 LINE",
"193 127 LINE SMOOTH",
"193 78 OFFCURVE",
"168 54 OFFCURVE",
"129 54 CURVE SMOOTH",
"86 54 OFFCURVE",
"64 78 OFFCURVE",
"64 126 CURVE SMOOTH",
"64 258 LINE",
"0 258 LINE",
"0 131 LINE SMOOTH",
"0 17 OFFCURVE",
"61 -10 OFFCURVE",
"129 -10 CURVE SMOOTH"
);
}
);
width = 307;
}
);
unicode = 16F6A;
category = Letter;
},
{
glyphname = u16F6B;
lastChange = "2019-09-10 21:03:33 +0000";
layers = (
{
layerId = UUID0;
paths = (
{
closed = 1;
nodes = (
"196 -10 OFFCURVE",
"257 17 OFFCURVE",
"257 131 CURVE SMOOTH",
"257 198 LINE",
"411 198 LINE",
"411 258 LINE",
"193 258 LINE",
"193 126 LINE SMOOTH",
"193 78 OFFCURVE",
"171 54 OFFCURVE",
"128 54 CURVE SMOOTH",
"89 54 OFFCURVE",
"64 78 OFFCURVE",
"64 127 CURVE SMOOTH",
"64 258 LINE",
"0 258 LINE",
"0 131 LINE SMOOTH",
"0 22 OFFCURVE",
"56 -10 OFFCURVE",
"128 -10 CURVE SMOOTH"
);
}
);
width = 461;
}
);
unicode = 16F6B;
category = Letter;
},
{
glyphname = u16F6C;
lastChange = "2019-09-10 21:03:33 +0000";
layers = (
{
layerId = UUID0;
paths = (
{
closed = 1;
nodes = (
"196 -10 OFFCURVE",
"257 17 OFFCURVE",
"257 131 CURVE SMOOTH",
"257 198 LINE",
"345 198 LINE",
"323 178 OFFCURVE",
"311 153 OFFCURVE",
"311 125 CURVE SMOOTH",
"311 50 OFFCURVE",
"375 -10 OFFCURVE",
"450 -10 CURVE SMOOTH",
"525 -10 OFFCURVE",
"589 50 OFFCURVE",
"589 125 CURVE",
"521 125 LINE",
"521 84 OFFCURVE",
"491 54 OFFCURVE",
"450 54 CURVE SMOOTH",
"410 54 OFFCURVE",
"379 84 OFFCURVE",
"379 125 CURVE SMOOTH",
"379 166 OFFCURVE",
"408 195 OFFCURVE",
"445 198 CURVE SMOOTH",
"451 198 LINE",
"451 258 LINE",
"193 258 LINE",
"193 126 LINE SMOOTH",
"193 78 OFFCURVE",
"171 54 OFFCURVE",
"128 54 CURVE SMOOTH",
"89 54 OFFCURVE",
"64 78 OFFCURVE",
"64 127 CURVE SMOOTH",
"64 258 LINE",
"0 258 LINE",
"0 131 LINE SMOOTH",
"0 22 OFFCURVE",
"56 -10 OFFCURVE",
"128 -10 CURVE SMOOTH"
);
}
);
width = 639;
}
);
unicode = 16F6C;
category = Letter;
},
{
glyphname = u16F6D;
lastChange = "2019-09-10 21:03:33 +0000";
layers = (
{
layerId = UUID0;
paths = (
{
closed = 1;
nodes = (
"516 -15 OFFCURVE",
"580 25 OFFCURVE",
"580 76 CURVE SMOOTH",
"580 128 OFFCURVE",
"518 164 OFFCURVE",
"445 164 CURVE SMOOTH",
"423 164 OFFCURVE",
"402 161 OFFCURVE",
"383 155 CURVE",
"393 180 OFFCURVE",
"415 196 OFFCURVE",
"444 198 CURVE SMOOTH",
"451 198 LINE",
"451 258 LINE",
"193 258 LINE",
"193 126 LINE SMOOTH",
"193 78 OFFCURVE",
"171 54 OFFCURVE",
"128 54 CURVE SMOOTH",
"89 54 OFFCURVE",
"64 78 OFFCURVE",
"64 127 CURVE SMOOTH",
"64 258 LINE",
"0 258 LINE",
"0 131 LINE SMOOTH",
"0 22 OFFCURVE",
"56 -10 OFFCURVE",
"128 -10 CURVE SMOOTH",
"196 -10 OFFCURVE",
"257 17 OFFCURVE",
"257 131 CURVE SMOOTH",
"257 198 LINE",
"351 198 LINE",
"320 169 OFFCURVE",
"308 135 OFFCURVE",
"308 95 CURVE SMOOTH",
"308 24 OFFCURVE",
"370 -15 OFFCURVE",
"443 -15 CURVE SMOOTH"
);
},
{
closed = 1;
nodes = (
"408 37 OFFCURVE",
"377 52 OFFCURVE",
"377 74 CURVE SMOOTH",
"377 97 OFFCURVE",
"408 112 OFFCURVE",
"445 112 CURVE SMOOTH",
"484 112 OFFCURVE",
"514 98 OFFCURVE",
"514 74 CURVE SMOOTH",
"514 52 OFFCURVE",
"484 37 OFFCURVE",
"445 37 CURVE SMOOTH"
);
}
);
width = 630;
}
);
unicode = 16F6D;
category = Letter;
},
{
glyphname = u16F6E;
lastChange = "2019-09-10 21:03:33 +0000";
layers = (
{
layerId = UUID0;
paths = (
{
closed = 1;
nodes = (
"167 -10 OFFCURVE",
"207 4 OFFCURVE",
"225 34 CURVE",
"242 4 OFFCURVE",
"284 -10 OFFCURVE",
"322 -10 CURVE SMOOTH",
"394 -10 OFFCURVE",
"450 19 OFFCURVE",
"450 128 CURVE SMOOTH",
"450 258 LINE",
"386 258 LINE",
"386 128 LINE SMOOTH",
"386 79 OFFCURVE",
"361 54 OFFCURVE",
"322 54 CURVE SMOOTH",
"280 54 OFFCURVE",
"257 77 OFFCURVE",
"257 124 CURVE SMOOTH",
"257 258 LINE",
"193 258 LINE",
"193 124 LINE SMOOTH",
"193 77 OFFCURVE",
"167 54 OFFCURVE",
"129 54 CURVE SMOOTH",
"86 54 OFFCURVE",
"64 80 OFFCURVE",
"64 128 CURVE SMOOTH",
"64 258 LINE",
"0 258 LINE",
"0 128 LINE SMOOTH",
"0 14 OFFCURVE",
"61 -10 OFFCURVE",
"129 -10 CURVE SMOOTH"
);
}
);
width = 500;
}
);
unicode = 16F6E;
category = Letter;
},
{
glyphname = u16F6F;
lastChange = "2019-09-10 21:03:33 +0000";
layers = (
{
layerId = UUID0;
paths = (
{
closed = 1;
nodes = (
"167 -10 OFFCURVE",
"207 4 OFFCURVE",
"225 34 CURVE",
"242 4 OFFCURVE",
"284 -10 OFFCURVE",
"322 -10 CURVE SMOOTH",
"394 -10 OFFCURVE",
"450 19 OFFCURVE",
"450 128 CURVE",
"386 128 LINE",
"386 79 OFFCURVE",
"361 54 OFFCURVE",
"322 54 CURVE SMOOTH",
"280 54 OFFCURVE",
"257 77 OFFCURVE",
"257 124 CURVE SMOOTH",
"257 258 LINE",
"193 258 LINE",
"193 124 LINE SMOOTH",
"193 77 OFFCURVE",
"167 54 OFFCURVE",
"129 54 CURVE SMOOTH",
"86 54 OFFCURVE",
"64 80 OFFCURVE",
"64 128 CURVE SMOOTH",
"64 258 LINE",
"0 258 LINE",
"0 128 LINE SMOOTH",
"0 14 OFFCURVE",
"61 -10 OFFCURVE",
"129 -10 CURVE SMOOTH"
);
}
);
width = 500;
}
);
unicode = 16F6F;
category = Letter;
},
{
glyphname = u16F70;
lastChange = "2019-09-10 21:03:33 +0000";
layers = (
{
layerId = UUID0;
paths = (
{
closed = 1;
nodes = (
"171 -10 OFFCURVE",
"207 1 OFFCURVE",
"230 32 CURVE",
"254 6 OFFCURVE",
"295 -10 OFFCURVE",
"342 -10 CURVE SMOOTH",
"415 -10 OFFCURVE",
"479 30 OFFCURVE",
"479 81 CURVE SMOOTH",
"479 133 OFFCURVE",
"417 169 OFFCURVE",
"344 169 CURVE SMOOTH",
"311 169 OFFCURVE",
"280 162 OFFCURVE",
"257 149 CURVE",
"257 258 LINE",
"193 258 LINE",
"193 127 LINE SMOOTH",
"193 78 OFFCURVE",
"168 54 OFFCURVE",
"129 54 CURVE SMOOTH",
"86 54 OFFCURVE",
"64 78 OFFCURVE",
"64 126 CURVE SMOOTH",
"64 258 LINE",
"0 258 LINE",
"0 131 LINE SMOOTH",
"0 17 OFFCURVE",
"61 -10 OFFCURVE",
"129 -10 CURVE SMOOTH"
);
},
{
closed = 1;
nodes = (
"307 42 OFFCURVE",
"276 57 OFFCURVE",
"276 79 CURVE SMOOTH",
"276 102 OFFCURVE",
"307 117 OFFCURVE",
"344 117 CURVE SMOOTH",
"383 117 OFFCURVE",
"413 103 OFFCURVE",
"413 79 CURVE SMOOTH",
"413 57 OFFCURVE",
"383 42 OFFCURVE",
"344 42 CURVE SMOOTH"
);
}
);
width = 529;
}
);
unicode = 16F70;
category = Letter;
},
{
glyphname = u16F71;
lastChange = "2019-09-10 21:03:33 +0000";
layers = (
{
layerId = UUID0;
paths = (
{
closed = 1;
nodes = (
"150 0 LINE SMOOTH",
"264 0 OFFCURVE",
"301 47 OFFCURVE",
"301 115 CURVE SMOOTH",
"301 187 OFFCURVE",
"263 229 OFFCURVE",
"150 229 CURVE SMOOTH",
"0 229 LINE",
"0 169 LINE",
"160 169 LINE SMOOTH",
"209 169 OFFCURVE",
"233 154 OFFCURVE",
"233 115 CURVE SMOOTH",
"233 72 OFFCURVE",
"209 60 OFFCURVE",
"161 60 CURVE SMOOTH",
"0 60 LINE",
"0 0 LINE"
);
}
);
width = 351;
}
);
unicode = 16F71;
category = Letter;
},
{
glyphname = u16F72;
lastChange = "2019-09-10 21:03:33 +0000";
layers = (
{
layerId = UUID0;
paths = (
{
closed = 1;
nodes = (
"248 -4 OFFCURVE",
"271 82 OFFCURVE",
"271 157 CURVE SMOOTH",
"271 235 OFFCURVE",
"207 268 OFFCURVE",
"134 268 CURVE SMOOTH",
"61 268 OFFCURVE",
"0 232 OFFCURVE",
"0 180 CURVE SMOOTH",
"0 129 OFFCURVE",
"59 89 OFFCURVE",
"132 89 CURVE SMOOTH",
"155 89 OFFCURVE",
"178 93 OFFCURVE",
"197 100 CURVE",
"191 67 OFFCURVE",
"163 46 OFFCURVE",
"127 46 CURVE",
"132 -10 LINE"
);
},
{
closed = 1;
nodes = (
"97 141 OFFCURVE",
"66 156 OFFCURVE",
"66 178 CURVE SMOOTH",
"66 201 OFFCURVE",
"97 216 OFFCURVE",
"134 216 CURVE SMOOTH",
"173 216 OFFCURVE",
"203 202 OFFCURVE",
"203 178 CURVE SMOOTH",
"203 156 OFFCURVE",
"173 141 OFFCURVE",
"134 141 CURVE SMOOTH"
);
}
);
width = 321;
}
);
unicode = 16F72;
category = Letter;
},
{
glyphname = u16F73;
lastChange = "2019-09-10 21:03:33 +0000";
layers = (
{
layerId = UUID0;
paths = (
{
closed = 1;
nodes = (
"64 0 LINE",
"64 112 LINE",
"130 112 LINE SMOOTH",
"243 112 OFFCURVE",
"281 154 OFFCURVE",
"281 226 CURVE SMOOTH",
"281 294 OFFCURVE",
"244 341 OFFCURVE",
"130 341 CURVE SMOOTH",
"0 341 LINE",
"0 281 LINE",
"141 281 LINE SMOOTH",
"189 281 OFFCURVE",
"213 269 OFFCURVE",
"213 226 CURVE SMOOTH",
"213 187 OFFCURVE",
"189 172 OFFCURVE",
"140 172 CURVE SMOOTH",
"0 172 LINE",
"0 0 LINE"
);
}
);
width = 331;
}
);
unicode = 16F73;
category = Letter;
},
{
glyphname = u16F74;
lastChange = "2019-09-10 21:03:33 +0000";
layers = (
{
layerId = UUID0;
paths = (
{
closed = 1;
nodes = (
"281 0 LINE",
"281 60 LINE",
"140 60 LINE SMOOTH",
"92 60 OFFCURVE",
"68 72 OFFCURVE",
"68 115 CURVE SMOOTH",
"68 154 OFFCURVE",
"92 169 OFFCURVE",
"141 169 CURVE SMOOTH",
"281 169 LINE",
"281 341 LINE",
"217 341 LINE",
"217 229 LINE",
"151 229 LINE SMOOTH",
"38 229 OFFCURVE",
"0 187 OFFCURVE",
"0 115 CURVE SMOOTH",
"0 47 OFFCURVE",
"37 0 OFFCURVE",
"151 0 CURVE SMOOTH"
);
}
);
width = 331;
}
);
unicode = 16F74;
category = Letter;
},
{
glyphname = u16F75;
lastChange = "2019-09-10 21:03:33 +0000";
layers = (
{
layerId = UUID0;
paths = (
{
closed = 1;
nodes = (
"214 0 LINE",
"214 258 LINE",
"0 258 LINE",
"0 198 LINE",
"150 198 LINE",
"150 0 LINE"
);
}
);
width = 264;
}
);
unicode = 16F75;
category = Letter;
},
{
glyphname = u16F76;
lastChange = "2019-09-10 21:03:33 +0000";
layers = (
{
layerId = UUID0;
paths = (
{
closed = 1;
nodes = (
"257 0 LINE",
"257 127 LINE SMOOTH",
"257 236 OFFCURVE",
"201 268 OFFCURVE",
"129 268 CURVE SMOOTH",
"61 268 OFFCURVE",
"0 246 OFFCURVE",
"0 132 CURVE",
"64 132 LINE",
"64 180 OFFCURVE",
"86 204 OFFCURVE",
"129 204 CURVE SMOOTH",
"168 204 OFFCURVE",
"193 180 OFFCURVE",
"193 131 CURVE SMOOTH",
"193 0 LINE"
);
}
);
width = 307;
}
);
unicode = 16F76;
category = Letter;
},
{
glyphname = u16F77;
lastChange = "2019-09-10 21:03:33 +0000";
layers = (
{
layerId = UUID0;
paths = (
{
closed = 1;
nodes = (
"64 0 LINE",
"64 198 LINE",
"214 198 LINE",
"214 258 LINE",
"0 258 LINE",
"0 0 LINE"
);
}
);
width = 264;
}
);
unicode = 16F77;
category = Letter;
},
{
glyphname = u16F78;
lastChange = "2019-09-10 21:03:33 +0000";
layers = (
{
layerId = UUID0;
paths = (
{
closed = 1;
nodes = (
"64 0 LINE",
"64 131 LINE SMOOTH",
"64 180 OFFCURVE",
"89 204 OFFCURVE",
"128 204 CURVE SMOOTH",
"171 204 OFFCURVE",
"193 180 OFFCURVE",
"193 132 CURVE",
"257 132 LINE",
"257 246 OFFCURVE",
"196 268 OFFCURVE",
"128 268 CURVE SMOOTH",
"56 268 OFFCURVE",
"0 236 OFFCURVE",
"0 127 CURVE SMOOTH",
"0 0 LINE"
);
}
);
width = 307;
}
);
unicode = 16F78;
category = Letter;
},
{
glyphname = u16F79;
lastChange = "2019-09-10 21:03:33 +0000";
layers = (
{
layerId = UUID0;
paths = (
{
closed = 1;
nodes = (
"64 0 LINE",
"64 258 LINE",
"0 258 LINE",
"0 0 LINE"
);
}
);
width = 114;
}
);
unicode = 16F79;
category = Letter;
},
{
glyphname = u16F7A;
lastChange = "2019-09-10 21:03:33 +0000";
layers = (
{
layerId = UUID0;
paths = (
{
closed = 1;
nodes = (
"196 -10 OFFCURVE",
"257 12 OFFCURVE",
"257 126 CURVE",
"193 126 LINE",
"193 78 OFFCURVE",
"171 54 OFFCURVE",
"128 54 CURVE SMOOTH",
"89 54 OFFCURVE",
"64 78 OFFCURVE",
"64 127 CURVE SMOOTH",
"64 258 LINE",
"0 258 LINE",
"0 131 LINE SMOOTH",
"0 22 OFFCURVE",
"56 -10 OFFCURVE",
"128 -10 CURVE SMOOTH"
);
}
);
width = 307;
}
);
unicode = 16F7A;
category = Letter;
},
{
glyphname = u16F7B;
lastChange = "2019-09-10 21:03:33 +0000";
layers = (
{
layerId = UUID0;
paths = (
{
closed = 1;
nodes = (
"234 0 LINE",
"234 258 LINE",
"170 258 LINE",
"170 0 LINE"
);
},
{
closed = 1;
nodes = (
"64 0 LINE",
"64 258 LINE",
"0 258 LINE",
"0 0 LINE"
);
}
);
width = 284;
}
);
unicode = 16F7B;
category = Letter;
},
{
glyphname = u16F7C;
lastChange = "2019-09-10 21:03:33 +0000";
layers = (
{
layerId = UUID0;
paths = (
{
closed = 1;
nodes = (
"278 -114 LINE",
"278 125 LINE SMOOTH",
"278 201 OFFCURVE",
"214 261 OFFCURVE",
"139 261 CURVE SMOOTH",
"64 261 OFFCURVE",
"0 201 OFFCURVE",
"0 125 CURVE SMOOTH",
"0 50 OFFCURVE",
"64 -10 OFFCURVE",
"139 -10 CURVE SMOOTH",
"166 -10 OFFCURVE",
"192 2 OFFCURVE",
"214 22 CURVE",
"214 -114 LINE"
);
},
{
closed = 1;
nodes = (
"99 54 OFFCURVE",
"68 84 OFFCURVE",
"68 125 CURVE SMOOTH",
"68 168 OFFCURVE",
"99 197 OFFCURVE",
"139 197 CURVE SMOOTH",
"180 197 OFFCURVE",
"210 169 OFFCURVE",
"210 125 CURVE SMOOTH",
"210 84 OFFCURVE",
"180 54 OFFCURVE",
"139 54 CURVE SMOOTH"
);
}
);
width = 328;
}
);
unicode = 16F7C;
category = Letter;
},
{
glyphname = u16F7D;
lastChange = "2019-09-10 21:03:33 +0000";
layers = (
{
layerId = UUID0;
paths = (
{
closed = 1;
nodes = (
"213 -10 OFFCURVE",
"277 50 OFFCURVE",
"277 125 CURVE",
"209 125 LINE",
"209 84 OFFCURVE",
"179 54 OFFCURVE",
"138 54 CURVE SMOOTH",
"98 54 OFFCURVE",
"68 84 OFFCURVE",
"68 125 CURVE SMOOTH",
"68 168 OFFCURVE",
"78 208 OFFCURVE",
"141 231 CURVE",
"125 288 LINE",
"47 272 OFFCURVE",
"0 203 OFFCURVE",
"0 120 CURVE SMOOTH",
"0 42 OFFCURVE",
"63 -10 OFFCURVE",
"138 -10 CURVE SMOOTH"
);
}
);
width = 327;
}
);
unicode = 16F7D;
category = Letter;
},
{
glyphname = u16F7E;
lastChange = "2019-09-10 21:03:33 +0000";
layers = (
{
layerId = UUID0;
paths = (
{
closed = 1;
nodes = (
"208 -10 OFFCURVE",
"269 26 OFFCURVE",
"269 78 CURVE SMOOTH",
"269 129 OFFCURVE",
"210 169 OFFCURVE",
"137 169 CURVE SMOOTH",
"114 169 OFFCURVE",
"91 165 OFFCURVE",
"72 158 CURVE",
"78 191 OFFCURVE",
"92 220 OFFCURVE",
"137 231 CURVE",
"121 288 LINE",
"15 264 OFFCURVE",
"0 171 OFFCURVE",
"0 120 CURVE SMOOTH",
"0 22 OFFCURVE",
"62 -10 OFFCURVE",
"135 -10 CURVE SMOOTH"
);
},
{
closed = 1;
nodes = (
"96 42 OFFCURVE",
"66 56 OFFCURVE",
"66 80 CURVE SMOOTH",
"66 102 OFFCURVE",
"96 117 OFFCURVE",
"135 117 CURVE SMOOTH",
"172 117 OFFCURVE",
"203 102 OFFCURVE",
"203 80 CURVE SMOOTH",
"203 57 OFFCURVE",
"172 42 OFFCURVE",
"135 42 CURVE SMOOTH"
);
}
);
width = 319;
}
);
unicode = 16F7E;
category = Letter;
},
{
glyphname = u16F8F;
lastChange = "2019-09-10 21:03:33 +0000";
layers = (
{
layerId = UUID0;
paths = (
{
closed = 1;
nodes = (
"646 262 LINE",
"646 395 LINE",
"694 395 LINE",
"694 429 LINE",
"558 429 LINE",
"558 395 LINE",
"606 395 LINE",
"606 262 LINE"
);
},
{
closed = 1;
nodes = (
"164 0 LINE",
"164 42 LINE",
"91 42 LINE",
"91 114 LINE",
"50 114 LINE",
"50 0 LINE"
);
},
{
closed = 1;
nodes = (
"312 0 LINE",
"312 42 LINE",
"209 42 LINE",
"209 0 LINE"
);
},
{
closed = 1;
nodes = (
"91 160 LINE",
"91 262 LINE",
"50 262 LINE",
"50 160 LINE"
);
},
{
closed = 1;
nodes = (
"91 307 LINE",
"91 409 LINE",
"50 409 LINE",
"50 307 LINE"
);
},
{
closed = 1;
nodes = (
"479 0 LINE",
"479 42 LINE",
"357 42 LINE",
"357 0 LINE"
);
},
{
closed = 1;
nodes = (
"224 236 OFFCURVE",
"230 243 OFFCURVE",
"230 253 CURVE SMOOTH",
"230 262 OFFCURVE",
"224 269 OFFCURVE",
"214 269 CURVE SMOOTH",
"204 269 OFFCURVE",
"197 262 OFFCURVE",
"197 253 CURVE SMOOTH",
"197 243 OFFCURVE",
"204 236 OFFCURVE",
"214 236 CURVE SMOOTH"
);
},
{
closed = 1;
nodes = (
"274 204 OFFCURVE",
"280 211 OFFCURVE",
"280 221 CURVE SMOOTH",
"280 230 OFFCURVE",
"274 237 OFFCURVE",
"264 237 CURVE SMOOTH",
"254 237 OFFCURVE",
"247 230 OFFCURVE",
"247 221 CURVE SMOOTH",
"247 211 OFFCURVE",
"254 204 OFFCURVE",
"264 204 CURVE SMOOTH"
);
},
{
closed = 1;
nodes = (
"192 286 OFFCURVE",
"198 293 OFFCURVE",
"198 303 CURVE SMOOTH",
"198 312 OFFCURVE",
"192 319 OFFCURVE",
"182 319 CURVE SMOOTH",
"172 319 OFFCURVE",
"165 312 OFFCURVE",
"165 303 CURVE SMOOTH",
"165 293 OFFCURVE",
"172 286 OFFCURVE",
"182 286 CURVE SMOOTH"
);
},
{
closed = 1;
nodes = (
"180 344 OFFCURVE",
"186 351 OFFCURVE",
"186 361 CURVE SMOOTH",
"186 370 OFFCURVE",
"180 377 OFFCURVE",
"170 377 CURVE SMOOTH",
"160 377 OFFCURVE",
"153 370 OFFCURVE",
"153 361 CURVE SMOOTH",
"153 351 OFFCURVE",
"160 344 OFFCURVE",
"170 344 CURVE SMOOTH"
);
},
{
closed = 1;
nodes = (
"332 192 OFFCURVE",
"338 199 OFFCURVE",
"338 209 CURVE SMOOTH",
"338 218 OFFCURVE",
"332 225 OFFCURVE",
"322 225 CURVE SMOOTH",
"312 225 OFFCURVE",
"305 218 OFFCURVE",
"305 209 CURVE SMOOTH",
"305 199 OFFCURVE",
"312 192 OFFCURVE",
"322 192 CURVE SMOOTH"
);
},
{
closed = 1;
nodes = (
"91 455 LINE",
"91 557 LINE",
"50 557 LINE",
"50 455 LINE"
);
},
{
closed = 1;
nodes = (
"625 0 LINE",
"625 42 LINE",
"522 42 LINE",
"522 0 LINE"
);
},
{
closed = 1;
nodes = (
"390 203 OFFCURVE",
"396 210 OFFCURVE",
"396 220 CURVE SMOOTH",
"396 229 OFFCURVE",
"390 236 OFFCURVE",
"380 236 CURVE SMOOTH",
"370 236 OFFCURVE",
"363 229 OFFCURVE",
"363 220 CURVE SMOOTH",
"363 210 OFFCURVE",
"370 203 OFFCURVE",
"380 203 CURVE SMOOTH"
);
},
{
closed = 1;
nodes = (
"192 401 OFFCURVE",
"198 408 OFFCURVE",
"198 418 CURVE SMOOTH",
"198 427 OFFCURVE",
"192 434 OFFCURVE",
"182 434 CURVE SMOOTH",
"172 434 OFFCURVE",
"165 427 OFFCURVE",
"165 418 CURVE SMOOTH",
"165 408 OFFCURVE",
"172 401 OFFCURVE",
"182 401 CURVE SMOOTH"
);
},
{
closed = 1;
nodes = (
"439 236 OFFCURVE",
"445 243 OFFCURVE",
"445 253 CURVE SMOOTH",
"445 262 OFFCURVE",
"439 269 OFFCURVE",
"429 269 CURVE SMOOTH",
"419 269 OFFCURVE",
"412 262 OFFCURVE",
"412 253 CURVE SMOOTH",
"412 243 OFFCURVE",
"419 236 OFFCURVE",
"429 236 CURVE SMOOTH"
);
},
{
closed = 1;
nodes = (
"224 452 OFFCURVE",
"230 459 OFFCURVE",
"230 469 CURVE SMOOTH",
"230 478 OFFCURVE",
"224 485 OFFCURVE",
"214 485 CURVE SMOOTH",
"204 485 OFFCURVE",
"197 478 OFFCURVE",
"197 469 CURVE SMOOTH",
"197 459 OFFCURVE",
"204 452 OFFCURVE",
"214 452 CURVE SMOOTH"
);
},
{
closed = 1;
nodes = (
"472 286 OFFCURVE",
"478 293 OFFCURVE",
"478 303 CURVE SMOOTH",
"478 312 OFFCURVE",
"472 319 OFFCURVE",
"462 319 CURVE SMOOTH",
"452 319 OFFCURVE",
"445 312 OFFCURVE",
"445 303 CURVE SMOOTH",
"445 293 OFFCURVE",
"452 286 OFFCURVE",
"462 286 CURVE SMOOTH"
);
},
{
closed = 1;
nodes = (
"274 484 OFFCURVE",
"280 491 OFFCURVE",
"280 501 CURVE SMOOTH",
"280 510 OFFCURVE",
"274 517 OFFCURVE",
"264 517 CURVE SMOOTH",
"254 517 OFFCURVE",
"247 510 OFFCURVE",
"247 501 CURVE SMOOTH",
"247 491 OFFCURVE",
"254 484 OFFCURVE",
"264 484 CURVE SMOOTH"
);
},
{
closed = 1;
nodes = (
"91 602 LINE",
"91 676 LINE",
"164 676 LINE",
"164 717 LINE",
"50 717 LINE",
"50 602 LINE"
);
},
{
closed = 1;
nodes = (
"784 0 LINE",
"784 114 LINE",
"743 114 LINE",
"743 42 LINE",
"670 42 LINE",
"670 0 LINE"
);
},
{
closed = 1;
nodes = (
"484 344 OFFCURVE",
"490 351 OFFCURVE",
"490 361 CURVE SMOOTH",
"490 370 OFFCURVE",
"484 377 OFFCURVE",
"474 377 CURVE SMOOTH",
"464 377 OFFCURVE",
"457 370 OFFCURVE",
"457 361 CURVE SMOOTH",
"457 351 OFFCURVE",
"464 344 OFFCURVE",
"474 344 CURVE SMOOTH"
);
},
{
closed = 1;
nodes = (
"332 496 OFFCURVE",
"338 503 OFFCURVE",
"338 513 CURVE SMOOTH",
"338 522 OFFCURVE",
"332 529 OFFCURVE",
"322 529 CURVE SMOOTH",
"312 529 OFFCURVE",
"305 522 OFFCURVE",
"305 513 CURVE SMOOTH",
"305 503 OFFCURVE",
"312 496 OFFCURVE",
"322 496 CURVE SMOOTH"
);
},
{
closed = 1;
nodes = (
"472 401 OFFCURVE",
"478 408 OFFCURVE",
"478 418 CURVE SMOOTH",
"478 427 OFFCURVE",
"472 434 OFFCURVE",
"462 434 CURVE SMOOTH",
"452 434 OFFCURVE",
"445 427 OFFCURVE",
"445 418 CURVE SMOOTH",
"445 408 OFFCURVE",
"452 401 OFFCURVE",
"462 401 CURVE SMOOTH"
);
},
{
closed = 1;
nodes = (
"390 484 OFFCURVE",
"396 491 OFFCURVE",
"396 501 CURVE SMOOTH",
"396 510 OFFCURVE",
"390 517 OFFCURVE",
"380 517 CURVE SMOOTH",
"370 517 OFFCURVE",
"363 510 OFFCURVE",
"363 501 CURVE SMOOTH",
"363 491 OFFCURVE",
"370 484 OFFCURVE",
"380 484 CURVE SMOOTH"
);
},
{
closed = 1;
nodes = (
"439 451 OFFCURVE",
"445 458 OFFCURVE",
"445 468 CURVE SMOOTH",
"445 477 OFFCURVE",
"439 484 OFFCURVE",
"429 484 CURVE SMOOTH",
"419 484 OFFCURVE",
"412 477 OFFCURVE",
"412 468 CURVE SMOOTH",
"412 458 OFFCURVE",
"419 451 OFFCURVE",
"429 451 CURVE SMOOTH"
);
},
{
closed = 1;
nodes = (
"312 676 LINE",
"312 717 LINE",
"209 717 LINE",
"209 676 LINE"
);
},
{
closed = 1;
nodes = (
"784 160 LINE",
"784 262 LINE",
"743 262 LINE",
"743 160 LINE"
);
},
{
closed = 1;
nodes = (
"479 676 LINE",
"479 717 LINE",
"357 717 LINE",
"357 676 LINE"
);
},
{
closed = 1;
nodes = (
"784 307 LINE",
"784 409 LINE",
"743 409 LINE",
"743 307 LINE"
);
},
{
closed = 1;
nodes = (
"784 455 LINE",
"784 557 LINE",
"743 557 LINE",
"743 455 LINE"
);
},
{
closed = 1;
nodes = (
"625 676 LINE",
"625 717 LINE",
"522 717 LINE",
"522 676 LINE"
);
},
{
closed = 1;
nodes = (
"784 602 LINE",
"784 717 LINE",
"670 717 LINE",
"670 676 LINE",
"743 676 LINE",
"743 602 LINE"
);
}
);
width = 834;
}
);
unicode = 16F8F;
category = Letter;
},
{
glyphname = u16F90;
lastChange = "2019-09-10 21:03:33 +0000";
layers = (
{
layerId = UUID0;
paths = (
{
closed = 1;
nodes = (
"616 462 LINE",
"616 595 LINE",
"664 595 LINE",
"664 629 LINE",
"528 629 LINE",
"528 595 LINE",
"576 595 LINE",
"576 462 LINE"
);
},
{
closed = 1;
nodes = (
"164 0 LINE",
"164 42 LINE",
"91 42 LINE",
"91 114 LINE",
"50 114 LINE",
"50 0 LINE"
);
},
{
closed = 1;
nodes = (
"312 0 LINE",
"312 42 LINE",
"209 42 LINE",
"209 0 LINE"
);
},
{
closed = 1;
nodes = (
"91 160 LINE",
"91 262 LINE",
"50 262 LINE",
"50 160 LINE"
);
},
{
closed = 1;
nodes = (
"91 307 LINE",
"91 409 LINE",
"50 409 LINE",
"50 307 LINE"
);
},
{
closed = 1;
nodes = (
"479 0 LINE",
"479 42 LINE",
"357 42 LINE",
"357 0 LINE"
);
},
{
closed = 1;
nodes = (
"224 236 OFFCURVE",
"230 243 OFFCURVE",
"230 253 CURVE SMOOTH",
"230 262 OFFCURVE",
"224 269 OFFCURVE",
"214 269 CURVE SMOOTH",
"204 269 OFFCURVE",
"197 262 OFFCURVE",
"197 253 CURVE SMOOTH",
"197 243 OFFCURVE",
"204 236 OFFCURVE",
"214 236 CURVE SMOOTH"
);
},
{
closed = 1;
nodes = (
"274 204 OFFCURVE",
"280 211 OFFCURVE",
"280 221 CURVE SMOOTH",
"280 230 OFFCURVE",
"274 237 OFFCURVE",
"264 237 CURVE SMOOTH",
"254 237 OFFCURVE",
"247 230 OFFCURVE",
"247 221 CURVE SMOOTH",
"247 211 OFFCURVE",
"254 204 OFFCURVE",
"264 204 CURVE SMOOTH"
);
},
{
closed = 1;
nodes = (
"192 286 OFFCURVE",
"198 293 OFFCURVE",
"198 303 CURVE SMOOTH",
"198 312 OFFCURVE",
"192 319 OFFCURVE",
"182 319 CURVE SMOOTH",
"172 319 OFFCURVE",
"165 312 OFFCURVE",
"165 303 CURVE SMOOTH",
"165 293 OFFCURVE",
"172 286 OFFCURVE",
"182 286 CURVE SMOOTH"
);
},
{
closed = 1;
nodes = (
"180 344 OFFCURVE",
"186 351 OFFCURVE",
"186 361 CURVE SMOOTH",
"186 370 OFFCURVE",
"180 377 OFFCURVE",
"170 377 CURVE SMOOTH",
"160 377 OFFCURVE",
"153 370 OFFCURVE",
"153 361 CURVE SMOOTH",
"153 351 OFFCURVE",
"160 344 OFFCURVE",
"170 344 CURVE SMOOTH"
);
},
{
closed = 1;
nodes = (
"332 192 OFFCURVE",
"338 199 OFFCURVE",
"338 209 CURVE SMOOTH",
"338 218 OFFCURVE",
"332 225 OFFCURVE",
"322 225 CURVE SMOOTH",
"312 225 OFFCURVE",
"305 218 OFFCURVE",
"305 209 CURVE SMOOTH",
"305 199 OFFCURVE",
"312 192 OFFCURVE",
"322 192 CURVE SMOOTH"
);
},
{
closed = 1;
nodes = (
"91 455 LINE",
"91 557 LINE",
"50 557 LINE",
"50 455 LINE"
);
},
{
closed = 1;
nodes = (
"625 0 LINE",
"625 42 LINE",
"522 42 LINE",
"522 0 LINE"
);
},
{
closed = 1;
nodes = (
"390 203 OFFCURVE",
"396 210 OFFCURVE",
"396 220 CURVE SMOOTH",
"396 229 OFFCURVE",
"390 236 OFFCURVE",
"380 236 CURVE SMOOTH",
"370 236 OFFCURVE",
"363 229 OFFCURVE",
"363 220 CURVE SMOOTH",
"363 210 OFFCURVE",
"370 203 OFFCURVE",
"380 203 CURVE SMOOTH"
);
},
{
closed = 1;
nodes = (
"192 401 OFFCURVE",
"198 408 OFFCURVE",
"198 418 CURVE SMOOTH",
"198 427 OFFCURVE",
"192 434 OFFCURVE",
"182 434 CURVE SMOOTH",
"172 434 OFFCURVE",
"165 427 OFFCURVE",
"165 418 CURVE SMOOTH",
"165 408 OFFCURVE",
"172 401 OFFCURVE",
"182 401 CURVE SMOOTH"
);
},
{
closed = 1;
nodes = (
"439 236 OFFCURVE",
"445 243 OFFCURVE",
"445 253 CURVE SMOOTH",
"445 262 OFFCURVE",
"439 269 OFFCURVE",
"429 269 CURVE SMOOTH",
"419 269 OFFCURVE",
"412 262 OFFCURVE",
"412 253 CURVE SMOOTH",
"412 243 OFFCURVE",
"419 236 OFFCURVE",
"429 236 CURVE SMOOTH"
);
},
{
closed = 1;
nodes = (
"224 452 OFFCURVE",
"230 459 OFFCURVE",
"230 469 CURVE SMOOTH",
"230 478 OFFCURVE",
"224 485 OFFCURVE",
"214 485 CURVE SMOOTH",
"204 485 OFFCURVE",
"197 478 OFFCURVE",
"197 469 CURVE SMOOTH",
"197 459 OFFCURVE",
"204 452 OFFCURVE",
"214 452 CURVE SMOOTH"
);
},
{
closed = 1;
nodes = (
"472 286 OFFCURVE",
"478 293 OFFCURVE",
"478 303 CURVE SMOOTH",
"478 312 OFFCURVE",
"472 319 OFFCURVE",
"462 319 CURVE SMOOTH",
"452 319 OFFCURVE",
"445 312 OFFCURVE",
"445 303 CURVE SMOOTH",
"445 293 OFFCURVE",
"452 286 OFFCURVE",
"462 286 CURVE SMOOTH"
);
},
{
closed = 1;
nodes = (
"274 484 OFFCURVE",
"280 491 OFFCURVE",
"280 501 CURVE SMOOTH",
"280 510 OFFCURVE",
"274 517 OFFCURVE",
"264 517 CURVE SMOOTH",
"254 517 OFFCURVE",
"247 510 OFFCURVE",
"247 501 CURVE SMOOTH",
"247 491 OFFCURVE",
"254 484 OFFCURVE",
"264 484 CURVE SMOOTH"
);
},
{
closed = 1;
nodes = (
"91 602 LINE",
"91 676 LINE",
"164 676 LINE",
"164 717 LINE",
"50 717 LINE",
"50 602 LINE"
);
},
{
closed = 1;
nodes = (
"784 0 LINE",
"784 114 LINE",
"743 114 LINE",
"743 42 LINE",
"670 42 LINE",
"670 0 LINE"
);
},
{
closed = 1;
nodes = (
"484 344 OFFCURVE",
"490 351 OFFCURVE",
"490 361 CURVE SMOOTH",
"490 370 OFFCURVE",
"484 377 OFFCURVE",
"474 377 CURVE SMOOTH",
"464 377 OFFCURVE",
"457 370 OFFCURVE",
"457 361 CURVE SMOOTH",
"457 351 OFFCURVE",
"464 344 OFFCURVE",
"474 344 CURVE SMOOTH"
);
},
{
closed = 1;
nodes = (
"332 496 OFFCURVE",
"338 503 OFFCURVE",
"338 513 CURVE SMOOTH",
"338 522 OFFCURVE",
"332 529 OFFCURVE",
"322 529 CURVE SMOOTH",
"312 529 OFFCURVE",
"305 522 OFFCURVE",
"305 513 CURVE SMOOTH",
"305 503 OFFCURVE",
"312 496 OFFCURVE",
"322 496 CURVE SMOOTH"
);
},
{
closed = 1;
nodes = (
"472 401 OFFCURVE",
"478 408 OFFCURVE",
"478 418 CURVE SMOOTH",
"478 427 OFFCURVE",
"472 434 OFFCURVE",
"462 434 CURVE SMOOTH",
"452 434 OFFCURVE",
"445 427 OFFCURVE",
"445 418 CURVE SMOOTH",
"445 408 OFFCURVE",
"452 401 OFFCURVE",
"462 401 CURVE SMOOTH"
);
},
{
closed = 1;
nodes = (
"390 484 OFFCURVE",
"396 491 OFFCURVE",
"396 501 CURVE SMOOTH",
"396 510 OFFCURVE",
"390 517 OFFCURVE",
"380 517 CURVE SMOOTH",
"370 517 OFFCURVE",
"363 510 OFFCURVE",
"363 501 CURVE SMOOTH",
"363 491 OFFCURVE",
"370 484 OFFCURVE",
"380 484 CURVE SMOOTH"
);
},
{
closed = 1;
nodes = (
"439 451 OFFCURVE",
"445 458 OFFCURVE",
"445 468 CURVE SMOOTH",
"445 477 OFFCURVE",
"439 484 OFFCURVE",
"429 484 CURVE SMOOTH",
"419 484 OFFCURVE",
"412 477 OFFCURVE",
"412 468 CURVE SMOOTH",
"412 458 OFFCURVE",
"419 451 OFFCURVE",
"429 451 CURVE SMOOTH"
);
},
{
closed = 1;
nodes = (
"312 676 LINE",
"312 717 LINE",
"209 717 LINE",
"209 676 LINE"
);
},
{
closed = 1;
nodes = (
"784 160 LINE",
"784 262 LINE",
"743 262 LINE",
"743 160 LINE"
);
},
{
closed = 1;
nodes = (
"479 676 LINE",
"479 717 LINE",
"357 717 LINE",
"357 676 LINE"
);
},
{
closed = 1;
nodes = (
"784 307 LINE",
"784 409 LINE",
"743 409 LINE",
"743 307 LINE"
);
},
{
closed = 1;
nodes = (
"784 455 LINE",
"784 557 LINE",
"743 557 LINE",
"743 455 LINE"
);
},
{
closed = 1;
nodes = (
"625 676 LINE",
"625 717 LINE",
"522 717 LINE",
"522 676 LINE"
);
},
{
closed = 1;
nodes = (
"784 602 LINE",
"784 717 LINE",
"670 717 LINE",
"670 676 LINE",
"743 676 LINE",
"743 602 LINE"
);
}
);
width = 834;
}
);
unicode = 16F90;
category = Letter;
},
{
glyphname = u16F91;
lastChange = "2019-09-10 21:03:33 +0000";
layers = (
{
layerId = UUID0;
paths = (
{
closed = 1;
nodes = (
"441 467 LINE",
"441 600 LINE",
"489 600 LINE",
"489 634 LINE",
"353 634 LINE",
"353 600 LINE",
"401 600 LINE",
"401 467 LINE"
);
},
{
closed = 1;
nodes = (
"164 0 LINE",
"164 42 LINE",
"91 42 LINE",
"91 114 LINE",
"50 114 LINE",
"50 0 LINE"
);
},
{
closed = 1;
nodes = (
"312 0 LINE",
"312 42 LINE",
"209 42 LINE",
"209 0 LINE"
);
},
{
closed = 1;
nodes = (
"91 160 LINE",
"91 262 LINE",
"50 262 LINE",
"50 160 LINE"
);
},
{
closed = 1;
nodes = (
"91 307 LINE",
"91 409 LINE",
"50 409 LINE",
"50 307 LINE"
);
},
{
closed = 1;
nodes = (
"479 0 LINE",
"479 42 LINE",
"357 42 LINE",
"357 0 LINE"
);
},
{
closed = 1;
nodes = (
"324 136 OFFCURVE",
"330 143 OFFCURVE",
"330 153 CURVE SMOOTH",
"330 162 OFFCURVE",
"324 169 OFFCURVE",
"314 169 CURVE SMOOTH",
"304 169 OFFCURVE",
"297 162 OFFCURVE",
"297 153 CURVE SMOOTH",
"297 143 OFFCURVE",
"304 136 OFFCURVE",
"314 136 CURVE SMOOTH"
);
},
{
closed = 1;
nodes = (
"374 104 OFFCURVE",
"380 111 OFFCURVE",
"380 121 CURVE SMOOTH",
"380 130 OFFCURVE",
"374 137 OFFCURVE",
"364 137 CURVE SMOOTH",
"354 137 OFFCURVE",
"347 130 OFFCURVE",
"347 121 CURVE SMOOTH",
"347 111 OFFCURVE",
"354 104 OFFCURVE",
"364 104 CURVE SMOOTH"
);
},
{
closed = 1;
nodes = (
"292 186 OFFCURVE",
"298 193 OFFCURVE",
"298 203 CURVE SMOOTH",
"298 212 OFFCURVE",
"292 219 OFFCURVE",
"282 219 CURVE SMOOTH",
"272 219 OFFCURVE",
"265 212 OFFCURVE",
"265 203 CURVE SMOOTH",
"265 193 OFFCURVE",
"272 186 OFFCURVE",
"282 186 CURVE SMOOTH"
);
},
{
closed = 1;
nodes = (
"280 244 OFFCURVE",
"286 251 OFFCURVE",
"286 261 CURVE SMOOTH",
"286 270 OFFCURVE",
"280 277 OFFCURVE",
"270 277 CURVE SMOOTH",
"260 277 OFFCURVE",
"253 270 OFFCURVE",
"253 261 CURVE SMOOTH",
"253 251 OFFCURVE",
"260 244 OFFCURVE",
"270 244 CURVE SMOOTH"
);
},
{
closed = 1;
nodes = (
"432 92 OFFCURVE",
"438 99 OFFCURVE",
"438 109 CURVE SMOOTH",
"438 118 OFFCURVE",
"432 125 OFFCURVE",
"422 125 CURVE SMOOTH",
"412 125 OFFCURVE",
"405 118 OFFCURVE",
"405 109 CURVE SMOOTH",
"405 99 OFFCURVE",
"412 92 OFFCURVE",
"422 92 CURVE SMOOTH"
);
},
{
closed = 1;
nodes = (
"91 455 LINE",
"91 557 LINE",
"50 557 LINE",
"50 455 LINE"
);
},
{
closed = 1;
nodes = (
"625 0 LINE",
"625 42 LINE",
"522 42 LINE",
"522 0 LINE"
);
},
{
closed = 1;
nodes = (
"490 103 OFFCURVE",
"496 110 OFFCURVE",
"496 120 CURVE SMOOTH",
"496 129 OFFCURVE",
"490 136 OFFCURVE",
"480 136 CURVE SMOOTH",
"470 136 OFFCURVE",
"463 129 OFFCURVE",
"463 120 CURVE SMOOTH",
"463 110 OFFCURVE",
"470 103 OFFCURVE",
"480 103 CURVE SMOOTH"
);
},
{
closed = 1;
nodes = (
"292 301 OFFCURVE",
"298 308 OFFCURVE",
"298 318 CURVE SMOOTH",
"298 327 OFFCURVE",
"292 334 OFFCURVE",
"282 334 CURVE SMOOTH",
"272 334 OFFCURVE",
"265 327 OFFCURVE",
"265 318 CURVE SMOOTH",
"265 308 OFFCURVE",
"272 301 OFFCURVE",
"282 301 CURVE SMOOTH"
);
},
{
closed = 1;
nodes = (
"539 136 OFFCURVE",
"545 143 OFFCURVE",
"545 153 CURVE SMOOTH",
"545 162 OFFCURVE",
"539 169 OFFCURVE",
"529 169 CURVE SMOOTH",
"519 169 OFFCURVE",
"512 162 OFFCURVE",
"512 153 CURVE SMOOTH",
"512 143 OFFCURVE",
"519 136 OFFCURVE",
"529 136 CURVE SMOOTH"
);
},
{
closed = 1;
nodes = (
"324 352 OFFCURVE",
"330 359 OFFCURVE",
"330 369 CURVE SMOOTH",
"330 378 OFFCURVE",
"324 385 OFFCURVE",
"314 385 CURVE SMOOTH",
"304 385 OFFCURVE",
"297 378 OFFCURVE",
"297 369 CURVE SMOOTH",
"297 359 OFFCURVE",
"304 352 OFFCURVE",
"314 352 CURVE SMOOTH"
);
},
{
closed = 1;
nodes = (
"572 186 OFFCURVE",
"578 193 OFFCURVE",
"578 203 CURVE SMOOTH",
"578 212 OFFCURVE",
"572 219 OFFCURVE",
"562 219 CURVE SMOOTH",
"552 219 OFFCURVE",
"545 212 OFFCURVE",
"545 203 CURVE SMOOTH",
"545 193 OFFCURVE",
"552 186 OFFCURVE",
"562 186 CURVE SMOOTH"
);
},
{
closed = 1;
nodes = (
"374 384 OFFCURVE",
"380 391 OFFCURVE",
"380 401 CURVE SMOOTH",
"380 410 OFFCURVE",
"374 417 OFFCURVE",
"364 417 CURVE SMOOTH",
"354 417 OFFCURVE",
"347 410 OFFCURVE",
"347 401 CURVE SMOOTH",
"347 391 OFFCURVE",
"354 384 OFFCURVE",
"364 384 CURVE SMOOTH"
);
},
{
closed = 1;
nodes = (
"91 602 LINE",
"91 676 LINE",
"164 676 LINE",
"164 717 LINE",
"50 717 LINE",
"50 602 LINE"
);
},
{
closed = 1;
nodes = (
"784 0 LINE",
"784 114 LINE",
"743 114 LINE",
"743 42 LINE",
"670 42 LINE",
"670 0 LINE"
);
},
{
closed = 1;
nodes = (
"584 244 OFFCURVE",
"590 251 OFFCURVE",
"590 261 CURVE SMOOTH",
"590 270 OFFCURVE",
"584 277 OFFCURVE",
"574 277 CURVE SMOOTH",
"564 277 OFFCURVE",
"557 270 OFFCURVE",
"557 261 CURVE SMOOTH",
"557 251 OFFCURVE",
"564 244 OFFCURVE",
"574 244 CURVE SMOOTH"
);
},
{
closed = 1;
nodes = (
"432 396 OFFCURVE",
"438 403 OFFCURVE",
"438 413 CURVE SMOOTH",
"438 422 OFFCURVE",
"432 429 OFFCURVE",
"422 429 CURVE SMOOTH",
"412 429 OFFCURVE",
"405 422 OFFCURVE",
"405 413 CURVE SMOOTH",
"405 403 OFFCURVE",
"412 396 OFFCURVE",
"422 396 CURVE SMOOTH"
);
},
{
closed = 1;
nodes = (
"572 301 OFFCURVE",
"578 308 OFFCURVE",
"578 318 CURVE SMOOTH",
"578 327 OFFCURVE",
"572 334 OFFCURVE",
"562 334 CURVE SMOOTH",
"552 334 OFFCURVE",
"545 327 OFFCURVE",
"545 318 CURVE SMOOTH",
"545 308 OFFCURVE",
"552 301 OFFCURVE",
"562 301 CURVE SMOOTH"
);
},
{
closed = 1;
nodes = (
"490 384 OFFCURVE",
"496 391 OFFCURVE",
"496 401 CURVE SMOOTH",
"496 410 OFFCURVE",
"490 417 OFFCURVE",
"480 417 CURVE SMOOTH",
"470 417 OFFCURVE",
"463 410 OFFCURVE",
"463 401 CURVE SMOOTH",
"463 391 OFFCURVE",
"470 384 OFFCURVE",
"480 384 CURVE SMOOTH"
);
},
{
closed = 1;
nodes = (
"539 351 OFFCURVE",
"545 358 OFFCURVE",
"545 368 CURVE SMOOTH",
"545 377 OFFCURVE",
"539 384 OFFCURVE",
"529 384 CURVE SMOOTH",
"519 384 OFFCURVE",
"512 377 OFFCURVE",
"512 368 CURVE SMOOTH",
"512 358 OFFCURVE",
"519 351 OFFCURVE",
"529 351 CURVE SMOOTH"
);
},
{
closed = 1;
nodes = (
"312 676 LINE",
"312 717 LINE",
"209 717 LINE",
"209 676 LINE"
);
},
{
closed = 1;
nodes = (
"784 160 LINE",
"784 262 LINE",
"743 262 LINE",
"743 160 LINE"
);
},
{
closed = 1;
nodes = (
"479 676 LINE",
"479 717 LINE",
"357 717 LINE",
"357 676 LINE"
);
},
{
closed = 1;
nodes = (
"784 307 LINE",
"784 409 LINE",
"743 409 LINE",
"743 307 LINE"
);
},
{
closed = 1;
nodes = (
"784 455 LINE",
"784 557 LINE",
"743 557 LINE",
"743 455 LINE"
);
},
{
closed = 1;
nodes = (
"625 676 LINE",
"625 717 LINE",
"522 717 LINE",
"522 676 LINE"
);
},
{
closed = 1;
nodes = (
"784 602 LINE",
"784 717 LINE",
"670 717 LINE",
"670 676 LINE",
"743 676 LINE",
"743 602 LINE"
);
}
);
width = 834;
}
);
unicode = 16F91;
category = Letter;
},
{
glyphname = u16F92;
lastChange = "2019-09-10 21:03:33 +0000";
layers = (
{
layerId = UUID0;
paths = (
{
closed = 1;
nodes = (
"441 77 LINE",
"441 210 LINE",
"489 210 LINE",
"489 244 LINE",
"353 244 LINE",
"353 210 LINE",
"401 210 LINE",
"401 77 LINE"
);
},
{
closed = 1;
nodes = (
"164 0 LINE",
"164 42 LINE",
"91 42 LINE",
"91 114 LINE",
"50 114 LINE",
"50 0 LINE"
);
},
{
closed = 1;
nodes = (
"312 0 LINE",
"312 42 LINE",
"209 42 LINE",
"209 0 LINE"
);
},
{
closed = 1;
nodes = (
"91 160 LINE",
"91 262 LINE",
"50 262 LINE",
"50 160 LINE"
);
},
{
closed = 1;
nodes = (
"91 307 LINE",
"91 409 LINE",
"50 409 LINE",
"50 307 LINE"
);
},
{
closed = 1;
nodes = (
"479 0 LINE",
"479 42 LINE",
"357 42 LINE",
"357 0 LINE"
);
},
{
closed = 1;
nodes = (
"91 455 LINE",
"91 557 LINE",
"50 557 LINE",
"50 455 LINE"
);
},
{
closed = 1;
nodes = (
"625 0 LINE",
"625 42 LINE",
"522 42 LINE",
"522 0 LINE"
);
},
{
closed = 1;
nodes = (
"324 316 OFFCURVE",
"330 323 OFFCURVE",
"330 333 CURVE SMOOTH",
"330 342 OFFCURVE",
"324 349 OFFCURVE",
"314 349 CURVE SMOOTH",
"304 349 OFFCURVE",
"297 342 OFFCURVE",
"297 333 CURVE SMOOTH",
"297 323 OFFCURVE",
"304 316 OFFCURVE",
"314 316 CURVE SMOOTH"
);
},
{
closed = 1;
nodes = (
"374 284 OFFCURVE",
"380 291 OFFCURVE",
"380 301 CURVE SMOOTH",
"380 310 OFFCURVE",
"374 317 OFFCURVE",
"364 317 CURVE SMOOTH",
"354 317 OFFCURVE",
"347 310 OFFCURVE",
"347 301 CURVE SMOOTH",
"347 291 OFFCURVE",
"354 284 OFFCURVE",
"364 284 CURVE SMOOTH"
);
},
{
closed = 1;
nodes = (
"292 366 OFFCURVE",
"298 373 OFFCURVE",
"298 383 CURVE SMOOTH",
"298 392 OFFCURVE",
"292 399 OFFCURVE",
"282 399 CURVE SMOOTH",
"272 399 OFFCURVE",
"265 392 OFFCURVE",
"265 383 CURVE SMOOTH",
"265 373 OFFCURVE",
"272 366 OFFCURVE",
"282 366 CURVE SMOOTH"
);
},
{
closed = 1;
nodes = (
"280 424 OFFCURVE",
"286 431 OFFCURVE",
"286 441 CURVE SMOOTH",
"286 450 OFFCURVE",
"280 457 OFFCURVE",
"270 457 CURVE SMOOTH",
"260 457 OFFCURVE",
"253 450 OFFCURVE",
"253 441 CURVE SMOOTH",
"253 431 OFFCURVE",
"260 424 OFFCURVE",
"270 424 CURVE SMOOTH"
);
},
{
closed = 1;
nodes = (
"432 272 OFFCURVE",
"438 279 OFFCURVE",
"438 289 CURVE SMOOTH",
"438 298 OFFCURVE",
"432 305 OFFCURVE",
"422 305 CURVE SMOOTH",
"412 305 OFFCURVE",
"405 298 OFFCURVE",
"405 289 CURVE SMOOTH",
"405 279 OFFCURVE",
"412 272 OFFCURVE",
"422 272 CURVE SMOOTH"
);
},
{
closed = 1;
nodes = (
"91 602 LINE",
"91 676 LINE",
"164 676 LINE",
"164 717 LINE",
"50 717 LINE",
"50 602 LINE"
);
},
{
closed = 1;
nodes = (
"490 283 OFFCURVE",
"496 290 OFFCURVE",
"496 300 CURVE SMOOTH",
"496 309 OFFCURVE",
"490 316 OFFCURVE",
"480 316 CURVE SMOOTH",
"470 316 OFFCURVE",
"463 309 OFFCURVE",
"463 300 CURVE SMOOTH",
"463 290 OFFCURVE",
"470 283 OFFCURVE",
"480 283 CURVE SMOOTH"
);
},
{
closed = 1;
nodes = (
"292 481 OFFCURVE",
"298 488 OFFCURVE",
"298 498 CURVE SMOOTH",
"298 507 OFFCURVE",
"292 514 OFFCURVE",
"282 514 CURVE SMOOTH",
"272 514 OFFCURVE",
"265 507 OFFCURVE",
"265 498 CURVE SMOOTH",
"265 488 OFFCURVE",
"272 481 OFFCURVE",
"282 481 CURVE SMOOTH"
);
},
{
closed = 1;
nodes = (
"784 0 LINE",
"784 114 LINE",
"743 114 LINE",
"743 42 LINE",
"670 42 LINE",
"670 0 LINE"
);
},
{
closed = 1;
nodes = (
"539 316 OFFCURVE",
"545 323 OFFCURVE",
"545 333 CURVE SMOOTH",
"545 342 OFFCURVE",
"539 349 OFFCURVE",
"529 349 CURVE SMOOTH",
"519 349 OFFCURVE",
"512 342 OFFCURVE",
"512 333 CURVE SMOOTH",
"512 323 OFFCURVE",
"519 316 OFFCURVE",
"529 316 CURVE SMOOTH"
);
},
{
closed = 1;
nodes = (
"324 532 OFFCURVE",
"330 539 OFFCURVE",
"330 549 CURVE SMOOTH",
"330 558 OFFCURVE",
"324 565 OFFCURVE",
"314 565 CURVE SMOOTH",
"304 565 OFFCURVE",
"297 558 OFFCURVE",
"297 549 CURVE SMOOTH",
"297 539 OFFCURVE",
"304 532 OFFCURVE",
"314 532 CURVE SMOOTH"
);
},
{
closed = 1;
nodes = (
"572 366 OFFCURVE",
"578 373 OFFCURVE",
"578 383 CURVE SMOOTH",
"578 392 OFFCURVE",
"572 399 OFFCURVE",
"562 399 CURVE SMOOTH",
"552 399 OFFCURVE",
"545 392 OFFCURVE",
"545 383 CURVE SMOOTH",
"545 373 OFFCURVE",
"552 366 OFFCURVE",
"562 366 CURVE SMOOTH"
);
},
{
closed = 1;
nodes = (
"374 564 OFFCURVE",
"380 571 OFFCURVE",
"380 581 CURVE SMOOTH",
"380 590 OFFCURVE",
"374 597 OFFCURVE",
"364 597 CURVE SMOOTH",
"354 597 OFFCURVE",
"347 590 OFFCURVE",
"347 581 CURVE SMOOTH",
"347 571 OFFCURVE",
"354 564 OFFCURVE",
"364 564 CURVE SMOOTH"
);
},
{
closed = 1;
nodes = (
"312 676 LINE",
"312 717 LINE",
"209 717 LINE",
"209 676 LINE"
);
},
{
closed = 1;
nodes = (
"784 160 LINE",
"784 262 LINE",
"743 262 LINE",
"743 160 LINE"
);
},
{
closed = 1;
nodes = (
"584 424 OFFCURVE",
"590 431 OFFCURVE",
"590 441 CURVE SMOOTH",
"590 450 OFFCURVE",
"584 457 OFFCURVE",
"574 457 CURVE SMOOTH",
"564 457 OFFCURVE",
"557 450 OFFCURVE",
"557 441 CURVE SMOOTH",
"557 431 OFFCURVE",
"564 424 OFFCURVE",
"574 424 CURVE SMOOTH"
);
},
{
closed = 1;
nodes = (
"432 576 OFFCURVE",
"438 583 OFFCURVE",
"438 593 CURVE SMOOTH",
"438 602 OFFCURVE",
"432 609 OFFCURVE",
"422 609 CURVE SMOOTH",
"412 609 OFFCURVE",
"405 602 OFFCURVE",
"405 593 CURVE SMOOTH",
"405 583 OFFCURVE",
"412 576 OFFCURVE",
"422 576 CURVE SMOOTH"
);
},
{
closed = 1;
nodes = (
"572 481 OFFCURVE",
"578 488 OFFCURVE",
"578 498 CURVE SMOOTH",
"578 507 OFFCURVE",
"572 514 OFFCURVE",
"562 514 CURVE SMOOTH",
"552 514 OFFCURVE",
"545 507 OFFCURVE",
"545 498 CURVE SMOOTH",
"545 488 OFFCURVE",
"552 481 OFFCURVE",
"562 481 CURVE SMOOTH"
);
},
{
closed = 1;
nodes = (
"490 564 OFFCURVE",
"496 571 OFFCURVE",
"496 581 CURVE SMOOTH",
"496 590 OFFCURVE",
"490 597 OFFCURVE",
"480 597 CURVE SMOOTH",
"470 597 OFFCURVE",
"463 590 OFFCURVE",
"463 581 CURVE SMOOTH",
"463 571 OFFCURVE",
"470 564 OFFCURVE",
"480 564 CURVE SMOOTH"
);
},
{
closed = 1;
nodes = (
"539 531 OFFCURVE",
"545 538 OFFCURVE",
"545 548 CURVE SMOOTH",
"545 557 OFFCURVE",
"539 564 OFFCURVE",
"529 564 CURVE SMOOTH",
"519 564 OFFCURVE",
"512 557 OFFCURVE",
"512 548 CURVE SMOOTH",
"512 538 OFFCURVE",
"519 531 OFFCURVE",
"529 531 CURVE SMOOTH"
);
},
{
closed = 1;
nodes = (
"479 676 LINE",
"479 717 LINE",
"357 717 LINE",
"357 676 LINE"
);
},
{
closed = 1;
nodes = (
"784 307 LINE",
"784 409 LINE",
"743 409 LINE",
"743 307 LINE"
);
},
{
closed = 1;
nodes = (
"784 455 LINE",
"784 557 LINE",
"743 557 LINE",
"743 455 LINE"
);
},
{
closed = 1;
nodes = (
"625 676 LINE",
"625 717 LINE",
"522 717 LINE",
"522 676 LINE"
);
},
{
closed = 1;
nodes = (
"784 602 LINE",
"784 717 LINE",
"670 717 LINE",
"670 676 LINE",
"743 676 LINE",
"743 602 LINE"
);
}
);
width = 834;
}
);
unicode = 16F92;
category = Letter;
},
{
glyphname = u16F93;
lastChange = "2019-09-10 21:03:33 +0000";
layers = (
{
layerId = UUID0;
paths = (
{
closed = 1;
nodes = (
"180 0 LINE",
"180 202 LINE",
"250 202 LINE",
"250 258 LINE",
"50 258 LINE",
"50 202 LINE",
"120 202 LINE",
"120 0 LINE"
);
}
);
width = 300;
}
);
unicode = 16F93;
category = Letter;
},
{
glyphname = u16F94;
lastChange = "2019-09-10 21:03:33 +0000";
layers = (
{
layerId = UUID0;
paths = (
{
closed = 1;
nodes = (
"230 -10 OFFCURVE",
"262 37 OFFCURVE",
"262 78 CURVE SMOOTH",
"262 108 OFFCURVE",
"241 143 OFFCURVE",
"191 153 CURVE",
"242 202 LINE",
"242 258 LINE",
"61 258 LINE",
"61 202 LINE",
"176 202 LINE",
"108 139 LINE",
"108 114 LINE",
"149 114 LINE SMOOTH",
"186 114 OFFCURVE",
"208 108 OFFCURVE",
"208 77 CURVE SMOOTH",
"208 53 OFFCURVE",
"176 42 OFFCURVE",
"158 42 CURVE SMOOTH",
"132 42 OFFCURVE",
"106 49 OFFCURVE",
"94 73 CURVE",
"50 46 LINE",
"77 1 OFFCURVE",
"121 -10 OFFCURVE",
"159 -10 CURVE SMOOTH"
);
}
);
width = 312;
}
);
unicode = 16F94;
category = Letter;
},
{
glyphname = u16F95;
lastChange = "2019-09-10 21:03:33 +0000";
layers = (
{
layerId = UUID0;
paths = (
{
closed = 1;
nodes = (
"108 0 LINE",
"108 174 LINE",
"149 126 LINE",
"189 126 LINE",
"230 174 LINE",
"230 0 LINE",
"288 0 LINE",
"288 258 LINE",
"238 258 LINE",
"169 172 LINE",
"100 258 LINE",
"50 258 LINE",
"50 0 LINE"
);
}
);
width = 338;
}
);
unicode = 16F95;
category = Letter;
},
{
glyphname = u16F96;
lastChange = "2019-09-10 21:03:33 +0000";
layers = (
{
layerId = UUID0;
paths = (
{
closed = 1;
nodes = (
"110 0 LINE",
"110 202 LINE",
"220 202 LINE",
"220 258 LINE",
"50 258 LINE",
"50 0 LINE"
);
}
);
width = 270;
}
);
unicode = 16F96;
category = Letter;
},
{
glyphname = u16F97;
lastChange = "2019-09-10 21:03:33 +0000";
layers = (
{
layerId = UUID0;
paths = (
{
closed = 1;
nodes = (
"235 -10 OFFCURVE",
"267 28 OFFCURVE",
"267 69 CURVE SMOOTH",
"267 126 OFFCURVE",
"221 140 OFFCURVE",
"179 150 CURVE SMOOTH",
"144 158 OFFCURVE",
"111 164 OFFCURVE",
"111 189 CURVE SMOOTH",
"111 213 OFFCURVE",
"143 216 OFFCURVE",
"161 216 CURVE SMOOTH",
"187 216 OFFCURVE",
"213 209 OFFCURVE",
"225 185 CURVE",
"269 212 LINE",
"242 257 OFFCURVE",
"198 268 OFFCURVE",
"160 268 CURVE SMOOTH",
"89 268 OFFCURVE",
"57 230 OFFCURVE",
"57 189 CURVE SMOOTH",
"57 129 OFFCURVE",
"108 115 OFFCURVE",
"150 106 CURVE SMOOTH",
"183 99 OFFCURVE",
"213 93 OFFCURVE",
"213 69 CURVE SMOOTH",
"213 45 OFFCURVE",
"181 42 OFFCURVE",
"163 42 CURVE SMOOTH",
"137 42 OFFCURVE",
"106 49 OFFCURVE",
"94 73 CURVE",
"50 46 LINE",
"77 1 OFFCURVE",
"126 -10 OFFCURVE",
"164 -10 CURVE SMOOTH"
);
}
);
width = 319;
}
);
unicode = 16F97;
category = Letter;
},
{
glyphname = u16F98;
lastChange = "2019-09-10 21:03:33 +0000";
layers = (
{
layerId = UUID0;
paths = (
{
closed = 1;
nodes = (
"220 0 LINE",
"220 56 LINE",
"110 56 LINE",
"110 258 LINE",
"50 258 LINE",
"50 0 LINE"
);
}
);
width = 270;
}
);
unicode = 16F98;
category = Letter;
},
{
glyphname = u16F99;
lastChange = "2019-09-10 21:03:33 +0000";
layers = (
{
layerId = UUID0;
paths = (
{
closed = 1;
nodes = (
"214 -10 OFFCURVE",
"239 1 OFFCURVE",
"260 18 CURVE",
"222 62 LINE",
"212 54 OFFCURVE",
"203 50 OFFCURVE",
"187 50 CURVE SMOOTH",
"161 50 OFFCURVE",
"157 65 OFFCURVE",
"157 92 CURVE SMOOTH",
"157 130 LINE",
"205 130 LINE",
"205 186 LINE",
"157 186 LINE",
"157 258 LINE",
"97 258 LINE",
"97 186 LINE",
"50 186 LINE",
"50 130 LINE",
"97 130 LINE",
"97 92 LINE SMOOTH",
"97 30 OFFCURVE",
"114 -10 OFFCURVE",
"182 -10 CURVE SMOOTH"
);
}
);
width = 310;
}
);
unicode = 16F99;
category = Letter;
},
{
glyphname = u16F9A;
lastChange = "2019-09-10 21:03:33 +0000";
layers = (
{
layerId = UUID0;
paths = (
{
closed = 1;
nodes = (
"419 -10 OFFCURVE",
"464 22 OFFCURVE",
"464 131 CURVE SMOOTH",
"464 158 OFFCURVE",
"460 182 OFFCURVE",
"454 208 CURVE",
"394 208 LINE",
"401 180 OFFCURVE",
"404 151 OFFCURVE",
"404 123 CURVE SMOOTH",
"404 74 OFFCURVE",
"386 50 OFFCURVE",
"347 50 CURVE SMOOTH",
"304 50 OFFCURVE",
"287 74 OFFCURVE",
"287 122 CURVE SMOOTH",
"287 145 LINE SMOOTH",
"287 242 OFFCURVE",
"231 268 OFFCURVE",
"167 268 CURVE SMOOTH",
"95 268 OFFCURVE",
"50 236 OFFCURVE",
"50 127 CURVE SMOOTH",
"50 100 OFFCURVE",
"54 76 OFFCURVE",
"60 50 CURVE",
"120 50 LINE",
"113 78 OFFCURVE",
"110 107 OFFCURVE",
"110 135 CURVE SMOOTH",
"110 184 OFFCURVE",
"128 208 OFFCURVE",
"167 208 CURVE SMOOTH",
"210 208 OFFCURVE",
"227 184 OFFCURVE",
"227 145 CURVE SMOOTH",
"227 121 LINE SMOOTH",
"227 20 OFFCURVE",
"279 -10 OFFCURVE",
"347 -10 CURVE SMOOTH"
);
}
);
width = 514;
}
);
unicode = 16F9A;
category = Letter;
},
{
glyphname = u16F9B;
lastChange = "2019-09-10 21:03:33 +0000";
layers = (
{
layerId = UUID0;
paths = (
{
closed = 1;
nodes = (
"132 0 LINE",
"125 28 OFFCURVE",
"112 107 OFFCURVE",
"112 135 CURVE SMOOTH",
"112 184 OFFCURVE",
"130 208 OFFCURVE",
"169 208 CURVE SMOOTH",
"212 208 OFFCURVE",
"229 184 OFFCURVE",
"229 136 CURVE SMOOTH",
"229 0 LINE",
"289 0 LINE",
"289 135 LINE SMOOTH",
"289 184 OFFCURVE",
"306 208 OFFCURVE",
"349 208 CURVE SMOOTH",
"388 208 OFFCURVE",
"406 184 OFFCURVE",
"406 135 CURVE SMOOTH",
"406 107 OFFCURVE",
"393 28 OFFCURVE",
"386 0 CURVE",
"446 0 LINE",
"452 26 OFFCURVE",
"468 101 OFFCURVE",
"468 136 CURVE SMOOTH",
"468 237 OFFCURVE",
"421 268 OFFCURVE",
"354 268 CURVE SMOOTH",
"325 268 OFFCURVE",
"287 258 OFFCURVE",
"260 227 CURVE",
"234 258 OFFCURVE",
"196 268 OFFCURVE",
"165 268 CURVE SMOOTH",
"97 268 OFFCURVE",
"50 237 OFFCURVE",
"50 136 CURVE SMOOTH",
"50 101 OFFCURVE",
"66 26 OFFCURVE",
"72 0 CURVE"
);
}
);
width = 518;
}
);
unicode = 16F9B;
category = Letter;
},
{
glyphname = u16F9C;
lastChange = "2019-09-10 21:03:33 +0000";
layers = (
{
layerId = UUID0;
paths = (
{
closed = 1;
nodes = (
"230 -10 OFFCURVE",
"267 28 OFFCURVE",
"267 93 CURVE SMOOTH",
"267 116 OFFCURVE",
"261 141 OFFCURVE",
"252 164 CURVE",
"294 164 LINE",
"294 220 LINE",
"234 220 LINE SMOOTH",
"229 220 OFFCURVE",
"227 220 OFFCURVE",
"220 219 CURVE",
"181 270 OFFCURVE",
"123 307 OFFCURVE",
"65 311 CURVE",
"50 262 LINE",
"97 254 OFFCURVE",
"132 232 OFFCURVE",
"156 207 CURVE",
"109 188 OFFCURVE",
"77 150 OFFCURVE",
"77 91 CURVE SMOOTH",
"77 33 OFFCURVE",
"114 -10 OFFCURVE",
"170 -10 CURVE SMOOTH"
);
},
{
closed = 1;
nodes = (
"153 42 OFFCURVE",
"133 53 OFFCURVE",
"133 91 CURVE SMOOTH",
"133 112 OFFCURVE",
"141 145 OFFCURVE",
"191 158 CURVE",
"206 129 OFFCURVE",
"211 102 OFFCURVE",
"211 91 CURVE SMOOTH",
"211 56 OFFCURVE",
"195 42 OFFCURVE",
"171 42 CURVE SMOOTH"
);
}
);
width = 344;
}
);
unicode = 16F9C;
category = Letter;
},
{
glyphname = u16F9D;
lastChange = "2019-09-10 21:03:33 +0000";
layers = (
{
layerId = UUID0;
paths = (
{
closed = 1;
nodes = (
"195 41 LINE",
"160 41 OFFCURVE",
"128 64 OFFCURVE",
"119 96 CURVE",
"134 91 OFFCURVE",
"151 89 OFFCURVE",
"170 89 CURVE SMOOTH",
"243 89 OFFCURVE",
"282 129 OFFCURVE",
"282 180 CURVE SMOOTH",
"282 232 OFFCURVE",
"241 268 OFFCURVE",
"168 268 CURVE SMOOTH",
"95 268 OFFCURVE",
"50 230 OFFCURVE",
"50 153 CURVE SMOOTH",
"50 52 OFFCURVE",
"108 -8 OFFCURVE",
"190 -10 CURVE"
);
},
{
closed = 1;
nodes = (
"129 141 OFFCURVE",
"109 156 OFFCURVE",
"109 178 CURVE SMOOTH",
"109 202 OFFCURVE",
"129 216 OFFCURVE",
"168 216 CURVE SMOOTH",
"205 216 OFFCURVE",
"226 201 OFFCURVE",
"226 178 CURVE SMOOTH",
"226 156 OFFCURVE",
"205 141 OFFCURVE",
"168 141 CURVE SMOOTH"
);
}
);
width = 332;
}
);
unicode = 16F9D;
category = Letter;
},
{
glyphname = u16F9E;
lastChange = "2019-09-10 21:03:33 +0000";
layers = (
{
layerId = UUID0;
paths = (
{
closed = 1;
nodes = (
"294 39 LINE",
"246 47 OFFCURVE",
"212 68 OFFCURVE",
"187 94 CURVE",
"234 112 OFFCURVE",
"267 151 OFFCURVE",
"267 210 CURVE SMOOTH",
"267 268 OFFCURVE",
"230 311 OFFCURVE",
"174 311 CURVE SMOOTH",
"114 311 OFFCURVE",
"77 273 OFFCURVE",
"77 208 CURVE SMOOTH",
"77 184 OFFCURVE",
"82 160 OFFCURVE",
"92 137 CURVE",
"50 137 LINE",
"50 81 LINE",
"124 81 LINE",
"162 31 OFFCURVE",
"220 -6 OFFCURVE",
"279 -10 CURVE"
);
},
{
closed = 1;
nodes = (
"138 171 OFFCURVE",
"133 198 OFFCURVE",
"133 210 CURVE SMOOTH",
"133 245 OFFCURVE",
"149 259 OFFCURVE",
"173 259 CURVE SMOOTH",
"191 259 OFFCURVE",
"211 248 OFFCURVE",
"211 210 CURVE SMOOTH",
"211 188 OFFCURVE",
"202 155 OFFCURVE",
"153 142 CURVE"
);
}
);
width = 344;
}
);
unicode = 16F9E;
category = Letter;
},
{
glyphname = u16F9F;
lastChange = "2019-09-10 21:03:33 +0000";
layers = (
{
layerId = UUID0;
paths = (
{
closed = 1;
nodes = (
"196 -10 OFFCURVE",
"234 0 OFFCURVE",
"260 31 CURVE",
"287 0 OFFCURVE",
"325 -10 OFFCURVE",
"354 -10 CURVE SMOOTH",
"421 -10 OFFCURVE",
"468 21 OFFCURVE",
"468 122 CURVE SMOOTH",
"468 157 OFFCURVE",
"452 232 OFFCURVE",
"446 258 CURVE",
"386 258 LINE",
"393 230 OFFCURVE",
"406 151 OFFCURVE",
"406 123 CURVE SMOOTH",
"406 74 OFFCURVE",
"388 50 OFFCURVE",
"349 50 CURVE SMOOTH",
"306 50 OFFCURVE",
"289 74 OFFCURVE",
"289 123 CURVE SMOOTH",
"289 258 LINE",
"229 258 LINE",
"229 122 LINE SMOOTH",
"229 74 OFFCURVE",
"212 50 OFFCURVE",
"169 50 CURVE SMOOTH",
"130 50 OFFCURVE",
"112 74 OFFCURVE",
"112 123 CURVE SMOOTH",
"112 151 OFFCURVE",
"125 230 OFFCURVE",
"132 258 CURVE",
"72 258 LINE",
"66 232 OFFCURVE",
"50 157 OFFCURVE",
"50 122 CURVE SMOOTH",
"50 21 OFFCURVE",
"97 -10 OFFCURVE",
"165 -10 CURVE SMOOTH"
);
}
);
width = 518;
}
);
unicode = 16F9F;
category = Letter;
},
{
export = 0;
glyphname = ring.full;
lastChange = "2019-09-10 21:03:33 +0000";
layers = (
{
layerId = UUID0;
paths = (
{
closed = 1;
nodes = (
"254 226 OFFCURVE",
"318 286 OFFCURVE",
"318 361 CURVE SMOOTH",
"318 437 OFFCURVE",
"254 497 OFFCURVE",
"179 497 CURVE SMOOTH",
"104 497 OFFCURVE",
"40 437 OFFCURVE",
"40 361 CURVE SMOOTH",
"40 286 OFFCURVE",
"104 226 OFFCURVE",
"179 226 CURVE SMOOTH"
);
},
{
closed = 1;
nodes = (
"139 290 OFFCURVE",
"108 320 OFFCURVE",
"108 361 CURVE SMOOTH",
"108 404 OFFCURVE",
"139 433 OFFCURVE",
"179 433 CURVE SMOOTH",
"220 433 OFFCURVE",
"250 405 OFFCURVE",
"250 361 CURVE SMOOTH",
"250 320 OFFCURVE",
"220 290 OFFCURVE",
"179 290 CURVE SMOOTH"
);
}
);
width = 358;
}
);
},
{
export = 0;
glyphname = ring.half;
lastChange = "2019-09-10 21:03:33 +0000";
layers = (
{
layerId = UUID0;
paths = (
{
closed = 1;
nodes = (
"179 290 LINE",
"139 290 OFFCURVE",
"108 320 OFFCURVE",
"108 361 CURVE SMOOTH",
"108 404 OFFCURVE",
"139 433 OFFCURVE",
"179 433 CURVE",
"179 497 LINE",
"104 497 OFFCURVE",
"40 437 OFFCURVE",
"40 361 CURVE SMOOTH",
"40 286 OFFCURVE",
"104 226 OFFCURVE",
"179 226 CURVE"
);
}
);
width = 358;
}
);
},
{
export = 0;
glyphname = ring.23;
lastChange = "2019-09-10 21:03:33 +0000";
layers = (
{
layerId = UUID0;
paths = (
{
closed = 1;
nodes = (
"215 226 OFFCURVE",
"249 240 OFFCURVE",
"274 263 CURVE",
"231 309 LINE",
"218 296 OFFCURVE",
"199 290 OFFCURVE",
"179 290 CURVE SMOOTH",
"139 290 OFFCURVE",
"108 320 OFFCURVE",
"108 361 CURVE SMOOTH",
"108 404 OFFCURVE",
"139 433 OFFCURVE",
"179 433 CURVE",
"179 497 LINE",
"104 497 OFFCURVE",
"40 437 OFFCURVE",
"40 361 CURVE SMOOTH",
"40 286 OFFCURVE",
"104 226 OFFCURVE",
"179 226 CURVE SMOOTH"
);
}
);
width = 358;
}
);
},
{
export = 0;
glyphname = ring.l34;
lastChange = "2019-09-10 21:03:33 +0000";
layers = (
{
layerId = UUID0;
paths = (
{
closed = 1;
nodes = (
"200 226 OFFCURVE",
"218 231 OFFCURVE",
"236 239 CURVE",
"236 315 LINE",
"223 299 OFFCURVE",
"202 290 OFFCURVE",
"179 290 CURVE SMOOTH",
"139 290 OFFCURVE",
"108 320 OFFCURVE",
"108 361 CURVE SMOOTH",
"108 404 OFFCURVE",
"139 433 OFFCURVE",
"179 433 CURVE SMOOTH",
"204 433 OFFCURVE",
"221 426 OFFCURVE",
"236 410 CURVE",
"236 485 LINE",
"217 494 OFFCURVE",
"201 497 OFFCURVE",
"179 497 CURVE SMOOTH",
"104 497 OFFCURVE",
"40 437 OFFCURVE",
"40 361 CURVE SMOOTH",
"40 286 OFFCURVE",
"104 226 OFFCURVE",
"179 226 CURVE SMOOTH"
);
}
);
width = 358;
}
);
},
{
export = 0;
glyphname = ring.r34;
lastChange = "2019-09-10 21:03:33 +0000";
layers = (
{
layerId = UUID0;
paths = (
{
closed = 1;
nodes = (
"254 226 OFFCURVE",
"318 286 OFFCURVE",
"318 361 CURVE SMOOTH",
"318 437 OFFCURVE",
"254 497 OFFCURVE",
"179 497 CURVE SMOOTH",
"157 497 OFFCURVE",
"141 494 OFFCURVE",
"122 485 CURVE",
"122 410 LINE",
"137 424 OFFCURVE",
"154 433 OFFCURVE",
"179 433 CURVE SMOOTH",
"219 433 OFFCURVE",
"250 404 OFFCURVE",
"250 361 CURVE SMOOTH",
"250 320 OFFCURVE",
"220 290 OFFCURVE",
"180 290 CURVE SMOOTH",
"157 290 OFFCURVE",
"135 299 OFFCURVE",
"122 315 CURVE",
"122 239 LINE",
"140 231 OFFCURVE",
"158 226 OFFCURVE",
"179 226 CURVE SMOOTH"
);
}
);
width = 358;
}
);
},
{
glyphname = u16F45;
lastChange = "2019-09-10 21:03:33 +0000";
layers = (
{
anchors = (
{
name = Anchor2;
position = "{260, 785}";
},
{
name = Anchor4;
position = "{280, 0}";
}
);
components = (
{
name = ring.half;
transform = "{1, 0, 0, 1, 237, 114}";
}
);
layerId = UUID0;
paths = (
{
closed = 1;
nodes = (
"506 0 LINE",
"506 714 LINE",
"416 714 LINE",
"416 80 LINE",
"326 80 LINE",
"341 103 OFFCURVE",
"349 130 OFFCURVE",
"349 160 CURVE SMOOTH",
"349 246 OFFCURVE",
"279 316 OFFCURVE",
"189 316 CURVE SMOOTH",
"99 316 OFFCURVE",
"30 246 OFFCURVE",
"30 160 CURVE SMOOTH",
"30 53 OFFCURVE",
"117 0 OFFCURVE",
"210 0 CURVE SMOOTH"
);
},
{
closed = 1;
nodes = (
"144 80 OFFCURVE",
"110 115 OFFCURVE",
"110 160 CURVE SMOOTH",
"110 204 OFFCURVE",
"144 240 OFFCURVE",
"189 240 CURVE SMOOTH",
"233 240 OFFCURVE",
"269 204 OFFCURVE",
"269 160 CURVE SMOOTH",
"269 115 OFFCURVE",
"233 80 OFFCURVE",
"189 80 CURVE SMOOTH"
);
}
);
width = 596;
}
);
unicode = 16F45;
category = Letter;
},
{
glyphname = u16F46;
lastChange = "2019-09-10 21:03:33 +0000";
layers = (
{
anchors = (
{
name = Anchor2;
position = "{200, 785}";
},
{
name = Anchor4;
position = "{220, 0}";
}
);
components = (
{
name = ring.half;
transform = "{1, 0, 0, 1, 124, 0}";
}
);
layerId = UUID0;
paths = (
{
closed = 1;
nodes = (
"319 -10 OFFCURVE",
"393 53 OFFCURVE",
"393 191 CURVE SMOOTH",
"393 714 LINE",
"303 714 LINE",
"303 184 LINE SMOOTH",
"303 93 OFFCURVE",
"260 75 OFFCURVE",
"210 75 CURVE SMOOTH",
"158 75 OFFCURVE",
"128 106 OFFCURVE",
"111 156 CURVE",
"30 118 LINE",
"55 43 OFFCURVE",
"109 -10 OFFCURVE",
"210 -10 CURVE SMOOTH"
);
}
);
width = 483;
}
);
unicode = 16F46;
category = Letter;
},
{
glyphname = u16F47;
lastChange = "2019-09-10 21:03:33 +0000";
layers = (
{
anchors = (
{
name = Anchor2;
position = "{280, 785}";
},
{
name = Anchor4;
position = "{320, 0}";
}
);
components = (
{
name = ring.half;
transform = "{1, 0, 0, 1, 64, 0}";
}
);
layerId = UUID0;
paths = (
{
closed = 1;
nodes = (
"555 0 LINE",
"555 80 LINE",
"332 80 LINE",
"332 634 LINE",
"535 634 LINE",
"535 714 LINE",
"242 714 LINE",
"242 80 LINE",
"20 80 LINE",
"20 0 LINE"
);
}
);
width = 575;
}
);
unicode = 16F47;
category = Letter;
},
{
glyphname = u16F48;
lastChange = "2019-09-10 21:03:33 +0000";
layers = (
{
anchors = (
{
name = Anchor2;
position = "{280, 785}";
},
{
name = Anchor4;
position = "{290, 0}";
}
);
layerId = UUID0;
paths = (
{
closed = 1;
nodes = (
"333 0 LINE",
"333 634 LINE",
"555 634 LINE",
"555 714 LINE",
"20 714 LINE",
"20 634 LINE",
"243 634 LINE",
"243 0 LINE"
);
},
{
closed = 1;
nodes = (
"20 794 LINE",
"20 550 LINE",
"110 550 LINE",
"110 794 LINE"
);
},
{
closed = 1;
nodes = (
"20 794 LINE",
"20 550 LINE",
"110 550 LINE",
"110 794 LINE"
);
}
);
width = 575;
}
);
unicode = 16F48;
category = Letter;
},
{
glyphname = u16F49;
lastChange = "2019-09-10 21:03:33 +0000";
layers = (
{
anchors = (
{
name = Anchor2;
position = "{280, 785}";
},
{
name = Anchor4;
position = "{290, 0}";
}
);
layerId = UUID0;
paths = (
{
closed = 1;
nodes = (
"243 714 LINE",
"243 0 LINE",
"333 0 LINE",
"333 714 LINE"
);
},
{
closed = 1;
nodes = (
"20 714 LINE",
"20 470 LINE",
"110 470 LINE",
"110 714 LINE"
);
},
{
closed = 1;
nodes = (
"555 554 LINE",
"555 634 LINE",
"20 634 LINE",
"20 554 LINE"
);
}
);
width = 575;
}
);
unicode = 16F49;
category = Letter;
},
{
glyphname = u16F4A;
lastChange = "2019-09-10 21:03:33 +0000";
layers = (
{
anchors = (
{
name = Anchor2;
position = "{280, 785}";
},
{
name = Anchor4;
position = "{290, 0}";
}
);
layerId = UUID0;
paths = (
{
closed = 1;
nodes = (
"535 0 LINE",
"535 80 LINE",
"333 80 LINE",
"333 634 LINE",
"555 634 LINE",
"555 714 LINE",
"20 714 LINE",
"20 634 LINE",
"243 634 LINE",
"243 0 LINE"
);
},
{
closed = 1;
nodes = (
"20 794 LINE",
"20 550 LINE",
"110 550 LINE",
"110 794 LINE"
);
}
);
width = 575;
}
);
unicode = 16F4A;
category = Letter;
},
{
glyphname = u16F4F;
lastChange = "2019-09-10 21:03:33 +0000";
layers = (
{
layerId = UUID0;
paths = (
{
closed = 1;
nodes = (
"-110 194 LINE",
"-110 -50 LINE",
"-20 -50 LINE",
"-20 194 LINE"
);
}
);
width = 0;
}
);
unicode = 16F4F;
category = Mark;
subCategory = Nonspacing;
},
{
glyphname = u16F7F;
lastChange = "2019-09-10 21:03:33 +0000";
layers = (
{
layerId = UUID0;
paths = (
{
closed = 1;
nodes = (
"64 0 LINE",
"64 112 LINE",
"130 112 LINE SMOOTH",
"243 112 OFFCURVE",
"281 154 OFFCURVE",
"281 226 CURVE SMOOTH",
"281 294 OFFCURVE",
"244 341 OFFCURVE",
"130 341 CURVE SMOOTH",
"0 341 LINE",
"0 281 LINE",
"141 281 LINE SMOOTH",
"189 281 OFFCURVE",
"213 269 OFFCURVE",
"213 226 CURVE SMOOTH",
"213 187 OFFCURVE",
"189 172 OFFCURVE",
"140 172 CURVE SMOOTH",
"0 172 LINE",
"0 0 LINE"
);
},
{
closed = 1;
nodes = (
"0 113 LINE",
"64 113 LINE",
"64 311 LINE",
"0 311 LINE"
);
}
);
width = 331;
}
);
unicode = 16F7F;
category = Letter;
},
{
glyphname = u16F80;
lastChange = "2019-09-10 21:03:33 +0000";
layers = (
{
layerId = UUID0;
paths = (
{
closed = 1;
nodes = (
"201 -10 OFFCURVE",
"257 22 OFFCURVE",
"257 131 CURVE SMOOTH",
"257 258 LINE",
"193 258 LINE",
"193 127 LINE SMOOTH",
"193 78 OFFCURVE",
"168 54 OFFCURVE",
"129 54 CURVE SMOOTH",
"86 54 OFFCURVE",
"64 78 OFFCURVE",
"64 126 CURVE SMOOTH",
"64 258 LINE",
"0 258 LINE",
"0 131 LINE SMOOTH",
"0 17 OFFCURVE",
"61 -10 OFFCURVE",
"129 -10 CURVE SMOOTH"
);
},
{
closed = 1;
nodes = (
"0 293 LINE",
"64 293 LINE",
"64 341 LINE",
"0 341 LINE"
);
},
{
closed = 1;
nodes = (
"193 293 LINE",
"257 293 LINE",
"257 341 LINE",
"193 341 LINE"
);
}
);
width = 307;
}
);
unicode = 16F80;
category = Letter;
},
{
glyphname = u16F81;
lastChange = "2019-09-10 21:06:28 +0000";
layers = (
{
layerId = UUID0;
paths = (
{
closed = 1;
nodes = (
"230 99 LINE",
"211 74 OFFCURVE",
"176 54 OFFCURVE",
"138 54 CURVE SMOOTH",
"98 54 OFFCURVE",
"68 84 OFFCURVE",
"68 125 CURVE SMOOTH",
"68 175 OFFCURVE",
"98 230 OFFCURVE",
"141 230 CURVE SMOOTH",
"161 230 OFFCURVE",
"172 218 OFFCURVE",
"172 202 CURVE SMOOTH",
"172 188 OFFCURVE",
"164 170 OFFCURVE",
"147 156 CURVE",
"194 111 LINE",
"231 138 OFFCURVE",
"249 173 OFFCURVE",
"249 204 CURVE SMOOTH",
"249 250 OFFCURVE",
"211 289 OFFCURVE",
"150 289 CURVE SMOOTH",
"66 289 OFFCURVE",
"0 215 OFFCURVE",
"0 120 CURVE SMOOTH",
"0 42 OFFCURVE",
"63 -10 OFFCURVE",
"138 -10 CURVE SMOOTH",
"204 -10 OFFCURVE",
"250 19 OFFCURVE",
"275 52 CURVE"
);
}
);
width = 325;
}
);
unicode = 16F81;
category = Letter;
},
{
glyphname = u16F83;
lastChange = "2019-09-10 21:03:33 +0000";
layers = (
{
layerId = UUID0;
paths = (
{
closed = 1;
nodes = (
"217 0 LINE",
"348 258 LINE",
"271 258 LINE",
"154 12 LINE",
"197 12 LINE",
"77 258 LINE",
"0 258 LINE",
"132 0 LINE"
);
}
);
width = 398;
}
);
unicode = 16F83;
category = Letter;
},
{
glyphname = u16F84;
lastChange = "2019-09-10 21:03:33 +0000";
layers = (
{
layerId = UUID0;
paths = (
{
closed = 1;
nodes = (
"0 0 LINE",
"77 0 LINE",
"197 246 LINE",
"154 246 LINE",
"271 0 LINE",
"348 0 LINE",
"217 258 LINE",
"132 258 LINE"
);
}
);
width = 398;
}
);
unicode = 16F84;
category = Letter;
},
{
glyphname = u16F85;
lastChange = "2019-09-10 21:03:33 +0000";
layers = (
{
layerId = UUID0;
paths = (
{
closed = 1;
nodes = (
"0 169 LINE",
"140 169 LINE SMOOTH",
"189 169 OFFCURVE",
"213 154 OFFCURVE",
"213 115 CURVE SMOOTH",
"213 72 OFFCURVE",
"189 60 OFFCURVE",
"141 60 CURVE SMOOTH",
"0 60 LINE",
"0 0 LINE",
"130 0 LINE SMOOTH",
"244 0 OFFCURVE",
"281 47 OFFCURVE",
"281 115 CURVE SMOOTH",
"281 187 OFFCURVE",
"243 229 OFFCURVE",
"130 229 CURVE SMOOTH",
"64 229 LINE",
"64 341 LINE",
"0 341 LINE"
);
},
{
closed = 1;
nodes = (
"64 30 LINE",
"64 228 LINE",
"0 228 LINE",
"0 30 LINE"
);
}
);
width = 331;
}
);
unicode = 16F85;
category = Letter;
},
{
glyphname = u16F86;
lastChange = "2019-09-10 21:06:28 +0000";
layers = (
{
layerId = UUID0;
paths = (
{
closed = 1;
nodes = (
"283 0 LINE",
"283 341 LINE",
"219 341 LINE",
"219 0 LINE"
);
},
{
closed = 1;
nodes = (
"65 328 LINE",
"22 291 OFFCURVE",
"0 252 OFFCURVE",
"0 214 CURVE SMOOTH",
"0 142 OFFCURVE",
"33 86 OFFCURVE",
"142 86 CURVE SMOOTH",
"269 86 LINE",
"269 150 LINE",
"138 150 LINE SMOOTH",
"89 150 OFFCURVE",
"65 175 OFFCURVE",
"65 214 CURVE SMOOTH",
"65 241 OFFCURVE",
"80 266 OFFCURVE",
"108 286 CURVE"
);
}
);
width = 333;
}
);
unicode = 16F86;
category = Letter;
},
{
glyphname = u16F7F.cnt;
lastChange = "2019-09-10 21:03:33 +0000";
layers = (
{
layerId = UUID0;
paths = (
{
closed = 1;
nodes = (
"64 200 LINE",
"64 312 LINE",
"130 312 LINE SMOOTH",
"243 312 OFFCURVE",
"281 354 OFFCURVE",
"281 426 CURVE SMOOTH",
"281 494 OFFCURVE",
"244 541 OFFCURVE",
"130 541 CURVE SMOOTH",
"0 541 LINE",
"0 481 LINE",
"141 481 LINE SMOOTH",
"189 481 OFFCURVE",
"213 469 OFFCURVE",
"213 426 CURVE SMOOTH",
"213 387 OFFCURVE",
"189 372 OFFCURVE",
"140 372 CURVE SMOOTH",
"0 372 LINE",
"0 200 LINE"
);
},
{
closed = 1;
nodes = (
"0 313 LINE",
"64 313 LINE",
"64 511 LINE",
"0 511 LINE"
);
}
);
width = 331;
}
);
category = Letter;
},
{
glyphname = u16F80.cnt;
lastChange = "2019-09-10 21:03:33 +0000";
layers = (
{
layerId = UUID0;
paths = (
{
closed = 1;
nodes = (
"201 190 OFFCURVE",
"257 222 OFFCURVE",
"257 331 CURVE SMOOTH",
"257 458 LINE",
"193 458 LINE",
"193 327 LINE SMOOTH",
"193 278 OFFCURVE",
"168 254 OFFCURVE",
"129 254 CURVE SMOOTH",
"86 254 OFFCURVE",
"64 278 OFFCURVE",
"64 326 CURVE SMOOTH",
"64 458 LINE",
"0 458 LINE",
"0 331 LINE SMOOTH",
"0 217 OFFCURVE",
"61 190 OFFCURVE",
"129 190 CURVE SMOOTH"
);
},
{
closed = 1;
nodes = (
"0 493 LINE",
"64 493 LINE",
"64 541 LINE",
"0 541 LINE"
);
},
{
closed = 1;
nodes = (
"193 493 LINE",
"257 493 LINE",
"257 541 LINE",
"193 541 LINE"
);
}
);
width = 307;
}
);
category = Letter;
},
{
glyphname = u16F81.cnt;
lastChange = "2019-09-10 21:06:28 +0000";
layers = (
{
layerId = UUID0;
paths = (
{
closed = 1;
nodes = (
"230 299 LINE",
"211 274 OFFCURVE",
"176 254 OFFCURVE",
"138 254 CURVE SMOOTH",
"98 254 OFFCURVE",
"68 284 OFFCURVE",
"68 325 CURVE SMOOTH",
"68 375 OFFCURVE",
"98 430 OFFCURVE",
"141 430 CURVE SMOOTH",
"161 430 OFFCURVE",
"172 418 OFFCURVE",
"172 402 CURVE SMOOTH",
"172 388 OFFCURVE",
"164 370 OFFCURVE",
"147 356 CURVE",
"194 311 LINE",
"231 338 OFFCURVE",
"249 373 OFFCURVE",
"249 404 CURVE SMOOTH",
"249 450 OFFCURVE",
"211 489 OFFCURVE",
"150 489 CURVE SMOOTH",
"66 489 OFFCURVE",
"0 415 OFFCURVE",
"0 320 CURVE SMOOTH",
"0 242 OFFCURVE",
"63 190 OFFCURVE",
"138 190 CURVE SMOOTH",
"204 190 OFFCURVE",
"250 219 OFFCURVE",
"275 252 CURVE"
);
}
);
width = 325;
}
);
category = Letter;
},
{
glyphname = u16F83.cnt;
lastChange = "2019-09-10 21:03:33 +0000";
layers = (
{
layerId = UUID0;
paths = (
{
closed = 1;
nodes = (
"217 200 LINE",
"348 458 LINE",
"271 458 LINE",
"154 212 LINE",
"197 212 LINE",
"77 458 LINE",
"0 458 LINE",
"132 200 LINE"
);
}
);
width = 398;
}
);
category = Letter;
},
{
glyphname = u16F84.cnt;
lastChange = "2019-09-10 21:03:33 +0000";
layers = (
{
layerId = UUID0;
paths = (
{
closed = 1;
nodes = (
"0 200 LINE",
"77 200 LINE",
"197 446 LINE",
"154 446 LINE",
"271 200 LINE",
"348 200 LINE",
"217 458 LINE",
"132 458 LINE"
);
}
);
width = 398;
}
);
category = Letter;
},
{
glyphname = u16F85.cnt;
lastChange = "2019-09-10 21:03:33 +0000";
layers = (
{
layerId = UUID0;
paths = (
{
closed = 1;
nodes = (
"0 369 LINE",
"140 369 LINE SMOOTH",
"189 369 OFFCURVE",
"213 354 OFFCURVE",
"213 315 CURVE SMOOTH",
"213 272 OFFCURVE",
"189 260 OFFCURVE",
"141 260 CURVE SMOOTH",
"0 260 LINE",
"0 200 LINE",
"130 200 LINE SMOOTH",
"244 200 OFFCURVE",
"281 247 OFFCURVE",
"281 315 CURVE SMOOTH",
"281 387 OFFCURVE",
"243 429 OFFCURVE",
"130 429 CURVE SMOOTH",
"64 429 LINE",
"64 541 LINE",
"0 541 LINE"
);
},
{
closed = 1;
nodes = (
"64 230 LINE",
"64 428 LINE",
"0 428 LINE",
"0 230 LINE"
);
}
);
width = 331;
}
);
category = Letter;
},
{
glyphname = u16F86.cnt;
lastChange = "2019-09-10 21:06:28 +0000";
layers = (
{
layerId = UUID0;
paths = (
{
closed = 1;
nodes = (
"283 200 LINE",
"283 541 LINE",
"219 541 LINE",
"219 200 LINE"
);
},
{
closed = 1;
nodes = (
"65 528 LINE",
"22 491 OFFCURVE",
"0 452 OFFCURVE",
"0 414 CURVE SMOOTH",
"0 342 OFFCURVE",
"33 286 OFFCURVE",
"142 286 CURVE SMOOTH",
"269 286 LINE",
"269 350 LINE",
"138 350 LINE SMOOTH",
"89 350 OFFCURVE",
"65 375 OFFCURVE",
"65 414 CURVE SMOOTH",
"65 441 OFFCURVE",
"80 466 OFFCURVE",
"108 486 CURVE"
);
}
);
width = 333;
}
);
category = Letter;
},
{
glyphname = u16F7F.rht;
lastChange = "2019-09-10 21:03:33 +0000";
layers = (
{
layerId = UUID0;
paths = (
{
closed = 1;
nodes = (
"64 446 LINE",
"64 558 LINE",
"130 558 LINE SMOOTH",
"243 558 OFFCURVE",
"281 600 OFFCURVE",
"281 672 CURVE SMOOTH",
"281 740 OFFCURVE",
"244 787 OFFCURVE",
"130 787 CURVE SMOOTH",
"0 787 LINE",
"0 727 LINE",
"141 727 LINE SMOOTH",
"189 727 OFFCURVE",
"213 715 OFFCURVE",
"213 672 CURVE SMOOTH",
"213 633 OFFCURVE",
"189 618 OFFCURVE",
"140 618 CURVE SMOOTH",
"0 618 LINE",
"0 446 LINE"
);
},
{
closed = 1;
nodes = (
"0 559 LINE",
"64 559 LINE",
"64 757 LINE",
"0 757 LINE"
);
}
);
width = 331;
}
);
category = Letter;
},
{
glyphname = u16F80.rht;
lastChange = "2019-09-10 21:03:33 +0000";
layers = (
{
layerId = UUID0;
paths = (
{
closed = 1;
nodes = (
"201 446 OFFCURVE",
"257 478 OFFCURVE",
"257 587 CURVE SMOOTH",
"257 714 LINE",
"193 714 LINE",
"193 583 LINE SMOOTH",
"193 534 OFFCURVE",
"168 510 OFFCURVE",
"129 510 CURVE SMOOTH",
"86 510 OFFCURVE",
"64 534 OFFCURVE",
"64 582 CURVE SMOOTH",
"64 714 LINE",
"0 714 LINE",
"0 587 LINE SMOOTH",
"0 473 OFFCURVE",
"61 446 OFFCURVE",
"129 446 CURVE SMOOTH"
);
},
{
closed = 1;
nodes = (
"0 749 LINE",
"64 749 LINE",
"64 797 LINE",
"0 797 LINE"
);
},
{
closed = 1;
nodes = (
"193 749 LINE",
"257 749 LINE",
"257 797 LINE",
"193 797 LINE"
);
}
);
width = 307;
}
);
category = Letter;
},
{
glyphname = u16F81.rht;
lastChange = "2019-09-10 21:06:28 +0000";
layers = (
{
layerId = UUID0;
paths = (
{
closed = 1;
nodes = (
"230 555 LINE",
"211 530 OFFCURVE",
"176 510 OFFCURVE",
"138 510 CURVE SMOOTH",
"98 510 OFFCURVE",
"68 540 OFFCURVE",
"68 581 CURVE SMOOTH",
"68 631 OFFCURVE",
"98 686 OFFCURVE",
"141 686 CURVE SMOOTH",
"161 686 OFFCURVE",
"172 674 OFFCURVE",
"172 658 CURVE SMOOTH",
"172 644 OFFCURVE",
"164 626 OFFCURVE",
"147 612 CURVE",
"194 567 LINE",
"231 594 OFFCURVE",
"249 629 OFFCURVE",
"249 660 CURVE SMOOTH",
"249 706 OFFCURVE",
"211 745 OFFCURVE",
"150 745 CURVE SMOOTH",
"66 745 OFFCURVE",
"0 671 OFFCURVE",
"0 576 CURVE SMOOTH",
"0 498 OFFCURVE",
"63 446 OFFCURVE",
"138 446 CURVE SMOOTH",
"204 446 OFFCURVE",
"250 475 OFFCURVE",
"275 508 CURVE"
);
}
);
width = 325;
}
);
category = Letter;
},
{
glyphname = u16F83.rht;
lastChange = "2019-09-10 21:03:33 +0000";
layers = (
{
layerId = UUID0;
paths = (
{
closed = 1;
nodes = (
"217 456 LINE",
"348 714 LINE",
"271 714 LINE",
"154 468 LINE",
"197 468 LINE",
"77 714 LINE",
"0 714 LINE",
"132 456 LINE"
);
}
);
width = 398;
}
);
category = Letter;
},
{
glyphname = u16F84.rht;
lastChange = "2019-09-10 21:03:33 +0000";
layers = (
{
layerId = UUID0;
paths = (
{
closed = 1;
nodes = (
"0 456 LINE",
"77 456 LINE",
"197 702 LINE",
"154 702 LINE",
"271 456 LINE",
"348 456 LINE",
"217 714 LINE",
"132 714 LINE"
);
}
);
width = 398;
}
);
category = Letter;
},
{
glyphname = u16F85.rht;
lastChange = "2019-09-10 21:03:33 +0000";
layers = (
{
layerId = UUID0;
paths = (
{
closed = 1;
nodes = (
"0 625 LINE",
"140 625 LINE SMOOTH",
"189 625 OFFCURVE",
"213 610 OFFCURVE",
"213 571 CURVE SMOOTH",
"213 528 OFFCURVE",
"189 516 OFFCURVE",
"141 516 CURVE SMOOTH",
"0 516 LINE",
"0 456 LINE",
"130 456 LINE SMOOTH",
"244 456 OFFCURVE",
"281 503 OFFCURVE",
"281 571 CURVE SMOOTH",
"281 643 OFFCURVE",
"243 685 OFFCURVE",
"130 685 CURVE SMOOTH",
"64 685 LINE",
"64 797 LINE",
"0 797 LINE"
);
},
{
closed = 1;
nodes = (
"64 486 LINE",
"64 684 LINE",
"0 684 LINE",
"0 486 LINE"
);
}
);
width = 331;
}
);
category = Letter;
},
{
glyphname = u16F86.rht;
lastChange = "2019-09-10 21:06:28 +0000";
layers = (
{
layerId = UUID0;
paths = (
{
closed = 1;
nodes = (
"283 456 LINE",
"283 797 LINE",
"219 797 LINE",
"219 456 LINE"
);
},
{
closed = 1;
nodes = (
"65 784 LINE",
"22 747 OFFCURVE",
"0 708 OFFCURVE",
"0 670 CURVE SMOOTH",
"0 598 OFFCURVE",
"33 542 OFFCURVE",
"142 542 CURVE SMOOTH",
"269 542 LINE",
"269 606 LINE",
"138 606 LINE SMOOTH",
"89 606 OFFCURVE",
"65 631 OFFCURVE",
"65 670 CURVE SMOOTH",
"65 697 OFFCURVE",
"80 722 OFFCURVE",
"108 742 CURVE"
);
}
);
width = 333;
}
);
category = Letter;
},
{
glyphname = u16F81.abv;
lastChange = "2019-09-10 21:06:28 +0000";
layers = (
{
anchors = (
{
name = Anchor9;
position = "{180, 0}";
},
{
name = _Anchor2;
position = "{-10, 785}";
},
{
name = _Anchor9;
position = "{-140, 0}";
}
);
layerId = UUID0;
paths = (
{
closed = 1;
nodes = (
"93 898 LINE",
"74 873 OFFCURVE",
"39 853 OFFCURVE",
"1 853 CURVE SMOOTH",
"-40 853 OFFCURVE",
"-70 883 OFFCURVE",
"-70 924 CURVE SMOOTH",
"-70 974 OFFCURVE",
"-40 1029 OFFCURVE",
"4 1029 CURVE SMOOTH",
"24 1029 OFFCURVE",
"35 1017 OFFCURVE",
"35 1001 CURVE SMOOTH",
"35 987 OFFCURVE",
"27 969 OFFCURVE",
"10 955 CURVE",
"57 910 LINE",
"94 937 OFFCURVE",
"112 972 OFFCURVE",
"112 1003 CURVE SMOOTH",
"112 1049 OFFCURVE",
"74 1088 OFFCURVE",
"13 1088 CURVE SMOOTH",
"-72 1088 OFFCURVE",
"-138 1014 OFFCURVE",
"-138 919 CURVE SMOOTH",
"-138 841 OFFCURVE",
"-75 789 OFFCURVE",
"1 789 CURVE SMOOTH",
"67 789 OFFCURVE",
"113 818 OFFCURVE",
"138 851 CURVE"
);
}
);
width = 0;
}
);
category = Mark;
subCategory = Nonspacing;
},
{
glyphname = u16F83.abv;
lastChange = "2019-09-10 21:03:33 +0000";
layers = (
{
anchors = (
{
name = Anchor9;
position = "{220, 0}";
},
{
name = _Anchor2;
position = "{0, 785}";
},
{
name = _Anchor9;
position = "{-180, 0}";
}
);
layerId = UUID0;
paths = (
{
closed = 1;
nodes = (
"43 800 LINE",
"174 1058 LINE",
"97 1058 LINE",
"-20 812 LINE",
"23 812 LINE",
"-97 1058 LINE",
"-174 1058 LINE",
"-42 800 LINE"
);
}
);
width = 0;
}
);
category = Mark;
subCategory = Nonspacing;
},
{
glyphname = u16F84.abv;
lastChange = "2019-09-10 21:03:33 +0000";
layers = (
{
anchors = (
{
name = Anchor9;
position = "{220, 0}";
},
{
name = _Anchor2;
position = "{0, 785}";
},
{
name = _Anchor9;
position = "{-180, 0}";
}
);
layerId = UUID0;
paths = (
{
closed = 1;
nodes = (
"-174 800 LINE",
"-97 800 LINE",
"23 1046 LINE",
"-20 1046 LINE",
"97 800 LINE",
"174 800 LINE",
"43 1058 LINE",
"-42 1058 LINE"
);
}
);
width = 0;
}
);
category = Mark;
subCategory = Nonspacing;
},
{
glyphname = u16F85.abv;
lastChange = "2019-09-10 21:03:33 +0000";
layers = (
{
anchors = (
{
name = Anchor9;
position = "{180, 0}";
},
{
name = _Anchor2;
position = "{-30, 785}";
},
{
name = _Anchor9;
position = "{-155, 0}";
}
);
layerId = UUID0;
paths = (
{
closed = 1;
nodes = (
"-141 969 LINE",
"-1 969 LINE SMOOTH",
"49 969 OFFCURVE",
"73 954 OFFCURVE",
"73 915 CURVE SMOOTH",
"73 872 OFFCURVE",
"49 860 OFFCURVE",
"1 860 CURVE SMOOTH",
"-141 860 LINE",
"-141 800 LINE",
"-11 800 LINE SMOOTH",
"104 800 OFFCURVE",
"141 847 OFFCURVE",
"141 915 CURVE SMOOTH",
"141 987 OFFCURVE",
"103 1029 OFFCURVE",
"-11 1029 CURVE SMOOTH",
"-77 1029 LINE",
"-77 1141 LINE",
"-141 1141 LINE"
);
},
{
closed = 1;
nodes = (
"-77 830 LINE",
"-77 1028 LINE",
"-141 1028 LINE",
"-141 830 LINE"
);
}
);
width = 0;
}
);
category = Mark;
subCategory = Nonspacing;
},
{
glyphname = u16F7F.blw;
lastChange = "2019-09-10 21:03:33 +0000";
layers = (
{
anchors = (
{
name = Anchor11;
position = "{180, 0}";
},
{
name = _Anchor11;
position = "{-145, 0}";
},
{
name = _Anchor4;
position = "{-20, 0}";
}
);
layerId = UUID0;
paths = (
{
closed = 1;
nodes = (
"-77 -423 LINE",
"-77 -311 LINE",
"-11 -311 LINE SMOOTH",
"103 -311 OFFCURVE",
"141 -269 OFFCURVE",
"141 -197 CURVE SMOOTH",
"141 -129 OFFCURVE",
"104 -82 OFFCURVE",
"-11 -82 CURVE SMOOTH",
"-141 -82 LINE",
"-141 -142 LINE",
"1 -142 LINE SMOOTH",
"49 -142 OFFCURVE",
"73 -154 OFFCURVE",
"73 -197 CURVE SMOOTH",
"73 -236 OFFCURVE",
"49 -251 OFFCURVE",
"-1 -251 CURVE SMOOTH",
"-141 -251 LINE",
"-141 -423 LINE"
);
},
{
closed = 1;
nodes = (
"-141 -310 LINE",
"-77 -310 LINE",
"-77 -112 LINE",
"-141 -112 LINE"
);
}
);
width = 0;
}
);
category = Mark;
subCategory = Nonspacing;
},
{
glyphname = u16F80.blw;
lastChange = "2019-09-10 21:03:33 +0000";
layers = (
{
anchors = (
{
name = Anchor11;
position = "{180, 0}";
},
{
name = _Anchor11;
position = "{-145, 50}";
},
{
name = _Anchor4;
position = "{0, -30}";
}
);
layerId = UUID0;
paths = (
{
closed = 1;
nodes = (
"73 -433 OFFCURVE",
"129 -401 OFFCURVE",
"129 -292 CURVE SMOOTH",
"129 -165 LINE",
"65 -165 LINE",
"65 -296 LINE SMOOTH",
"65 -345 OFFCURVE",
"40 -369 OFFCURVE",
"1 -369 CURVE SMOOTH",
"-43 -369 OFFCURVE",
"-65 -345 OFFCURVE",
"-65 -297 CURVE SMOOTH",
"-65 -165 LINE",
"-129 -165 LINE",
"-129 -292 LINE SMOOTH",
"-129 -406 OFFCURVE",
"-68 -433 OFFCURVE",
"1 -433 CURVE SMOOTH"
);
},
{
closed = 1;
nodes = (
"-129 -130 LINE",
"-65 -130 LINE",
"-65 -82 LINE",
"-129 -82 LINE"
);
},
{
closed = 1;
nodes = (
"65 -130 LINE",
"129 -130 LINE",
"129 -82 LINE",
"65 -82 LINE"
);
}
);
width = 0;
}
);
category = Mark;
subCategory = Nonspacing;
},
{
glyphname = u16F81.blw;
lastChange = "2019-09-10 21:06:28 +0000";
layers = (
{
anchors = (
{
name = Anchor11;
position = "{180, 0}";
},
{
name = _Anchor11;
position = "{-140, 30}";
},
{
name = _Anchor4;
position = "{-20, -10}";
}
);
layerId = UUID0;
paths = (
{
closed = 1;
nodes = (
"93 -262 LINE",
"74 -287 OFFCURVE",
"39 -307 OFFCURVE",
"1 -307 CURVE SMOOTH",
"-40 -307 OFFCURVE",
"-70 -277 OFFCURVE",
"-70 -236 CURVE SMOOTH",
"-70 -186 OFFCURVE",
"-40 -131 OFFCURVE",
"4 -131 CURVE SMOOTH",
"24 -131 OFFCURVE",
"35 -143 OFFCURVE",
"35 -159 CURVE SMOOTH",
"35 -173 OFFCURVE",
"27 -191 OFFCURVE",
"10 -205 CURVE",
"57 -250 LINE",
"94 -223 OFFCURVE",
"112 -188 OFFCURVE",
"112 -157 CURVE SMOOTH",
"112 -111 OFFCURVE",
"74 -72 OFFCURVE",
"13 -72 CURVE SMOOTH",
"-72 -72 OFFCURVE",
"-138 -146 OFFCURVE",
"-138 -241 CURVE SMOOTH",
"-138 -319 OFFCURVE",
"-75 -371 OFFCURVE",
"1 -371 CURVE SMOOTH",
"67 -371 OFFCURVE",
"113 -342 OFFCURVE",
"138 -309 CURVE"
);
}
);
width = 0;
}
);
category = Mark;
subCategory = Nonspacing;
},
{
glyphname = u16F83.blw;
lastChange = "2019-09-10 21:03:33 +0000";
layers = (
{
anchors = (
{
name = Anchor11;
position = "{220, 0}";
},
{
name = _Anchor11;
position = "{-180, 0}";
},
{
name = _Anchor4;
position = "{0, -10}";
}
);
layerId = UUID0;
paths = (
{
closed = 1;
nodes = (
"43 -340 LINE",
"174 -82 LINE",
"97 -82 LINE",
"-20 -328 LINE",
"23 -328 LINE",
"-97 -82 LINE",
"-174 -82 LINE",
"-42 -340 LINE"
);
}
);
width = 0;
}
);
category = Mark;
subCategory = Nonspacing;
},
{
glyphname = u16F84.blw;
lastChange = "2019-09-10 21:03:33 +0000";
layers = (
{
anchors = (
{
name = Anchor11;
position = "{220, 0}";
},
{
name = _Anchor11;
position = "{-180, 0}";
},
{
name = _Anchor4;
position = "{0, -10}";
}
);
layerId = UUID0;
paths = (
{
closed = 1;
nodes = (
"-174 -340 LINE",
"-97 -340 LINE",
"23 -94 LINE",
"-20 -94 LINE",
"97 -340 LINE",
"174 -340 LINE",
"43 -82 LINE",
"-42 -82 LINE"
);
}
);
width = 0;
}
);
category = Mark;
subCategory = Nonspacing;
},
{
glyphname = u16F85.blw;
lastChange = "2019-09-10 21:03:33 +0000";
layers = (
{
anchors = (
{
name = Anchor11;
position = "{180, 0}";
},
{
name = _Anchor11;
position = "{-155, 50}";
},
{
name = _Anchor4;
position = "{-100, 50}";
}
);
layerId = UUID0;
paths = (
{
closed = 1;
nodes = (
"-141 -172 LINE",
"-1 -172 LINE SMOOTH",
"49 -172 OFFCURVE",
"73 -187 OFFCURVE",
"73 -226 CURVE SMOOTH",
"73 -269 OFFCURVE",
"49 -281 OFFCURVE",
"1 -281 CURVE SMOOTH",
"-141 -281 LINE",
"-141 -341 LINE",
"-11 -341 LINE SMOOTH",
"104 -341 OFFCURVE",
"141 -294 OFFCURVE",
"141 -226 CURVE SMOOTH",
"141 -154 OFFCURVE",
"103 -112 OFFCURVE",
"-11 -112 CURVE SMOOTH",
"-77 -112 LINE",
"-77 0 LINE",
"-141 0 LINE"
);
},
{
closed = 1;
nodes = (
"-77 -311 LINE",
"-77 -113 LINE",
"-141 -113 LINE",
"-141 -311 LINE"
);
}
);
width = 0;
}
);
category = Mark;
subCategory = Nonspacing;
},
{
glyphname = u16F86.blw;
lastChange = "2019-09-10 21:06:28 +0000";
layers = (
{
anchors = (
{
name = Anchor11;
position = "{180, 0}";
},
{
name = _Anchor11;
position = "{-145, 0}";
},
{
name = _Anchor4;
position = "{0, -10}";
}
);
layerId = UUID0;
paths = (
{
closed = 1;
nodes = (
"142 -413 LINE",
"142 -72 LINE",
"78 -72 LINE",
"78 -413 LINE"
);
},
{
closed = 1;
nodes = (
"-77 -85 LINE",
"-120 -122 OFFCURVE",
"-142 -161 OFFCURVE",
"-142 -199 CURVE SMOOTH",
"-142 -271 OFFCURVE",
"-109 -327 OFFCURVE",
"1 -327 CURVE SMOOTH",
"128 -327 LINE",
"128 -263 LINE",
"-4 -263 LINE SMOOTH",
"-53 -263 OFFCURVE",
"-77 -238 OFFCURVE",
"-77 -199 CURVE SMOOTH",
"-77 -172 OFFCURVE",
"-62 -147 OFFCURVE",
"-34 -127 CURVE"
);
}
);
width = 0;
}
);
category = Mark;
subCategory = Nonspacing;
},
